<?xml version="1.0" encoding="UTF-8"?>
<svg width="7.1047mm" height="7.1047mm" version="1.1" viewBox="0 0 7.1047 7.1047" xmlns="http://www.w3.org/2000/svg" xmlns:xlink="http://www.w3.org/1999/xlink">
 <defs>
  <linearGradient id="linearGradient622" x1="230.33" x2="223.25" y1="182.65" y2="197.17" gradientTransform="matrix(.20118 0 0 .20118 42.395 -162.87)" gradientUnits="userSpaceOnUse" xlink:href="#linearGradient1147"/>
  <linearGradient id="linearGradient1147">
   <stop stop-color="#999" offset="0"/>
   <stop stop-color="#1a1a1a" offset="1"/>
  </linearGradient>
  <linearGradient id="linearGradient620" x1="225.26" x2="231.11" y1="183.53" y2="196.83" gradientTransform="matrix(.27494 0 0 .27494 25.511 72.405)" gradientUnits="userSpaceOnUse" xlink:href="#linearGradient1147"/>
  <linearGradient id="linearGradient618" x1="230.33" x2="223.25" y1="182.65" y2="197.17" gradientTransform="matrix(.30235 0 0 .30235 19.234 -182.09)" gradientUnits="userSpaceOnUse" xlink:href="#linearGradient1147"/>
  <linearGradient id="linearGradient616" x1="225.2" x2="232.97" y1="183.48" y2="197.29" gradientTransform="matrix(.36391 0 0 .36391 5.142 55.5)" gradientUnits="userSpaceOnUse">
   <stop stop-color="#ccc" offset="0"/>
   <stop stop-color="#999" offset="1"/>
  </linearGradient>
  <linearGradient id="linearGradient614" x1="223.54" x2="233.77" y1="179.89" y2="200.05" gradientTransform="matrix(.25299 0 0 .25299 30.536 76.575)" gradientUnits="userSpaceOnUse" xlink:href="#linearGradient1147"/>
  <linearGradient id="linearGradient612" x1="-122.93" x2="-94.25" y1="240.38" y2="355.41" gradientTransform="matrix(.058348 0 0 .058348 94.344 107.4)" gradientUnits="userSpaceOnUse">
   <stop stop-color="#4d4d4d" offset="0"/>
   <stop stop-color="#1a1a1a" offset="1"/>
  </linearGradient>
 </defs>
 <g transform="translate(-84.894 -121.09)" clip-rule="evenodd" fill-rule="evenodd">
  <g>
   <circle cx="88.446" cy="124.64" r="3.5523" fill="url(#linearGradient612)" style="paint-order:normal"/>
   <path d="m90.967 126.06c-0.07939 0.13751 0.0016 0.17556-0.09177 0.30401-0.09333 0.12846-0.15453 0.0632-0.26077 0.18122-0.10624 0.118-0.03498 0.17204-0.15297 0.27829-0.11799 0.10624-0.16429 0.0297-0.29275 0.12304-0.12845 0.0933-0.06998 0.16101-0.20749 0.2404-0.13751 0.0794-0.16688-5e-3 -0.31193 0.0595-0.14505 0.0646-0.10193 0.14294-0.25293 0.192-0.15101 0.0491-0.16218-0.0397-0.31748-7e-3 -0.15531 0.033-0.12942 0.11862-0.28733 0.13522s-0.15038-0.0725-0.30916-0.0725-0.15125 0.0891-0.30916 0.0725-0.13202-0.10221-0.28733-0.13522c-0.15531-0.033-0.16648 0.0557-0.31748 7e-3 -0.15101-0.0491-0.10788-0.12742-0.25293-0.192-0.14505-0.0646-0.17443 0.0199-0.31193-0.0595-0.13751-0.0794-0.07903-0.14707-0.20749-0.2404-0.12845-0.0933-0.17475-0.0168-0.29275-0.12304-0.118-0.10625-0.04673-0.16029-0.15297-0.27829-0.10624-0.11799-0.16744-0.0528-0.26077-0.18122-0.09333-0.12845-0.01238-0.1665-0.09177-0.30401-0.07939-0.1375-0.15281-0.0864-0.21739-0.23147-0.06458-0.14505 0.02251-0.16544-0.02656-0.31645-0.04906-0.151-0.1315-0.11631-0.16452-0.27161-0.03301-0.15531 0.05641-0.15715 0.03982-0.31505-0.0166-0.15791-0.10445-0.14111-0.10445-0.29989s0.08785-0.14198 0.10445-0.29989c0.0166-0.15791-0.07283-0.15974-0.03982-0.31505s0.11545-0.12061 0.16452-0.27162c0.04907-0.151-0.03802-0.17139 0.02656-0.31644s0.138-0.094 0.21739-0.23148c0.07939-0.1375-0.0016-0.17555 0.09177-0.304 0.09333-0.12846 0.15453-0.0632 0.26077-0.18122 0.10624-0.118 0.03498-0.17205 0.15297-0.27829 0.118-0.10624 0.1643-0.0297 0.29275-0.12304 0.12845-0.0933 0.06998-0.16101 0.20749-0.2404 0.1375-0.0794 0.16688 5e-3 0.31193-0.0595 0.14505-0.0646 0.10193-0.14294 0.25293-0.19201 0.15101-0.0491 0.16218 0.0397 0.31749 7e-3 0.15531-0.033 0.12942-0.11863 0.28733-0.13522 0.15791-0.0166 0.15038 0.0725 0.30916 0.0725s0.15125-0.0891 0.30916-0.0725 0.13202 0.10221 0.28733 0.13522c0.15531 0.033 0.16648-0.0557 0.31749-7e-3 0.15101 0.0491 0.10788 0.12743 0.25293 0.19201 0.14505 0.0646 0.17443-0.0199 0.31193 0.0595 0.1375 0.0794 0.07903 0.14707 0.20749 0.2404 0.12845 0.0933 0.17475 0.0168 0.29275 0.12304 0.118 0.10624 0.04673 0.16029 0.15297 0.27829 0.10624 0.11799 0.16744 0.0528 0.26077 0.18122 0.09333 0.12845 0.01238 0.1665 0.09177 0.304 0.07939 0.13751 0.15281 0.0864 0.21739 0.23148 0.06458 0.14505-0.02251 0.16544 0.02656 0.31644 0.04906 0.15101 0.1315 0.11631 0.16452 0.27162 0.03301 0.15531-0.05641 0.15714-0.03982 0.31505 0.0166 0.15791 0.10445 0.14111 0.10445 0.29989s-0.08785 0.14198-0.10445 0.29989c-0.0166 0.1579 0.07283 0.15974 0.03982 0.31505-0.03301 0.1553-0.11545 0.12061-0.16452 0.27161-0.04907 0.15101 0.03802 0.1714-0.02656 0.31645s-0.138 0.094-0.21739 0.23147z" fill="url(#linearGradient614)" style="paint-order:normal"/>
   <circle cx="88.445" cy="124.64" r="2.7224" fill="url(#linearGradient616)" stroke-linecap="round" stroke-linejoin="round" stroke-miterlimit="1.5" stroke-width=".51796"/>
   <circle transform="scale(1,-1)" cx="88.446" cy="-124.64" r="2.2619" fill="url(#linearGradient618)" stroke-linecap="round" stroke-linejoin="round" stroke-miterlimit="1.5" stroke-width=".43035"/>
   <path d="m85.719 123.96c-0.0093 0.018-0.01857 0.0363-0.02479 0.0656-0.03181 0.14965 0.05475 0.15119 0.03876 0.30335-0.01598 0.15215-0.10077 0.13639-0.10077 0.28938s0.08478 0.13672 0.10077 0.28887c0.01598 0.15216-0.07057 0.1537-0.03876 0.30334 0.01167 0.0549 0.03059 0.083 0.05116 0.10646h0.76171a2.0568 2.0568 0 0 1-0.11783-0.67851 2.0568 2.0568 0 0 1 0.11782-0.67851zm4.6664 0a2.0568 2.0568 0 0 1 0.11731 0.67851 2.0568 2.0568 0 0 1-0.11731 0.67851h0.83302c0.02056-0.0235 0.03948-0.0515 0.05116-0.10645 0.03181-0.14965-0.05423-0.15119-0.03824-0.30335 0.01598-0.15215 0.10025-0.13588 0.10025-0.28887s-0.08426-0.13723-0.10025-0.28938c-0.01598-0.15216 0.07005-0.1537 0.03824-0.30335-0.0062-0.0293-0.01551-0.0476-0.02479-0.0656z" fill="#878787" style="paint-order:normal"/>
   <circle cx="88.446" cy="124.64" r="2.0568" fill="url(#linearGradient620)" stroke-linecap="round" stroke-linejoin="round" stroke-miterlimit="1.5" stroke-width=".39132"/>
   <path d="m85.719 123.96c-0.0093 0.018-0.01857 0.0363-0.02479 0.0656-0.02663 0.12528 0.02659 0.15144 0.03617 0.24443h0.69402a2.0568 2.0568 0 0 1 0.08268-0.31005zm4.6664 0a2.0568 2.0568 0 0 1 0.0832 0.31005h0.76533c0.0096-0.093 0.06228-0.11915 0.03566-0.24443-0.0062-0.0293-0.01551-0.0476-0.02479-0.0656z" fill="#262626" style="paint-order:normal"/>
  </g>
  <circle cx="88.446" cy="124.64" r="1.7466" fill="#ccc" stroke-linecap="round" stroke-linejoin="round" stroke-miterlimit="1.5" stroke-width=".33231"/>
  <path d="m85.726 125.01c-0.01749 0.0644-0.05419 0.097-0.03152 0.20361 0.01167 0.0549 0.03059 0.0829 0.05116 0.10645h0.76171a2.0568 2.0568 0 0 1-0.08372-0.31006zm4.7423 0a2.0568 2.0568 0 0 1-0.08268 0.31006h0.83302c0.02056-0.0235 0.03948-0.0515 0.05116-0.10645 0.02268-0.10664-0.01402-0.13923-0.03152-0.20361z" fill="#ccc" style="paint-order:normal"/>
  <circle transform="scale(1,-1)" cx="88.446" cy="-124.64" r="1.505" fill="url(#linearGradient622)" stroke-linecap="round" stroke-linejoin="round" stroke-miterlimit="1.5" stroke-width=".28634"/>
  <circle cx="88.446" cy="124.64" r="1.3906" stroke-linecap="round" stroke-linejoin="round" stroke-miterlimit="1.5" stroke-width=".26458"/>
 </g>
</svg>
