<?xml version="1.0" encoding="UTF-8" standalone="no"?>
<!-- Created with Inkscape (http://www.inkscape.org/) -->

<svg
   xmlns:dc="http://purl.org/dc/elements/1.1/"
   xmlns:cc="http://creativecommons.org/ns#"
   xmlns:rdf="http://www.w3.org/1999/02/22-rdf-syntax-ns#"
   xmlns:svg="http://www.w3.org/2000/svg"
   xmlns="http://www.w3.org/2000/svg"
   xmlns:xlink="http://www.w3.org/1999/xlink"
   xmlns:sodipodi="http://sodipodi.sourceforge.net/DTD/sodipodi-0.dtd"
   xmlns:inkscape="http://www.inkscape.org/namespaces/inkscape"
   width="9mm"
   height="9mm"
   viewBox="0 0 9 9"
   version="1.1"
   id="svg496"
   inkscape:version="0.92.3 (2405546, 2018-03-11)"
   sodipodi:docname="Jack.svg">
  <defs
     id="defs490">
    <linearGradient
       gradientUnits="userSpaceOnUse"
       gradientTransform="matrix(0.07391,0,0,0.07391,11.97,270.7)"
       y2="355.4"
       y1="240.4"
       x2="-94.25"
       x1="-122.9"
       id="linearGradient3548">
      <stop
         id="stop498"
         offset="0"
         stop-color="#4d4d4d" />
      <stop
         id="stop500"
         offset="1"
         stop-color="#1a1a1a" />
    </linearGradient>
    <linearGradient
       xlink:href="#linearGradient1147"
       gradientUnits="userSpaceOnUse"
       gradientTransform="matrix(0.3161,0,0,0.3161,-67.86,232.4)"
       y2="200"
       y1="179.9"
       x2="233.8"
       x1="223.5"
       id="linearGradient3550" />
    <linearGradient
       id="linearGradient1147">
      <stop
         id="stop504"
         offset="0"
         stop-color="#999" />
      <stop
         id="stop506"
         offset="1"
         stop-color="#1a1a1a" />
    </linearGradient>
    <linearGradient
       gradientUnits="userSpaceOnUse"
       gradientTransform="matrix(0.4554,0,0,0.4554,-99.73,206)"
       y2="197.3"
       y1="183.5"
       x2="233"
       x1="225.2"
       id="linearGradient3552">
      <stop
         id="stop509"
         offset="0"
         stop-color="#ccc" />
      <stop
         id="stop511"
         offset="1"
         stop-color="#999" />
    </linearGradient>
    <linearGradient
       xlink:href="#linearGradient1147"
       gradientUnits="userSpaceOnUse"
       gradientTransform="matrix(0.3985,0,0,0.3985,-86.72,-368.2)"
       y2="197.2"
       y1="182.6"
       x2="223.2"
       x1="230.3"
       id="linearGradient3554" />
    <linearGradient
       xlink:href="#linearGradient1147"
       gradientUnits="userSpaceOnUse"
       gradientTransform="matrix(0.3728,0,0,0.3728,-80.84,221.7)"
       y2="196.8"
       y1="183.5"
       x2="231.1"
       x1="225.3"
       id="linearGradient3556" />
    <linearGradient
       xlink:href="#linearGradient1147"
       gradientUnits="userSpaceOnUse"
       gradientTransform="matrix(0.2973,0,0,0.2973,-63.55,-349)"
       y2="197.2"
       y1="182.6"
       x2="223.2"
       x1="230.3"
       id="linearGradient3558" />
    <linearGradient
       gradientUnits="userSpaceOnUse"
       gradientTransform="matrix(1.286,0,0,1.286,-50.2433,130.70957)"
       y2="126.1"
       y1="127.1"
       x2="42.53"
       x1="42.52"
       id="linearGradient3560">
      <stop
         id="stop517"
         offset="0"
         stop-color="#b3b3b3" />
      <stop
         id="stop519"
         offset="1"
         style="stop-color:#0d0d0d;stop-opacity:1" />
    </linearGradient>
    <linearGradient
       gradientUnits="userSpaceOnUse"
       gradientTransform="matrix(1.286,0,0,1.286,-50.2455,130.54656)"
       y2="127.1"
       y1="126.7"
       x2="42.52"
       x1="42.53"
       id="linearGradient3562">
      <stop
         id="stop522"
         offset="0"
         stop-color="#8e8e8e" />
      <stop
         id="stop524"
         offset="1"
         stop-color="#292929" />
    </linearGradient>
  </defs>
  <sodipodi:namedview
     id="base"
     pagecolor="#ffffff"
     bordercolor="#666666"
     borderopacity="1.0"
     inkscape:pageopacity="0.0"
     inkscape:pageshadow="2"
     inkscape:zoom="4.7343827"
     inkscape:cx="11.24389"
     inkscape:cy="23.843337"
     inkscape:document-units="mm"
     inkscape:current-layer="layer1"
     showgrid="false"
     inkscape:window-width="1920"
     inkscape:window-height="1135"
     inkscape:window-x="0"
     inkscape:window-y="0"
     inkscape:window-maximized="1" />
  <metadata
     id="metadata493">
    <rdf:RDF>
      <cc:Work
         rdf:about="">
        <dc:format>image/svg+xml</dc:format>
        <dc:type
           rdf:resource="http://purl.org/dc/dcmitype/StillImage" />
        <dc:title></dc:title>
      </cc:Work>
    </rdf:RDF>
  </metadata>
  <g
     inkscape:label="Layer 1"
     inkscape:groupmode="layer"
     id="layer1"
     transform="translate(0,-288)">
    <circle
       cx="4.5"
       cy="292.5"
       r="4.5"
       style="clip-rule:evenodd;fill:url(#linearGradient3548);fill-rule:evenodd;stroke-width:1.06900001;paint-order:normal"
       id="circle529" />
    <path
       inkscape:connector-curvature="0"
       d="m 4.5,292.5 a 4.5,4.5 0 0 0 -2.245,3.893 4.5,4.5 0 0 0 4.495,0.004 4.5,4.5 0 0 0 2.246,-3.893 A 4.5,4.5 0 0 0 4.5,292.5 Z"
       style="clip-rule:evenodd;fill-opacity:0.04706002;fill-rule:evenodd;stroke-width:1.06900001;paint-order:normal"
       id="path531" />
    <path
       inkscape:connector-curvature="0"
       d="m 2.25,288.6 a 4.5,4.5 0 0 0 -2.246,3.894 4.5,4.5 0 0 0 4.496,0.004 4.5,4.5 0 0 0 2.246,-3.893 4.5,4.5 0 0 0 -4.496,-0.004 z"
       style="clip-rule:evenodd;fill:#ffffff;fill-opacity:0.02353001;fill-rule:evenodd;stroke-width:1.06900001;paint-order:normal"
       id="path533" />
    <path
       inkscape:connector-curvature="0"
       d="m 7.654,294.3 c -0.09921,0.1718 0.00193,0.2194 -0.1147,0.3799 -0.1166,0.1605 -0.1931,0.079 -0.3259,0.2265 -0.1328,0.1474 -0.04371,0.215 -0.1912,0.3478 -0.1474,0.1328 -0.2053,0.0371 -0.3658,0.1538 -0.1605,0.1166 -0.08745,0.2012 -0.2593,0.3004 -0.1718,0.0992 -0.2085,-0.006 -0.3898,0.0743 -0.1813,0.0807 -0.1274,0.1786 -0.3161,0.2399 -0.1887,0.0614 -0.2027,-0.0496 -0.3967,-0.009 -0.1941,0.0412 -0.1617,0.1482 -0.3591,0.169 -0.1973,0.0207 -0.1879,-0.0906 -0.3863,-0.0906 -0.1984,0 -0.189,0.1113 -0.3863,0.0906 -0.1973,-0.0207 -0.165,-0.1277 -0.3591,-0.169 -0.1941,-0.0412 -0.208,0.0696 -0.3967,0.009 -0.1887,-0.0614 -0.1348,-0.1592 -0.3161,-0.2399 -0.1813,-0.0807 -0.218,0.0249 -0.3898,-0.0743 C 2.5293,295.6092 2.60234,295.5246 2.4418,295.408 2.2813,295.2914 2.2234,295.387 2.076,295.2542 1.9285,295.1214 2.0176,295.0539 1.8848,294.9064 1.752,294.759 1.6756,294.8404 1.5589,294.6799 1.4423,294.5194 1.54344,294.4718 1.4442,294.3 1.34499,294.1282 1.2532,294.192 1.1725,294.0108 1.0918,293.8295 1.20062,293.8041 1.13931,293.6154 1.078,293.4267 0.97501,293.47 0.93371,293.276 c -0.04125,-0.1941 0.07049,-0.1964 0.04976,-0.3937 -0.02076,-0.1973 -0.1305,-0.1763 -0.1305,-0.3748 0,-0.1985 0.1098,-0.1774 0.1305,-0.3748 0.0207,-0.1973 -0.09101,-0.1996 -0.04976,-0.3937 0.04125,-0.1941 0.1443,-0.1507 0.2056,-0.3394 0.06131,-0.1887 -0.04751,-0.2142 0.03319,-0.3954 0.0807,-0.1813 0.1724,-0.1175 0.2717,-0.2893 0.0992,-0.1718 -0.00193,-0.2194 0.1147,-0.3799 0.1166,-0.1605 0.1931,-0.079 0.3259,-0.2264 0.1328,-0.1475 0.04372,-0.215 0.1912,-0.3478 0.1475,-0.1328 0.2053,-0.0371 0.3658,-0.1538 0.1605,-0.1166 0.08744,-0.2012 0.2593,-0.3004 0.1718,-0.0992 0.2085,0.006 0.3898,-0.0743 0.1813,-0.0807 0.1274,-0.1786 0.3161,-0.24 0.1887,-0.0613 0.2027,0.0496 0.3967,0.009 0.1941,-0.0412 0.1617,-0.1482 0.359,-0.169 0.1973,-0.0207 0.1879,0.0906 0.3863,0.0906 0.1984,0 0.189,-0.1114 0.3863,-0.0906 0.1973,0.0208 0.165,0.1277 0.3591,0.169 0.1941,0.0412 0.208,-0.0696 0.3967,-0.009 0.1887,0.0614 0.1348,0.1592 0.3161,0.24 0.1813,0.0807 0.218,-0.0249 0.3898,0.0743 0.1718,0.0992 0.09876,0.1838 0.2593,0.3004 0.1605,0.1166 0.2184,0.021 0.3658,0.1538 0.1475,0.1328 0.05839,0.2003 0.1912,0.3478 0.1328,0.1474 0.2092,0.066 0.3259,0.2264 0.1166,0.1605 0.01546,0.2081 0.1147,0.3799 0.0992,0.1718 0.191,0.108 0.2717,0.2893 0.0807,0.1813 -0.02813,0.2067 0.03319,0.3954 0.06131,0.1887 0.1643,0.1453 0.2056,0.3394 0.04125,0.1941 -0.07049,0.1964 -0.04976,0.3937 0.02073,0.1973 0.1305,0.1763 0.1305,0.3748 0,0.1985 -0.1098,0.1774 -0.1305,0.3748 -0.02073,0.1973 0.09101,0.1996 0.04976,0.3937 -0.04125,0.1941 -0.1443,0.1507 -0.2056,0.3394 -0.06132,0.1887 0.04751,0.2142 -0.03319,0.3954 -0.0807,0.1813 -0.1725,0.1175 -0.2717,0.2892 z"
       style="clip-rule:evenodd;fill:url(#linearGradient3550);fill-rule:evenodd;stroke-width:1.05499995;paint-order:normal"
       id="path535" />
    <circle
       style="clip-rule:evenodd;fill:url(#linearGradient3552);fill-rule:evenodd;stroke-width:0.64810002;stroke-linecap:round;stroke-linejoin:round;stroke-miterlimit:1.5"
       cx="4.5019999"
       cy="292.5"
       r="3.4070001"
       stroke-miterlimit="1.5"
       id="circle537" />
    <circle
       style="clip-rule:evenodd;fill:url(#linearGradient3554);fill-rule:evenodd;stroke-width:0.56720001;stroke-linecap:round;stroke-linejoin:round;stroke-miterlimit:1.5"
       transform="scale(1,-1)"
       cx="4.5029998"
       cy="-292.5"
       r="2.9809999"
       stroke-miterlimit="1.5"
       id="circle539" />
    <path
       inkscape:connector-curvature="0"
       d="m 1.05,291.6 c -0.01179,0.0228 -0.02366,0.0461 -0.03153,0.0832 -0.04029,0.1895 0.06934,0.1918 0.04909,0.3845 -0.02023,0.1927 -0.1276,0.1726 -0.1276,0.3664 0,0.1938 0.1074,0.1732 0.1276,0.3659 0.02023,0.1927 -0.08938,0.1944 -0.04909,0.384 0.01477,0.0695 0.03855,0.1052 0.0646,0.1349 h 0.7664 a 2.789,2.789 0 0 1 -0.138,-0.8563 2.789,2.789 0 0 1 0.1385,-0.8625 z m 6.099,0 a 2.789,2.789 0 0 1 0.14,0.8625 2.789,2.789 0 0 1 -0.1364,0.8563 h 0.862 c 0.02603,-0.0298 0.05032,-0.0653 0.06511,-0.1349 0.04029,-0.1895 -0.06883,-0.1912 -0.04858,-0.384 0.02023,-0.1927 0.1271,-0.1721 0.1271,-0.3659 0,-0.1938 -0.1069,-0.1737 -0.1271,-0.3664 -0.02023,-0.1927 0.08886,-0.1949 0.04858,-0.3845 -0.00784,-0.0371 -0.01974,-0.0604 -0.03152,-0.0832 z"
       style="clip-rule:evenodd;fill:#878787;fill-rule:evenodd;stroke-width:1.06900001;paint-order:normal"
       id="path541" />
    <circle
       style="clip-rule:evenodd;fill:url(#linearGradient3556);fill-rule:evenodd;stroke-width:0.53060001;stroke-linecap:round;stroke-linejoin:round;stroke-miterlimit:1.5"
       cx="4.5"
       cy="292.5"
       r="2.789"
       stroke-miterlimit="1.5"
       id="circle543" />
    <path
       inkscape:connector-curvature="0"
       d="m 1.05,291.6 c -0.01179,0.0228 -0.02366,0.0461 -0.03153,0.0832 -0.03372,0.1587 0.03334,0.1918 0.04548,0.3095 h 0.6904 A 2.789,2.789 0 0 1 1.84995,291.6 Z m 6.099,0 a 2.789,2.789 0 0 1 0.1003,0.3927 h 0.785 c 0.01214,-0.1178 0.0792,-0.1509 0.04548,-0.3095 C 8.07194,291.6461 8.06002,291.6228 8.04826,291.6 Z"
       style="clip-rule:evenodd;fill:#262626;fill-rule:evenodd;stroke-width:1.06900001;paint-order:normal"
       id="path545" />
    <circle
       style="clip-rule:evenodd;fill:#cccccc;fill-rule:evenodd;stroke-width:0.48230001;stroke-linecap:round;stroke-linejoin:round;stroke-miterlimit:1.5"
       cx="4.5"
       cy="292.5"
       r="2.5350001"
       stroke-miterlimit="1.5"
       id="circle547" />
    <path
       inkscape:connector-curvature="0"
       d="m 1.059,293 c -0.02214,0.0816 -0.06902,0.1228 -0.04031,0.2579 0.01477,0.0695 0.03906,0.1051 0.06511,0.1349 h 0.7669 a 2.789,2.789 0 0 1 -0.09974,-0.3927 z m 6.188,0 a 2.789,2.789 0 0 1 -0.0956,0.3927 h 0.864 c 0.02603,-0.0298 0.0498,-0.0653 0.0646,-0.1349 0.02872,-0.135 -0.01761,-0.1763 -0.03979,-0.2579 z"
       style="clip-rule:evenodd;fill:#cccccc;fill-rule:evenodd;stroke-width:1.06900001;paint-order:normal"
       id="path549" />
    <circle
       style="clip-rule:evenodd;fill:url(#linearGradient3558);fill-rule:evenodd;stroke-width:0.42309999;stroke-linecap:round;stroke-linejoin:round;stroke-miterlimit:1.5"
       transform="scale(1,-1)"
       cx="4.5"
       cy="-292.5"
       r="2.224"
       stroke-miterlimit="1.5"
       id="circle551" />
    <circle
       style="clip-rule:evenodd;fill-rule:evenodd;stroke-width:0.37990001;stroke-linecap:round;stroke-linejoin:round;stroke-miterlimit:1.5"
       cx="4.5"
       cy="292.5"
       r="1.9960001"
       stroke-miterlimit="1.5"
       id="circle553" />
    <path
       style="clip-rule:evenodd;fill:url(#linearGradient3560);stroke-width:0.34020001;stroke-linejoin:round;stroke-miterlimit:1.41400003"
       d="m 4.4968831,291.9096 c -0.3431,1.4e-4 -0.6683303,0.0568 -0.9534302,0.17157 -0.05297,0.0335 -0.1070795,0.0652 -0.1565796,0.10439 v 1.21181 c 0,0.0168 0.00444,0.0325 0.00517,0.0491 H 5.607926 c 7.408e-4,-0.0167 0.00517,-0.0323 0.00517,-0.0491 v -1.20458 c -0.05213,-0.0417 -0.1094648,-0.0757 -0.1653646,-0.1111 -0.2847001,-0.1145 -0.6095799,-0.17127 -0.9518798,-0.17157 z"
       id="path555"
       inkscape:connector-curvature="0"
       sodipodi:nodetypes="cccsccscccc" />
    <path
       style="clip-rule:evenodd;fill:url(#linearGradient3562);stroke-width:0.34020001;stroke-linejoin:round;stroke-miterlimit:1.41400003"
       inkscape:connector-curvature="0"
       d="m 3.3865,293.44656 v 0.1374 c 0,0.4614 0.4971,0.8326 1.114,0.8326 0.6165,0 1.113,-0.3712 1.113,-0.8326 v -0.1374 z"
       stroke-miterlimit="1.414"
       id="path557" />
  </g>
</svg>
