<?xml version="1.0" encoding="UTF-8" standalone="no"?>
<!-- Created with Inkscape (http://www.inkscape.org/) -->

<svg
   xmlns:dc="http://purl.org/dc/elements/1.1/"
   xmlns:cc="http://creativecommons.org/ns#"
   xmlns:rdf="http://www.w3.org/1999/02/22-rdf-syntax-ns#"
   xmlns:svg="http://www.w3.org/2000/svg"
   xmlns="http://www.w3.org/2000/svg"
   xmlns:sodipodi="http://sodipodi.sourceforge.net/DTD/sodipodi-0.dtd"
   xmlns:inkscape="http://www.inkscape.org/namespaces/inkscape"
   width="12mm"
   height="12mm"
   viewBox="0 0 12 12"
   version="1.1"
   id="svg192"
   sodipodi:docname="knob_12mm_02.svg"
   inkscape:version="0.92.3 (2405546, 2018-03-11)">
  <defs
     id="defs186" />
  <sodipodi:namedview
     id="base"
     pagecolor="#ffffff"
     bordercolor="#666666"
     borderopacity="1.0"
     inkscape:pageopacity="0.0"
     inkscape:pageshadow="2"
     inkscape:zoom="10.043142"
     inkscape:cx="7.0236879"
     inkscape:cy="25.99169"
     inkscape:document-units="mm"
     inkscape:current-layer="layer1"
     showgrid="false"
     inkscape:window-width="1920"
     inkscape:window-height="1135"
     inkscape:window-x="0"
     inkscape:window-y="0"
     inkscape:window-maximized="1" />
  <metadata
     id="metadata189">
    <rdf:RDF>
      <cc:Work
         rdf:about="">
        <dc:format>image/svg+xml</dc:format>
        <dc:type
           rdf:resource="http://purl.org/dc/dcmitype/StillImage" />
        <dc:title></dc:title>
      </cc:Work>
    </rdf:RDF>
  </metadata>
  <g
     inkscape:label="Layer 1"
     inkscape:groupmode="layer"
     id="layer1"
     transform="translate(0,-285)">
    <g
       style="clip-rule:evenodd"
       transform="matrix(0.80000002,0,0,0.80000002,-1.5e-7,59.381074)"
       id="g67">
      <path
         inkscape:connector-curvature="0"
         d="m 13.77,289 a 6.3,6.3 0 0 1 0.02791,0.5591 6.3,6.3 0 0 1 -0.03049,0.6186 6.3,6.3 0 0 0 0.03152,-0.6289 6.3,6.3 0 0 0 -0.02842,-0.5488 7.5,7.5 0 0 0 -5.52e-4,0 z m 0.3075,0.1121 a 6.6,6.6 0 0 1 0.02169,0.4367 6.6,6.6 0 0 1 -6.6,6.6 6.6,6.6 0 0 1 -3.671,-1.121 7.5,7.5 0 0 0 -0.06356,1.018 7.5,7.5 0 0 0 3.734,1.003 7.5,7.5 0 0 0 7.499,-7.479 7.5,7.5 0 0 0 -0.9204,-0.4573 z"
         style="fill-opacity:0.04706002;fill-rule:evenodd;stroke-width:0.95719999;paint-order:normal"
         id="path61" />
      <path
         inkscape:connector-curvature="0"
         d="m 7.5,282 a 7.5,7.5 0 0 0 -7.5,7.499 7.5,7.5 0 0 0 0.9235,0.4589 6.6,6.6 0 0 1 -0.02324,-0.4584 6.6,6.6 0 0 1 6.6,-6.6 6.6,6.6 0 0 1 3.673,1.122 7.5,7.5 0 0 0 0.06098,-1.02 7.5,7.5 0 0 0 -3.734,-1.003 z m 0,1.2 a 6.3,6.3 0 0 0 -4.056,1.488 6.3,6.3 0 0 1 4.055,-1.478 6.3,6.3 0 0 1 3.626,1.158 7.5,7.5 0 0 0 0.0031,-0.014 6.3,6.3 0 0 0 -3.628,-1.154 z"
         style="fill:#ffffff;fill-opacity:0.02353001;fill-rule:evenodd;stroke-width:0.95719999;paint-order:normal"
         id="path63" />
      <circle
         cx="7.5"
         cy="289.5"
         r="7.5"
         style="opacity:0;stroke-width:0.95719999;paint-order:normal"
         id="circle65" />
    </g>
  </g>
</svg>
