<?xml version="1.0" encoding="UTF-8" standalone="no"?>
<!-- Created with Inkscape (http://www.inkscape.org/) -->

<svg
   xmlns:dc="http://purl.org/dc/elements/1.1/"
   xmlns:cc="http://creativecommons.org/ns#"
   xmlns:rdf="http://www.w3.org/1999/02/22-rdf-syntax-ns#"
   xmlns:svg="http://www.w3.org/2000/svg"
   xmlns="http://www.w3.org/2000/svg"
   xmlns:sodipodi="http://sodipodi.sourceforge.net/DTD/sodipodi-0.dtd"
   xmlns:inkscape="http://www.inkscape.org/namespaces/inkscape"
   width="15mm"
   height="15mm"
   viewBox="0 0 15 15"
   version="1.1"
   id="svg8"
   inkscape:version="0.92.3 (2405546, 2018-03-11)"
   sodipodi:docname="knob_15mm_01.svg">
  <defs
     id="defs2" />
  <sodipodi:namedview
     id="base"
     pagecolor="#ffffff"
     bordercolor="#666666"
     borderopacity="1.0"
     inkscape:pageopacity="0.0"
     inkscape:pageshadow="2"
     inkscape:zoom="2.8"
     inkscape:cx="41.685219"
     inkscape:cy="58.057643"
     inkscape:document-units="mm"
     inkscape:current-layer="layer1"
     showgrid="false"
     inkscape:window-width="1920"
     inkscape:window-height="1135"
     inkscape:window-x="0"
     inkscape:window-y="0"
     inkscape:window-maximized="1" />
  <metadata
     id="metadata5">
    <rdf:RDF>
      <cc:Work
         rdf:about="">
        <dc:format>image/svg+xml</dc:format>
        <dc:type
           rdf:resource="http://purl.org/dc/dcmitype/StillImage" />
        <dc:title></dc:title>
      </cc:Work>
    </rdf:RDF>
  </metadata>
  <g
     inkscape:label="Layer 1"
     inkscape:groupmode="layer"
     id="layer1"
     transform="translate(0,-282)">
    <g
       id="g76"
       style="clip-rule:evenodd;stroke-width:0.95719999">
      <path
         id="path68"
         style="fill:#5d5d5d;fill-rule:evenodd;paint-order:normal"
         d="m 7.5,282.9 a 6.6,6.6 0 0 0 -6.6,6.6 6.6,6.6 0 0 0 6.6,6.6 6.6,6.6 0 0 0 6.6,-6.6 6.6,6.6 0 0 0 -6.6,-6.6 z m 0,0.3 a 6.3,6.3 0 0 1 6.3,6.3 6.3,6.3 0 0 1 -6.3,6.3 6.3,6.3 0 0 1 -6.3,-6.3 6.3,6.3 0 0 1 6.3,-6.3 z"
         inkscape:connector-curvature="0" />
      <circle
         id="circle70"
         style="fill:#4d4d4d;fill-rule:evenodd;paint-order:normal"
         r="6.3000002"
         cy="289.5"
         cx="7.4990001" />
      <path
         id="path72"
         style="fill:#f9f9f9;fill-rule:evenodd;paint-order:normal"
         d="m 7.499,283.3 c 0.1677,0 0.3028,0.135 0.3028,0.3028 v 3.297 c 0,0.1678 -0.135,0.3028 -0.3028,0.3028 -0.1677,0 -0.3028,-0.135 -0.3028,-0.3028 v -3.297 c 0,-0.1677 0.135,-0.3028 0.3028,-0.3028 z"
         inkscape:connector-curvature="0" />
      <circle
         id="circle74"
         style="opacity:0;paint-order:normal"
         r="7.5"
         cy="289.5"
         cx="7.5" />
    </g>
  </g>
</svg>
