<?xml version="1.0" encoding="UTF-8" standalone="no"?>
<!-- Created with Inkscape (http://www.inkscape.org/) -->

<svg
   xmlns:dc="http://purl.org/dc/elements/1.1/"
   xmlns:cc="http://creativecommons.org/ns#"
   xmlns:rdf="http://www.w3.org/1999/02/22-rdf-syntax-ns#"
   xmlns:svg="http://www.w3.org/2000/svg"
   xmlns="http://www.w3.org/2000/svg"
   xmlns:sodipodi="http://sodipodi.sourceforge.net/DTD/sodipodi-0.dtd"
   xmlns:inkscape="http://www.inkscape.org/namespaces/inkscape"
   width="9mm"
   height="9mm"
   viewBox="0 0 9 9"
   version="1.1"
   id="svg325"
   sodipodi:docname="knob_09mm_01.svg"
   inkscape:version="0.92.3 (2405546, 2018-03-11)">
  <defs
     id="defs319" />
  <sodipodi:namedview
     id="base"
     pagecolor="#ffffff"
     bordercolor="#666666"
     borderopacity="1.0"
     inkscape:pageopacity="0.0"
     inkscape:pageshadow="2"
     inkscape:zoom="26.781713"
     inkscape:cx="17.007874"
     inkscape:cy="17.007874"
     inkscape:document-units="mm"
     inkscape:current-layer="layer1"
     showgrid="false"
     inkscape:window-width="1920"
     inkscape:window-height="1135"
     inkscape:window-x="0"
     inkscape:window-y="0"
     inkscape:window-maximized="1" />
  <metadata
     id="metadata322">
    <rdf:RDF>
      <cc:Work
         rdf:about="">
        <dc:format>image/svg+xml</dc:format>
        <dc:type
           rdf:resource="http://purl.org/dc/dcmitype/StillImage" />
        <dc:title></dc:title>
      </cc:Work>
    </rdf:RDF>
  </metadata>
  <g
     inkscape:label="Layer 1"
     inkscape:groupmode="layer"
     id="layer1"
     transform="translate(0,-288)">
    <path
       d="m 4.5005001,288.6425 a 3.857,3.857 0 0 0 -3.85799997,3.858 3.857,3.857 0 0 0 3.85799997,3.857 3.857,3.857 0 0 0 3.857,-3.857 3.857,3.857 0 0 0 -3.857,-3.858 z m 0,0.2889 a 3.569,3.569 0 0 1 3.568,3.569 3.569,3.569 0 0 1 -3.568,3.568 3.569,3.569 0 0 1 -3.56899997,-3.568 3.569,3.569 0 0 1 3.56899997,-3.569 z"
       style="clip-rule:evenodd;fill:#5d5d5d;fill-rule:evenodd;stroke-width:2.08299994;paint-order:normal"
       id="path2"
       inkscape:connector-curvature="0" />
    <circle
       cx="4.5"
       cy="292.5"
       r="3.569"
       style="clip-rule:evenodd;fill:#4d4d4d;fill-rule:evenodd;stroke-width:1.92700005;paint-order:normal"
       id="circle4" />
    <path
       d="m 4.5,289.1 c 0.1677,0 0.3028,0.135 0.3028,0.3028 v 1.287 c 0,0.1677 -0.135,0.3028 -0.3028,0.3028 -0.1677,0 -0.3028,-0.135 -0.3028,-0.3028 v -1.287 c 0,-0.1677 0.135,-0.3028 0.3028,-0.3028 z"
       style="clip-rule:evenodd;fill:#f9f9f9;fill-rule:evenodd;stroke-width:0.95719999;paint-order:normal"
       id="path6"
       inkscape:connector-curvature="0" />
    <circle
       cx="4.5"
       cy="292.5"
       r="4.5"
       style="clip-rule:evenodd;opacity:0;stroke-width:1.43599999;paint-order:normal"
       id="circle8" />
  </g>
</svg>
