<?xml version="1.0" encoding="UTF-8" standalone="no"?>
<!-- Created with Inkscape (http://www.inkscape.org/) -->

<svg
   xmlns:dc="http://purl.org/dc/elements/1.1/"
   xmlns:cc="http://creativecommons.org/ns#"
   xmlns:rdf="http://www.w3.org/1999/02/22-rdf-syntax-ns#"
   xmlns:svg="http://www.w3.org/2000/svg"
   xmlns="http://www.w3.org/2000/svg"
   xmlns:sodipodi="http://sodipodi.sourceforge.net/DTD/sodipodi-0.dtd"
   xmlns:inkscape="http://www.inkscape.org/namespaces/inkscape"
   width="12mm"
   height="12mm"
   viewBox="0 0 12 12"
   version="1.1"
   id="svg192"
   sodipodi:docname="knob_12mm_01.svg"
   inkscape:version="0.92.3 (2405546, 2018-03-11)">
  <defs
     id="defs186" />
  <sodipodi:namedview
     id="base"
     pagecolor="#ffffff"
     bordercolor="#666666"
     borderopacity="1.0"
     inkscape:pageopacity="0.0"
     inkscape:pageshadow="2"
     inkscape:zoom="10.043142"
     inkscape:cx="7.0236879"
     inkscape:cy="25.99169"
     inkscape:document-units="mm"
     inkscape:current-layer="layer1"
     showgrid="false"
     inkscape:window-width="1920"
     inkscape:window-height="1135"
     inkscape:window-x="0"
     inkscape:window-y="0"
     inkscape:window-maximized="1" />
  <metadata
     id="metadata189">
    <rdf:RDF>
      <cc:Work
         rdf:about="">
        <dc:format>image/svg+xml</dc:format>
        <dc:type
           rdf:resource="http://purl.org/dc/dcmitype/StillImage" />
        <dc:title></dc:title>
      </cc:Work>
    </rdf:RDF>
  </metadata>
  <g
     inkscape:label="Layer 1"
     inkscape:groupmode="layer"
     id="layer1"
     transform="translate(0,-285)">
    <path
       id="path38"
       style="clip-rule:evenodd;fill:#5d5d5d;fill-rule:evenodd;stroke-width:0.76576;paint-order:normal"
       d="M 6,285.72 A 5.2800001,5.2800001 0 0 0 0.71999987,291 5.2800001,5.2800001 0 0 0 6,296.28 5.2800001,5.2800001 0 0 0 11.28,291 5.2800001,5.2800001 0 0 0 6,285.72 Z m 0,0.24 A 5.0400001,5.0400001 0 0 1 11.04,291 5.0400001,5.0400001 0 0 1 6,296.04 5.0400001,5.0400001 0 0 1 0.95999987,291 5.0400001,5.0400001 0 0 1 6,285.96 Z"
       inkscape:connector-curvature="0" />
    <circle
       id="circle40"
       style="clip-rule:evenodd;fill:#4d4d4d;fill-rule:evenodd;stroke-width:0.76576;paint-order:normal"
       r="5.0400004"
       cy="291"
       cx="5.9991999" />
    <path
       id="path42"
       style="clip-rule:evenodd;fill:#f9f9f9;fill-rule:evenodd;stroke-width:0.76576;paint-order:normal"
       d="m 5.9992,286.04 c 0.13416,0 0.24224,0.108 0.24224,0.24224 v 2.6376 c 0,0.13424 -0.108,0.24224 -0.24224,0.24224 -0.13416,0 -0.24224,-0.108 -0.24224,-0.24224 v -2.6376 c 0,-0.13416 0.108,-0.24224 0.24224,-0.24224 z"
       inkscape:connector-curvature="0" />
    <circle
       id="circle44"
       style="clip-rule:evenodd;opacity:0;stroke-width:0.76576;paint-order:normal"
       r="6"
       cy="291"
       cx="6" />
  </g>
</svg>
