<?xml version="1.0" encoding="UTF-8"?>
<svg width="11.642mm" height="11.642mm" version="1.1" viewBox="0 0 11.642 11.642" xmlns="http://www.w3.org/2000/svg">
 <g transform="translate(-81.114 -108.99)" clip-rule="evenodd" fill-rule="evenodd">
  <path d="m86.935 108.99a5.8208 5.8208 0 0 0-5.8208 5.8208 5.8208 5.8208 0 0 0 5.8208 5.8208 5.8208 5.8208 0 0 0 5.8208-5.8208 5.8208 5.8208 0 0 0-5.8208-5.8208zm0 0.26459a5.5562 5.5562 0 0 1 5.5562 5.5562 5.5562 5.5562 0 0 1-5.5562 5.5562 5.5562 5.5562 0 0 1-5.5562-5.5562 5.5562 5.5562 0 0 1 5.5562-5.5562z" fill="#5d5d5d" style="paint-order:normal"/>
  <circle cx="86.934" cy="114.82" r="5.5563" fill="#4d4d4d" style="paint-order:normal"/>
  <path d="m86.934 109.34c0.14794 0 0.26703 0.1191 0.26703 0.26703v2.9077c0 0.14794-0.1191 0.26704-0.26703 0.26704-0.14794 0-0.26704-0.1191-0.26704-0.26704v-2.9077c0-0.14793 0.1191-0.26703 0.26704-0.26703z" fill="#f9f9f9" style="paint-order:normal"/>
 </g>
</svg>
