<?xml version="1.0" encoding="UTF-8" standalone="no"?>
<!-- Created with Inkscape (http://www.inkscape.org/) -->

<svg
   xmlns:dc="http://purl.org/dc/elements/1.1/"
   xmlns:cc="http://creativecommons.org/ns#"
   xmlns:rdf="http://www.w3.org/1999/02/22-rdf-syntax-ns#"
   xmlns:svg="http://www.w3.org/2000/svg"
   xmlns="http://www.w3.org/2000/svg"
   xmlns:sodipodi="http://sodipodi.sourceforge.net/DTD/sodipodi-0.dtd"
   xmlns:inkscape="http://www.inkscape.org/namespaces/inkscape"
   width="9mm"
   height="9mm"
   viewBox="0 0 9 9"
   version="1.1"
   id="svg325"
   sodipodi:docname="knob_09mm_02.svg"
   inkscape:version="0.92.3 (2405546, 2018-03-11)">
  <defs
     id="defs319" />
  <sodipodi:namedview
     id="base"
     pagecolor="#ffffff"
     bordercolor="#666666"
     borderopacity="1.0"
     inkscape:pageopacity="0.0"
     inkscape:pageshadow="2"
     inkscape:zoom="26.781713"
     inkscape:cx="17.007874"
     inkscape:cy="17.007874"
     inkscape:document-units="mm"
     inkscape:current-layer="layer1"
     showgrid="false"
     inkscape:window-width="1920"
     inkscape:window-height="1135"
     inkscape:window-x="0"
     inkscape:window-y="0"
     inkscape:window-maximized="1" />
  <metadata
     id="metadata322">
    <rdf:RDF>
      <cc:Work
         rdf:about="">
        <dc:format>image/svg+xml</dc:format>
        <dc:type
           rdf:resource="http://purl.org/dc/dcmitype/StillImage" />
        <dc:title></dc:title>
      </cc:Work>
    </rdf:RDF>
  </metadata>
  <g
     inkscape:label="Layer 1"
     inkscape:groupmode="layer"
     id="layer1"
     transform="translate(0,-288)">
    <path
       inkscape:connector-curvature="0"
       d="m 8.34188,292.19585 a 3.857,3.857 0 0 1 0.0155,0.309 3.857,3.857 0 0 1 -3.857,3.857 3.857,3.857 0 0 1 -2.188,-0.6857 4.5,4.5 0 0 0 -0.05426,0.7255 4.5,4.5 0 0 0 2.243,0.6031 4.5,4.5 0 0 0 4.499,-4.493 4.5,4.5 0 0 0 -0.6578,-0.3163 z"
       style="clip-rule:evenodd;fill-opacity:0.04706002;fill-rule:evenodd;stroke-width:1.43599999;paint-order:normal"
       id="path432" />
    <path
       inkscape:connector-curvature="0"
       d="m 4.49988,287.99585 c -2.482,2.9e-4 -4.496,2.011 -4.499,4.493 0.2102,0.1229 0.43,0.2284 0.6573,0.3157 -0.009299,-0.1028 -0.01447,-0.2058 -0.0155,-0.309 -1.662e-4,-2.131 1.727,-3.858 3.858,-3.858 0.7822,0.002 1.545,0.2409 2.188,0.6863 0.03764,-0.24 0.05579,-0.4826 0.05426,-0.7255 -0.6819,-0.3938 -1.455,-0.6017 -2.243,-0.6031 z m -3.553,4.808 c 0.003129,0.034 0.006745,0.0679 0.01085,0.1018 l 0.001587,5.3e-4 c -0.004629,-0.0341 -0.008765,-0.0682 -0.01241,-0.1023 z"
       style="clip-rule:evenodd;fill:#ffffff;fill-opacity:0.02353001;fill-rule:evenodd;stroke-width:1.43599999;paint-order:normal"
       id="path434" />
    <circle
       cx="4.4998798"
       cy="292.49585"
       r="4.5"
       style="clip-rule:evenodd;opacity:0;stroke-width:1.43599999;paint-order:normal"
       id="circle436" />
  </g>
</svg>
