<?xml version="1.0" encoding="UTF-8"?>
<svg width="2.9104mm" height="2.9104mm" version="1.1" viewBox="0 0 2.9104 2.9104" xmlns="http://www.w3.org/2000/svg" xmlns:xlink="http://www.w3.org/1999/xlink">
 <defs>
  <linearGradient id="linearGradient1659" x1="-135.92" x2="-138.72" y1="-137.45" y2="-126.89" gradientTransform="matrix(.26458 0 0 .26458 140.82 -90.358)" gradientUnits="userSpaceOnUse">
   <stop stop-color="#999" offset="0"/>
   <stop stop-color="#1a1a1a" offset="1"/>
  </linearGradient>
 </defs>
 <g transform="translate(-102.87 -123.94)" clip-rule="evenodd" fill-rule="evenodd">
  <circle transform="scale(1,-1)" cx="104.32" cy="-125.4" r="1.4552" fill="url(#linearGradient1659)" style="paint-order:normal"/>
  <circle transform="scale(1,-1)" cx="104.32" cy="-125.4" r="1.1804" fill="#ff2d2d" style="paint-order:normal"/>
  <path d="m104.32 124.21a1.1906 1.1906 0 0 0-1.1906 1.1906 1.1906 1.1906 0 0 0 1.1906 1.1906 1.1906 1.1906 0 0 0 1.1906-1.1906 1.1906 1.1906 0 0 0-1.1906-1.1906zm0 0.26458a0.92604 0.92604 0 0 1 0.92604 0.92604 0.92604 0.92604 0 0 1-0.92604 0.92604 0.92604 0.92604 0 0 1-0.92604-0.92604 0.92604 0.92604 0 0 1 0.92604-0.92604zm0 0.26458a0.66146 0.66146 0 0 0-0.66146 0.66146 0.66146 0.66146 0 0 0 0.66146 0.66146 0.66146 0.66146 0 0 0 0.66146-0.66146 0.66146 0.66146 0 0 0-0.66146-0.66146zm0 0.26459a0.39688 0.39688 0 0 1 0.39687 0.39687 0.39688 0.39688 0 0 1-0.39687 0.39688 0.39688 0.39688 0 0 1-0.39688-0.39688 0.39688 0.39688 0 0 1 0.39688-0.39687zm0 0.26458a0.13229 0.13229 0 0 0-0.13229 0.13229 0.13229 0.13229 0 0 0 0.13229 0.13229 0.13229 0.13229 0 0 0 0.13229-0.13229 0.13229 0.13229 0 0 0-0.13229-0.13229z" fill="#f00" style="paint-order:normal"/>
  <circle transform="scale(1,-1)" cx="103.97" cy="-124.9" r=".39687" fill="#f55" style="paint-order:normal"/>
 </g>
</svg>
