<?xml version="1.0" encoding="UTF-8"?>
<svg width="2.9104mm" height="2.9104mm" version="1.1" viewBox="0 0 2.9104 2.9104" xmlns="http://www.w3.org/2000/svg" xmlns:xlink="http://www.w3.org/1999/xlink">
 <defs>
  <linearGradient id="linearGradient1647" x1="-135.92" x2="-138.72" y1="-137.45" y2="-126.89" gradientTransform="translate(13.031)" gradientUnits="userSpaceOnUse">
   <stop stop-color="#999" offset="0"/>
   <stop stop-color="#1a1a1a" offset="1"/>
  </linearGradient>
 </defs>
 <g transform="translate(-166.37 -94.461)">
  <g transform="matrix(.26458 0 0 .26458 200.88 60.875)" clip-rule="evenodd" fill-rule="evenodd" stroke-linecap="round" stroke-linejoin="round" stroke-miterlimit="1.5">
   <circle transform="scale(1,-1)" cx="-124.93" cy="-132.44" r="5.5" fill="url(#linearGradient1647)" style="paint-order:normal"/>
   <circle transform="scale(1,-1)" cx="-124.93" cy="-132.44" r="4.4612" fill="#782121" style="paint-order:normal"/>
   <path d="m-124.93 127.94a4.5 4.5 0 0 0-4.5 4.5 4.5 4.5 0 0 0 4.5 4.5 4.5 4.5 0 0 0 4.5-4.5 4.5 4.5 0 0 0-4.5-4.5zm0 1a3.5 3.5 0 0 1 3.5 3.5 3.5 3.5 0 0 1-3.5 3.5 3.5 3.5 0 0 1-3.5-3.5 3.5 3.5 0 0 1 3.5-3.5zm0 1a2.5 2.5 0 0 0-2.5 2.5 2.5 2.5 0 0 0 2.5 2.5 2.5 2.5 0 0 0 2.5-2.5 2.5 2.5 0 0 0-2.5-2.5zm0 1a1.5 1.5 0 0 1 1.5 1.5 1.5 1.5 0 0 1-1.5 1.5 1.5 1.5 0 0 1-1.5-1.5 1.5 1.5 0 0 1 1.5-1.5zm0 1a0.5 0.5 0 0 0-0.5 0.5 0.5 0.5 0 0 0 0.5 0.5 0.5 0.5 0 0 0 0.5-0.5 0.5 0.5 0 0 0-0.5-0.5z" fill="#a02c2c" style="paint-order:normal"/>
   <circle transform="scale(1,-1)" cx="-126.27" cy="-130.56" r="1.5" fill="#ffd5d5" style="paint-order:normal"/>
  </g>
 </g>
</svg>
