<?xml version="1.0" encoding="UTF-8" standalone="no"?>
<!-- Created with Inkscape (http://www.inkscape.org/) -->

<svg
   xmlns:dc="http://purl.org/dc/elements/1.1/"
   xmlns:cc="http://creativecommons.org/ns#"
   xmlns:rdf="http://www.w3.org/1999/02/22-rdf-syntax-ns#"
   xmlns:svg="http://www.w3.org/2000/svg"
   xmlns="http://www.w3.org/2000/svg"
   xmlns:xlink="http://www.w3.org/1999/xlink"
   xmlns:sodipodi="http://sodipodi.sourceforge.net/DTD/sodipodi-0.dtd"
   xmlns:inkscape="http://www.inkscape.org/namespaces/inkscape"
   width="5mm"
   height="3.4999998mm"
   viewBox="0 0 5 3.4999998"
   version="1.1"
   id="svg864"
   inkscape:version="0.92.3 (2405546, 2018-03-11)"
   sodipodi:docname="MF_screw.svg">
  <defs
     id="defs858">
    <linearGradient
       inkscape:collect="always"
       xlink:href="#linearGradient1531"
       id="linearGradient1799"
       gradientUnits="userSpaceOnUse"
       gradientTransform="matrix(0.32930266,0,0,0.33456845,-140.21822,-101.11715)"
       x1="727.60999"
       y1="375.98999"
       x2="727.60999"
       y2="370.12" />
    <linearGradient
       gradientUnits="userSpaceOnUse"
       gradientTransform="matrix(0.32930266,0,0,0.33456845,-195.97868,171.20987)"
       y2="370.12"
       y1="375.98999"
       x2="727.60999"
       x1="727.60999"
       id="linearGradient1531">
      <stop
         id="stop29"
         offset="0"
         stop-color="#b3b3b3" />
      <stop
         id="stop31"
         offset="1"
         stop-color="#262626" />
    </linearGradient>
    <linearGradient
       inkscape:collect="always"
       xlink:href="#linearGradient1229"
       id="linearGradient1801"
       gradientUnits="userSpaceOnUse"
       gradientTransform="matrix(0.15014044,0,0,0.15014044,39.355965,-13.90792)"
       x1="125"
       y1="233.5"
       x2="127.7"
       y2="256.89999" />
    <linearGradient
       id="linearGradient1229">
      <stop
         stop-color="#ccc"
         offset="0"
         id="stop3" />
      <stop
         stop-color="#767676"
         offset="1"
         id="stop5" />
    </linearGradient>
    <linearGradient
       inkscape:collect="always"
       xlink:href="#linearGradient1229"
       id="linearGradient1803"
       gradientUnits="userSpaceOnUse"
       gradientTransform="matrix(0.43117975,0,0,0.43117975,50.45147,25.66231)"
       x1="18.030001"
       y1="-3.4849999"
       x2="18.1"
       y2="-9.4820004" />
  </defs>
  <sodipodi:namedview
     id="base"
     pagecolor="#ffffff"
     bordercolor="#666666"
     borderopacity="1.0"
     inkscape:pageopacity="0.0"
     inkscape:pageshadow="2"
     inkscape:zoom="49.070689"
     inkscape:cx="8.4562927"
     inkscape:cy="5.8203221"
     inkscape:document-units="mm"
     inkscape:current-layer="layer1"
     showgrid="false"
     fit-margin-top="0"
     fit-margin-left="0"
     fit-margin-right="0"
     fit-margin-bottom="0"
     inkscape:window-width="1920"
     inkscape:window-height="1135"
     inkscape:window-x="0"
     inkscape:window-y="0"
     inkscape:window-maximized="1" />
  <metadata
     id="metadata861">
    <rdf:RDF>
      <cc:Work
         rdf:about="">
        <dc:format>image/svg+xml</dc:format>
        <dc:type
           rdf:resource="http://purl.org/dc/dcmitype/StillImage" />
        <dc:title></dc:title>
      </cc:Work>
    </rdf:RDF>
  </metadata>
  <g
     inkscape:label="Layer 1"
     inkscape:groupmode="layer"
     id="layer1"
     transform="translate(-50.416667,-27.642857)">
    <g
       id="g2465"
       transform="translate(-5.3437913,6.4698778)">
      <path
         sodipodi:nodetypes="sssssss"
         inkscape:connector-curvature="0"
         d="m 57.459298,21.45617 c -0.802676,0 -1.442873,0.65114 -1.442873,1.46662 0,0.81551 0.640296,1.46595 1.442873,1.46595 h 1.614241 c 0.802544,0 1.443531,-0.65054 1.443531,-1.46595 1e-6,-0.81541 -0.640888,-1.46662 -1.443531,-1.46662 z"
         style="clip-rule:evenodd;fill:#666666;fill-rule:evenodd;stroke-width:0.33192512;stroke-linecap:round;stroke-linejoin:round;stroke-miterlimit:1.5;paint-order:normal"
         id="path1738" />
      <path
         style="clip-rule:evenodd;fill:#333333;fill-rule:evenodd;stroke-width:0.33192512;stroke-linecap:round;stroke-linejoin:round;stroke-miterlimit:1.5"
         inkscape:connector-curvature="0"
         d="m 59.971449,22.67855 -3.196541,1.12328 0.222536,0.44371 c 0.151104,0.0565 0.312834,0.0915 0.484305,0.0915 h 1.557108 c 0.484371,0 0.907328,-0.246 1.156412,-0.62273 z"
         id="path1740" />
      <path
         inkscape:connector-curvature="0"
         d="m 57.481591,21.173 c -0.950861,0 -1.721133,0.78255 -1.721133,1.74865 0,0.96607 0.770173,1.7493 1.721133,1.7493 h 1.557108 c 0.95096,0 1.721759,-0.78313 1.721759,-1.7493 0,-0.96617 -0.770898,-1.74865 -1.721759,-1.74865 z m 0,0.33457 h 1.557108 c 0.774256,0 1.392456,0.62751 1.392456,1.41408 0,0.78657 -0.618298,1.41472 -1.392456,1.41472 h -1.557108 c -0.77419,0 -1.39183,-0.62808 -1.39183,-1.41472 0,-0.78664 0.617574,-1.41408 1.39183,-1.41408 z"
         dominant-baseline="auto"
         style="color:#000000;font-variant-ligatures:normal;font-variant-position:normal;font-variant-caps:normal;font-variant-numeric:normal;font-variant-alternates:normal;font-feature-settings:normal;text-indent:0;text-decoration:none;text-decoration-line:none;text-decoration-style:solid;text-decoration-color:#000000;text-transform:none;text-orientation:mixed;dominant-baseline:auto;white-space:normal;shape-padding:0;clip-rule:nonzero;isolation:auto;mix-blend-mode:normal;solid-color:#000000;fill:url(#linearGradient1799);fill-rule:nonzero;stroke-width:0.33192512;stroke-linecap:round;stroke-linejoin:round;stroke-miterlimit:1.5;paint-order:normal;color-rendering:auto;image-rendering:auto;shape-rendering:auto"
         id="path1742" />
      <path
         style="clip-rule:evenodd;fill:#434343;fill-rule:evenodd;stroke-width:0.33192512;stroke-linecap:round;stroke-linejoin:round;stroke-miterlimit:1.5"
         inkscape:connector-curvature="0"
         d="m 60.195374,23.71571 c -0.249078,0.37676 -0.672041,0.62273 -1.156412,0.62273 h -1.557107 c -0.171472,0 -0.333189,-0.035 -0.484306,-0.0915 l 0.200025,0.40058 c 0.09271,0.0157 0.187166,0.0254 0.284281,0.0254 h 1.557107 c 0.491089,0 0.931532,-0.21123 1.245159,-0.54628 z"
         stroke-miterlimit="1.5"
         id="path1744" />
      <path
         style="clip-rule:evenodd;fill:#333333;fill-rule:evenodd;stroke-width:0.33192512;stroke-linecap:round;stroke-linejoin:round;stroke-miterlimit:1.5"
         inkscape:connector-curvature="0"
         d="m 57.481591,21.50756 c -0.774256,0 -1.39183,0.62808 -1.39183,1.41472 0,0.0588 0.01001,0.11437 0.01672,0.17121 0.25027,-0.29229 1.050969,-1.12429 2.137899,-1.12395 0.938282,2.8e-4 1.826839,0.72732 2.177118,1.05011 0.0022,-0.0329 0.0097,-0.0639 0.0097,-0.0974 -1e-6,-0.78657 -0.618199,-1.41472 -1.392456,-1.41472 z"
         stroke-miterlimit="1.5"
         id="path1746" />
      <circle
         style="clip-rule:evenodd;fill:url(#linearGradient1801);fill-rule:evenodd;stroke-width:0.33286512;stroke-linecap:round;stroke-linejoin:round;stroke-miterlimit:1.5"
         id="circle1749"
         r="1.7499999"
         cy="22.922979"
         cx="58.260456" />
      <circle
         style="clip-rule:evenodd;fill:#cccccc;fill-rule:evenodd;stroke-width:0.29691011;stroke-linecap:round;stroke-linejoin:round;stroke-miterlimit:1.5"
         id="circle1751"
         r="1.5603931"
         cy="22.922979"
         cx="58.260456" />
      <path
         inkscape:connector-curvature="0"
         id="path1753"
         style="clip-rule:evenodd;fill:url(#linearGradient1803);fill-rule:evenodd;stroke-width:0.27825841;stroke-linecap:round;stroke-linejoin:round;stroke-miterlimit:1.5;paint-order:normal"
         d="m 59.384054,23.58871 c -0.04649,0.0805 -1.057303,0.66433 -1.150562,0.66433 -0.09301,0 -1.103932,-0.58371 -1.150561,-0.66433 -0.04649,-0.0805 -0.04649,-1.24775 0,-1.32837 0.04649,-0.0805 1.057303,-0.66432 1.150561,-0.66432 0.09301,0 1.103933,0.5837 1.150562,0.66432 0.04649,0.0805 0.04649,1.24775 0,1.32837 z" />
      <path
         inkscape:connector-curvature="0"
         id="path1755"
         style="clip-rule:evenodd;fill:#333333;fill-rule:evenodd;stroke-width:0.27825841;stroke-linecap:round;stroke-linejoin:round;stroke-miterlimit:1.5;paint-order:normal"
         d="m 59.159335,23.46034 c -0.03753,0.065 -0.853652,0.53624 -0.928652,0.53624 -0.07506,0 -0.891292,-0.47107 -0.928651,-0.53624 -0.0375,-0.065 -0.03753,-1.0073 0,-1.07247 0.03753,-0.065 0.853651,-0.53624 0.928651,-0.53624 0.07506,0 0.891292,0.47107 0.928652,0.53624 0.0375,0.065 0.03753,1.0073 0,1.07247 z" />
    </g>
  </g>
</svg>
