<?xml version="1.0" encoding="UTF-8"?>
<svg width="23.812mm" height="100.54mm" version="1.1" viewBox="0 0 23.812 100.54" xmlns="http://www.w3.org/2000/svg" xmlns:xlink="http://www.w3.org/1999/xlink">
 <defs>
  <linearGradient id="linearGradient1677" x1="-122.93" x2="-94.25" y1="240.38" y2="355.41" gradientTransform="matrix(.043458 0 0 .043458 -.89881 161.66)" gradientUnits="userSpaceOnUse" xlink:href="#linearGradient991"/>
  <linearGradient id="linearGradient991">
   <stop stop-color="#4d4d4d" offset="0"/>
   <stop stop-color="#1a1a1a" offset="1"/>
  </linearGradient>
  <linearGradient id="linearGradient993" x1="-122.93" x2="-94.25" y1="240.38" y2="355.41" gradientTransform="matrix(.10865 0 0 .10865 5.6905 131.25)" gradientUnits="userSpaceOnUse" xlink:href="#linearGradient991"/>
  <linearGradient id="linearGradient1315" x1="127.78" x2="216.85" y1="201.44" y2="201.44" gradientTransform="matrix(-.045851 0 0 .26458 29.633 0)" gradientUnits="userSpaceOnUse" xlink:href="#linearGradient1300"/>
  <linearGradient id="linearGradient1300">
   <stop stop-color="#2e2e2e" offset="0"/>
   <stop stop-color="#333" offset="1"/>
  </linearGradient>
  <linearGradient id="linearGradient1302" x1="127.78" x2="216.85" y1="201.44" y2="201.44" gradientTransform="matrix(.045851 0 0 .26458 -5.82 0)" gradientUnits="userSpaceOnUse" xlink:href="#linearGradient1300"/>
 </defs>
 <g clip-rule="evenodd" fill-rule="evenodd">
  <path d="m0 0v100.54h23.813v-100.54z" fill="#333" stroke-linecap="round" stroke-linejoin="round" stroke-miterlimit="1.5" stroke-width=".6486"/>
  <g stroke-linecap="round" stroke-miterlimit="1.5">
   <g stroke-linejoin="round">
    <path d="m0 0v100.54h4.1266v-100.54z" fill="url(#linearGradient1302)" stroke-width=".27"/>
    <path transform="scale(.26458)" d="m64.168 193.09c-0.53685 0-0.90244 0.14662-1.0977 0.43945-0.19522 0.28063-0.29297 0.66967-0.29297 1.1699 0 0.20742 0.03079 0.48259 0.0918 0.82422s0.14067 0.68914 0.23828 1.043c0.10981 0.34163 0.2364 0.65834 0.38281 0.95117 0.15862 0.28063 0.33066 0.47075 0.51367 0.56836 0.18302 0.0976 0.34773 0.18265 0.49414 0.25586 0.15862 0.0732 0.29791 0.15287 0.41992 0.23828 0.12201 0.0854 0.21976 0.19587 0.29297 0.33008 0.07321 0.12201 0.11133 0.2921 0.11133 0.51172 0 0.0976 0.0054 0.2804 0.01758 0.54883 0.0122 0.25622 0.02491 0.53676 0.03711 0.84179 0.0122 0.29283 0.02295 0.57337 0.03516 0.8418 0.0122 0.25623 0.01953 0.43364 0.01953 0.53125 0.0122 0.0366 0.03566 0.0982 0.07227 0.18359 0.0488 0.0854 0.09768 0.17583 0.14648 0.27344 0.0488 0.0976 0.0923 0.18998 0.12891 0.27539l0.10938 0.16406c0 0.0122 0.01808 0.043 0.05469 0.0918 0.04881 0.0366 0.10306 0.0855 0.16406 0.14649l0.18359 0.14648c0.06101 0.0366 0.10988 0.0547 0.14648 0.0547h1.5566c0.0122 0 0.03029-0.0127 0.05469-0.0371s0.04249-0.0479 0.05469-0.0723c0.0366-0.0488 0.07277-0.11576 0.10938-0.20117 0.0366-0.0976 0.06739-0.18998 0.0918-0.27539 0.0366-0.0976 0.06739-0.18265 0.0918-0.25586 0.0244-0.0854 0.03711-0.13966 0.03711-0.16406 0.0122-0.0366 0.02295-0.0928 0.03516-0.16602 0.0122-0.0854 0.02491-0.17582 0.03711-0.27343 0.0122-0.0976 0.01758-0.18266 0.01758-0.25586 0.0122-0.0854 0.01953-0.14699 0.01953-0.1836v-0.47656c0.0122-0.23182 0.01758-0.4762 0.01758-0.73242 0-0.26843-0.0054-0.51085-0.01758-0.73047v-0.49414c0.0244-0.0366 0.07865-0.11089 0.16406-0.2207 0.08541-0.12202 0.13966-0.20168 0.16406-0.23829 0.0244-0.0122 0.08061-0.043 0.16602-0.0918 0.09761-0.061 0.15724-0.10255 0.18164-0.12696 0.28063-0.28062 0.56312-0.59196 0.84375-0.93359 0.29283-0.35383 0.55333-0.71942 0.78516-1.0977 0.24402-0.39043 0.43952-0.79414 0.58594-1.209 0.14641-0.42704 0.2207-0.85421 0.2207-1.2812 0-0.19522-0.06696-0.34184-0.20117-0.43945-0.12201-0.0976-0.26864-0.16457-0.43945-0.20117-0.17082-0.0366-0.35361-0.0547-0.54883-0.0547h-1.2461c-0.08541 0.13421-0.17045 0.33509-0.25586 0.60351-0.08541 0.26843-0.18316 0.54359-0.29297 0.82422-0.10981 0.26843-0.24373 0.50743-0.40234 0.71485-0.14641 0.20742-0.32921 0.31054-0.54883 0.31054h-0.05469c-0.30503-0.24402-0.53132-0.47569-0.67773-0.69531-0.14641-0.23182-0.26225-0.44541-0.34766-0.64062-0.08541-0.20743-0.16507-0.39022-0.23828-0.54883-0.07321-0.15862-0.18904-0.29254-0.34766-0.40235-0.15862-0.12201-0.38295-0.21438-0.67578-0.27539-0.29283-0.0732-0.69654-0.10937-1.209-0.10937zm-41.303 0.0547c-0.12201 1e-5 -0.24518 0.0362-0.36719 0.10938-0.12201 0.0732-0.23785 0.16558-0.34766 0.27539-0.09761 0.0976-0.19536 0.20611-0.29297 0.32813-0.08541 0.10981-0.15237 0.20756-0.20117 0.29296-0.0366 0.0488-0.09085 0.13385-0.16406 0.25586-0.07321 0.10981-0.15287 0.23298-0.23828 0.36719-0.08541 0.12201-0.16507 0.24322-0.23828 0.36524-0.07321 0.10981-0.12208 0.18947-0.14648 0.23828-0.06101 0.17081-0.16951 0.46406-0.32812 0.8789-0.15862 0.41484-0.33066 0.86009-0.51367 1.3359-0.17082 0.46365-0.33553 0.9089-0.49414 1.3359-0.15862 0.41484-0.26907 0.70809-0.33008 0.8789-0.0488 0.13422-0.10306 0.3043-0.16406 0.51172-0.06101 0.19522-0.12259 0.40881-0.18359 0.64063l-0.14648 0.69531c-0.0366 0.21962-0.05469 0.4205-0.05469 0.60352 0 0.14641 0.01808 0.30037 0.05469 0.45898 0.0488 0.15862 0.11772 0.30524 0.20312 0.43945 0.09761 0.12202 0.20611 0.22514 0.32812 0.31055 0.13421 0.0732 0.28622 0.10938 0.45703 0.10938 0.28063 0 0.53233-0.0416 0.75195-0.12696 0.23182-0.0854 0.48157-0.15432 0.75-0.20312 0.19522-0.0366 0.35993-0.0547 0.49414-0.0547s0.25542-5e-3 0.36524-0.0176c0.10981-0.0244 0.21489-0.0679 0.3125-0.1289 0.10981-0.061 0.2364-0.17684 0.38281-0.34766 0.04881-0.0488 0.0923-0.12114 0.12891-0.21875 0.0488-0.10981 0.0923-0.21294 0.12891-0.31055 0.0488-0.10981 0.09035-0.20756 0.12695-0.29297 0.04881-0.0976 0.10306-0.15919 0.16406-0.18359 0.0244 0.0366 0.06252 0.10894 0.11133 0.21875 0.06101 0.10981 0.11526 0.22564 0.16406 0.34766 0.06101 0.10981 0.11526 0.22026 0.16406 0.33007 0.06101 0.10981 0.1045 0.1841 0.12891 0.22071 0 0.0122 0.01271 0.0303 0.03711 0.0547 0.0366 0.0244 0.06006 0.0425 0.07227 0.0547 0.23182-0.12201 0.42194-0.25055 0.56836-0.38476 0.15862-0.14642 0.2852-0.30575 0.38281-0.47657 0.10981-0.17081 0.20218-0.3536 0.27539-0.54882 0.07321-0.20742 0.14554-0.43909 0.21875-0.69532 0-0.0244 0.01271-0.0479 0.03711-0.0723s0.04982-0.0425 0.07422-0.0547h0.10938v0.64063c0.0122 0.26842 0.03566 0.53626 0.07227 0.80468 0.04881 0.26843 0.1358 0.5128 0.25781 0.73243 0.12201 0.20742 0.3048 0.334 0.54883 0.38281 0.53685-0.0244 1.0183-0.0117 1.4453 0.0371 0.42704 0.0488 0.89038 0.0742 1.3906 0.0742h0.16406c0.0244-0.0488 0.08598-0.1231 0.18359-0.22071 0.09761-0.0976 0.14648-0.24423 0.14648-0.43945v-0.10938c0-0.35383-0.04154-0.68862-0.12695-1.0059-0.07321-0.31723-0.14212-0.65397-0.20312-1.0078-0.09761-0.58565-0.17532-1.1956-0.23633-1.8301-0.061-0.63446-0.15338-1.2679-0.27539-1.9023-0.10981-0.63446-0.27452-1.2444-0.49414-1.8301-0.20742-0.58565-0.50067-1.1287-0.87891-1.6289-0.0488-0.0122-0.14656-0.0303-0.29297-0.0547-0.13421-0.0366-0.22463-0.062-0.27344-0.0742-0.0122-0.0122-0.03762-0.0176-0.07422-0.0176h-0.21875c-0.07321 0-0.12208 0.0127-0.14648 0.0371s-0.07328 0.0659-0.14648 0.12695l-0.20117 0.20118c-0.06101 0.061-0.12259 0.12796-0.18359 0.20117l-0.12695 0.1289c-0.0488 0.0488-0.10501 0.16464-0.16602 0.34766-0.06101 0.17082-0.12796 0.37902-0.20117 0.62305-0.07321 0.23182-0.14554 0.48157-0.21875 0.75-0.07321 0.26842-0.1475 0.5128-0.2207 0.73242-0.06101 0.21962-0.11526 0.40241-0.16406 0.54883-0.0488 0.14641-0.0796 0.21875-0.0918 0.21875h-0.05469c-0.07321-0.20742-0.12746-0.4518-0.16406-0.73242-0.0366-0.28063-0.0801-0.56655-0.12891-0.85938-0.0366-0.29283-0.08548-0.58608-0.14648-0.87891-0.06101-0.29282-0.15143-0.54991-0.27344-0.76953-0.12201-0.23182-0.28672-0.41461-0.49414-0.54882-0.20742-0.14642-0.46988-0.21876-0.78711-0.21876zm11.588 0.1836c-0.0244 0.0244-0.07328 0.0606-0.14648 0.10937-0.06101 0.0366-0.12796 0.0782-0.20117 0.12696-0.07321 0.0366-0.14017 0.0801-0.20117 0.1289-0.06101 0.0488-0.09717 0.0796-0.10938 0.0918-0.46364 0.37824-0.90352 0.77999-1.3184 1.207-0.40264 0.41484-0.75552 0.86742-1.0605 1.3555-0.29283 0.48805-0.5245 1.0056-0.69531 1.5547-0.17082 0.54905-0.25586 1.1409-0.25586 1.7754 0 0.36603 0.07967 0.76974 0.23828 1.209 0.15861 0.43926 0.37025 0.84638 0.63867 1.2246 0.28063 0.37824 0.60467 0.6969 0.9707 0.95313 0.37824 0.25622 0.77461 0.38476 1.1895 0.38476h0.16602c0.07321-0.0122 0.11475-0.0195 0.12695-0.0195s0.03762-0.0181 0.07422-0.0547l0.14648-0.10937c0.04881-0.0366 0.09035-0.0728 0.12695-0.10938 0.04881-0.0366 0.0796-0.0566 0.0918-0.0566 0.52465-0.35383 0.98799-0.694 1.3906-1.0234 0.40264-0.34164 0.73939-0.71455 1.0078-1.1172 0.28063-0.40264 0.48688-0.8606 0.62109-1.373 0.14641-0.51245 0.2207-1.1151 0.2207-1.8106 0-0.53685-0.0562-1.0437-0.16602-1.5195-0.09761-0.48804-0.26232-0.92059-0.49414-1.2988-0.21962-0.39043-0.51825-0.72718-0.89648-1.0078-0.36604-0.28062-0.81666-0.48688-1.3535-0.62109h-0.11133zm26.07 0.0723c-0.0366 0-0.13435 5e-3 -0.29297 0.0176-0.14641 0.0122-0.30379 0.0249-0.47461 0.0371s-0.33552 0.0249-0.49414 0.0371-0.25636 0.0176-0.29297 0.0176c-0.32943 0.0244-0.65347 0.0425-0.9707 0.0547s-0.60315 0.0684-0.85938 0.16601c-0.25623 0.0976-0.46981 0.25499-0.64062 0.47461-0.15862 0.21962-0.25636 0.54366-0.29297 0.97071-0.0122 0.18301-0.02491 0.3966-0.03711 0.64062-0.0122 0.23182-0.02491 0.48157-0.03711 0.75-0.0122 0.25622-0.02491 0.51868-0.03711 0.78711v0.73242c0 0.32943 0.0073 0.70235 0.01953 1.1172 0.0244 0.41484 0.04786 0.84201 0.07227 1.2812 0.0366 0.43924 0.07472 0.87179 0.11133 1.2988s0.07815 0.81071 0.12695 1.1523c0.09761 0.15862 0.22615 0.28178 0.38477 0.36719 0.17082 0.0854 0.3409 0.14504 0.51172 0.18164h0.16602c0.08541 0 0.17583 7e-3 0.27344 0.0195h0.43945c0.69547 0 1.3797-0.0562 2.0508-0.16602 0.67106-0.12201 1.3534-0.21976 2.0488-0.29296 0.09761-0.0854 0.14111-0.20662 0.12891-0.36524v-0.38476c0-0.41484-0.06158-0.74426-0.18359-0.98829-0.10981-0.25622-0.37765-0.38476-0.80469-0.38476-0.30503 0-0.60366 0.0254-0.89648 0.0742-0.29283 0.0366-0.58608 0.0547-0.87891 0.0547-0.10981 0-0.22027-0.0181-0.33008-0.0547-0.09761-0.0366-0.14648-0.12898-0.14648-0.27539 0-0.18302 0.03617-0.31694 0.10938-0.40235 0.08541-0.0976 0.19049-0.16457 0.3125-0.20117 0.13421-0.0488 0.26813-0.085 0.40234-0.10937 0.14641-0.0366 0.28033-0.0801 0.40234-0.12891 0.13421-0.061 0.23734-0.14067 0.31055-0.23828 0.08541-0.10981 0.12891-0.26719 0.12891-0.47461v-1.3359l-0.2207-0.2207h-1.4453c-0.0122 0-0.03028-0.0108-0.05469-0.0352-0.0244-0.0244-0.04249-0.0498-0.05469-0.0742v-0.71289c0.0122-0.10981 0.04837-0.23835 0.10938-0.38476 0.30503-0.0488 0.62174-0.085 0.95117-0.10938 0.32943-0.0244 0.63001-0.0806 0.89844-0.16601 0.28063-0.0976 0.50496-0.24961 0.67578-0.45703s0.25586-0.51876 0.25586-0.9336c0-0.45144-0.09042-0.78624-0.27344-1.0059-0.18302-0.21962-0.51244-0.33008-0.98828-0.33008h-0.18359zm-12.297 0.16407c-0.08541 0-0.18854 7e-3 -0.31055 0.0195-0.12201 0.0122-0.24518 0.0303-0.36719 0.0547-0.12201 0.0122-0.22514 0.0249-0.31055 0.0371l-0.12891 0.0176-0.21875 0.21875-0.01758 0.33008c-0.0122 0.20742-0.02491 0.45717-0.03711 0.75s-0.02491 0.59879-0.03711 0.91602c-0.0122 0.30503-0.01758 0.56015-0.01758 0.76758v0.34765c0 0.19522 0.0054 0.48847 0.01758 0.87891 0.0122 0.37823 0.03028 0.80002 0.05469 1.2637 0.0244 0.46364 0.06057 0.93969 0.10938 1.4277 0.06101 0.48805 0.13529 0.93868 0.2207 1.3535 0.08541 0.40264 0.18854 0.74476 0.31055 1.0254 0.12201 0.28063 0.26864 0.43996 0.43945 0.47656 0.0244 0.0122 0.07328 0.041 0.14648 0.0898 0.08541 0.0366 0.13428 0.0439 0.14648 0.0195h1.666c0.23182 0 0.40924-0.10508 0.53125-0.3125 0.12201-0.21962 0.21243-0.46205 0.27344-0.73047 0.06101-0.28063 0.10988-0.54309 0.14648-0.78711 0.0366-0.25623 0.08548-0.42093 0.14648-0.49414 0.29283 0.061 0.50641 0.19492 0.64062 0.40234 0.14642 0.20742 0.28571 0.42101 0.41992 0.64063s0.30625 0.41512 0.51367 0.58594c0.20742 0.17081 0.51142 0.25585 0.91406 0.25585 0.25622 0 0.48789-0.0181 0.69531-0.0547 0.21962-0.0366 0.40437-0.1109 0.55078-0.22071 0.15862-0.10981 0.27983-0.25643 0.36524-0.43945 0.08541-0.19522 0.12891-0.43764 0.12891-0.73047 0-0.32943-0.09775-0.67155-0.29297-1.0254-0.19522-0.35383-0.41613-0.68325-0.66016-0.98828-0.23182-0.30503-0.44541-0.56749-0.64062-0.78711s-0.29297-0.36087-0.29297-0.42187c0-0.20742 0.12854-0.43176 0.38477-0.67579 0.25622-0.24402 0.53139-0.50648 0.82422-0.7871 0.30503-0.28063 0.58557-0.58659 0.8418-0.91602 0.25622-0.32943 0.38477-0.67693 0.38477-1.043 0-0.20742-0.07429-0.38484-0.2207-0.53125-0.14641-0.14641-0.32921-0.26225-0.54883-0.34766-0.20742-0.0976-0.42638-0.16456-0.6582-0.20117-0.21962-0.0366-0.40974-0.0493-0.56836-0.0371-0.32943 0.0244-0.60997 0.15295-0.8418 0.38477-0.23182 0.23182-0.45078 0.48157-0.6582 0.75-0.20742 0.26842-0.43371 0.5128-0.67773 0.73242-0.23182 0.20742-0.52507 0.3125-0.87891 0.3125v-1.959c0-0.10981-0.10313-0.20219-0.31055-0.27539s-0.43909-0.12746-0.69531-0.16407c-0.24402-0.0488-0.48107-0.0796-0.71289-0.0918-0.21962-0.0244-0.34816-0.0371-0.38477-0.0371h-0.38477zm15.904 0.0742h0.34961c0.34163 0 0.61484 0.0127 0.82226 0.0371s0.37213 0.084 0.49414 0.18164c0.13421 0.0976 0.24467 0.24423 0.33008 0.43945 0.09761 0.19522 0.20074 0.45768 0.31055 0.78711l1.2266 1.2266c0.06101 0.061 0.12259 0.0972 0.18359 0.10938h0.20117c0.26843 0 0.47468-0.067 0.62109-0.20118 0.14641-0.13421 0.26225-0.29892 0.34766-0.49414 0.09761-0.19522 0.1719-0.4088 0.2207-0.64062 0.06101-0.23182 0.14067-0.44541 0.23828-0.64063s0.2242-0.35992 0.38281-0.49414c0.17082-0.13421 0.40444-0.20117 0.69727-0.20117 0.10981 0 0.24373 0.0181 0.40234 0.0547 0.17082 0.0244 0.25586 0.11677 0.25586 0.27539 0 0.21962-0.03617 0.46937-0.10938 0.75s-0.17096 0.56655-0.29297 0.85937c-0.10981 0.28063-0.23835 0.55042-0.38477 0.80664-0.14641 0.24403-0.29304 0.43953-0.43945 0.58594l-1.7754 1.7754-0.10938 0.23633c0.0122 0.23182 0.02491 0.50161 0.03711 0.80664 0.0244 0.29283 0.03516 0.60416 0.03516 0.93359 0 0.31724-0.02346 0.63395-0.07227 0.95118-0.0366 0.30503-0.11089 0.59095-0.2207 0.85937-0.0366 0-0.09623 7e-3 -0.18164 0.0195-0.07321 0.0122-0.15825 0.023-0.25586 0.0352s-0.18998 0.0249-0.27539 0.0371-0.14699 0.0176-0.18359 0.0176h-0.18164c-0.32943 0-0.52493-0.18817-0.58594-0.56641v-0.56836c0.0122-0.26842 0.01758-0.55434 0.01758-0.85937 0-0.31723-0.0054-0.61048-0.01758-0.87891v-0.56641c-0.0122-0.43924-0.08649-0.75595-0.2207-0.95117-0.12201-0.19522-0.27939-0.35455-0.47461-0.47656-0.18302-0.12201-0.39122-0.24518-0.62305-0.36719-0.23182-0.12201-0.45811-0.34097-0.67774-0.6582-0.13421-0.18302-0.24272-0.37852-0.32812-0.58594-0.07321-0.21962-0.12941-0.44396-0.16602-0.67578-0.0366-0.23182-0.06007-0.45811-0.07227-0.67773v-1.1524l0.23828-0.11133c0.0122-0.0122 0.08991-0.0176 0.23633-0.0176zm-18.506 0.0371c-0.52465-1e-5 -0.91027 0.13929-1.1543 0.41992-0.23182 0.28062-0.3892 0.62813-0.47461 1.043-0.08541 0.41484-0.1162 0.86742-0.0918 1.3555 0.0244 0.48805 0.03711 0.93868 0.03711 1.3535s-0.03812 0.76234-0.11133 1.043-0.23792 0.42187-0.49414 0.42187c-0.09761 0-0.18803-0.12854-0.27344-0.38476-0.08541-0.26843-0.18316-0.59785-0.29297-0.98828-0.10981-0.39044-0.23835-0.81223-0.38476-1.2637-0.14642-0.45145-0.32921-0.87129-0.54883-1.2617-0.21962-0.39044-0.4767-0.71448-0.76953-0.97071-0.29283-0.26842-0.64033-0.40234-1.043-0.40234-0.34163 0-0.63293 0.0797-0.87695 0.23828-0.23182 0.15862-0.42732 0.3722-0.58594 0.64063-0.15862 0.25622-0.28716 0.55485-0.38477 0.89648-0.09761 0.32943-0.1719 0.66423-0.2207 1.0059-0.0366 0.34163-0.06006 0.67838-0.07227 1.0078-0.0122 0.31723-0.01758 0.59778-0.01758 0.8418v0.18359c0 0.0366 0.0054 0.1324 0.01758 0.29102 0.0122 0.15861 0.02491 0.33065 0.03711 0.51367s0.02295 0.3531 0.03516 0.51172c0.0122 0.14641 0.01953 0.23879 0.01953 0.27539 0.0122 0.25622 0.0122 0.54214 0 0.85937 0 0.31724 0.03079 0.61586 0.0918 0.89649s0.17684 0.51962 0.34766 0.71484c0.17082 0.18302 0.43328 0.27344 0.78711 0.27344 0.12201 0 0.26864-0.0108 0.43945-0.0352 0.17082-0.0366 0.3282-0.0928 0.47461-0.16601 0.15862-0.0732 0.28716-0.16363 0.38477-0.27344 0.10981-0.12201 0.16406-0.26864 0.16406-0.43945v-2.3984l0.11133-0.10938c0.14641 0.10982 0.25492 0.22565 0.32812 0.34766 0.08541 0.12201 0.1597 0.26864 0.2207 0.43945 0.0122 0.0488 0.04837 0.16464 0.10938 0.34766 0.07321 0.18302 0.14554 0.37852 0.21875 0.58594s0.14017 0.40292 0.20117 0.58594c0.06101 0.17081 0.1045 0.27394 0.12891 0.31054 0.10981 0.24403 0.2799 0.4449 0.51172 0.60352 0.23182 0.14641 0.48353 0.26225 0.75195 0.34765 0.28063 0.0854 0.56117 0.14162 0.8418 0.16602 0.29283 0.0244 0.54796 0.0352 0.76758 0.0352 0.28063 0 0.53038-0.10313 0.75-0.31055s0.36087-0.4518 0.42188-0.73242c0.0244-0.12201 0.05519-0.2921 0.0918-0.51172l0.10938-0.6582c0.0366-0.21963 0.06739-0.41513 0.0918-0.58594 0.0244-0.17082 0.03711-0.26857 0.03711-0.29297l0.21875-5.8203c0.0122-0.17082-0.0313-0.34091-0.12891-0.51172-0.08541-0.17082-0.18854-0.30669-0.31055-0.4043-0.0366-0.0122-0.12165-0.0176-0.25586-0.0176-0.13421-0.0122-0.21926-0.0176-0.25586-0.0176zm-22.432 0.0176c0.23182 0 0.40924 0.10313 0.53125 0.31055 0.13421 0.20742 0.23196 0.46988 0.29297 0.78711s0.10988 0.65935 0.14648 1.0254c0.0366 0.36604 0.07815 0.70816 0.12695 1.0254 0.06101 0.31723 0.14067 0.57969 0.23828 0.78711s0.25156 0.31055 0.45898 0.31055c0.18302 0 0.3404-0.067 0.47461-0.20117 0.14641-0.14642 0.24416-0.30575 0.29297-0.47657 0.0122-0.0854 0.04299-0.24278 0.0918-0.47461 0.06101-0.24402 0.11526-0.49573 0.16406-0.75195 0.06101-0.25622 0.11721-0.49865 0.16602-0.73047 0.06101-0.23182 0.10255-0.39653 0.12695-0.49414 0.0244-0.0976 0.06057-0.20269 0.10937-0.3125 0.04881-0.12201 0.10501-0.23051 0.16602-0.32812 0.07321-0.10981 0.15825-0.19681 0.25586-0.25782 0.09761-0.0732 0.20807-0.10937 0.33008-0.10937 0.13421 0 0.25542 0.0562 0.36523 0.16601 0.12201 0.10981 0.22514 0.2364 0.31055 0.38282 0.09761 0.14641 0.1719 0.30037 0.2207 0.45898 0.06101 0.14641 0.10255 0.26225 0.12695 0.34766l1.2266 6.752v0.27539c0 0.0976-0.0054 0.18998-0.01758 0.27539-1e-6 0.0854-0.03079 0.16312-0.0918 0.23633h-0.40234c-0.34163 0-0.68376-0.0235-1.0254-0.0723-0.32943-0.061-0.67156-0.0791-1.0254-0.0547l-0.21875-0.22071c0-0.0488-0.0054-0.13384-0.01758-0.25586l-0.03711-0.40234c-0.0122-0.13421-0.02491-0.26275-0.03711-0.38477-0.0122-0.13421-0.01758-0.22463-0.01758-0.27343-0.0122-0.12201-0.02491-0.25789-0.03711-0.4043 0-0.14641-0.01808-0.28033-0.05469-0.40234-0.0366-0.13422-0.09819-0.23734-0.18359-0.31055-0.07321-0.0854-0.18904-0.12891-0.34766-0.12891-0.28063 0-0.48883 0.0977-0.62305 0.29297-0.12201 0.19522-0.22514 0.42151-0.31055 0.67774-0.07321 0.25622-0.15287 0.50597-0.23828 0.75-0.08541 0.24402-0.2247 0.41606-0.41992 0.51367-0.12201-0.0854-0.20168-0.20124-0.23828-0.34766l-0.07227-0.43945c-0.0244-0.14642-0.0679-0.27496-0.12891-0.38477-0.04881-0.10981-0.16464-0.16406-0.34766-0.16406-0.21962 0-0.37162 0.067-0.45703 0.20117-0.08541 0.13422-0.15237 0.29159-0.20117 0.47461l-0.14648 0.51367c-0.0488 0.17082-0.14656 0.29203-0.29297 0.36524-0.31723 0.15861-0.64665 0.25636-0.98828 0.29297-0.32943 0.0366-0.66618 0.0547-1.0078 0.0547h-0.34766c-0.15862 0-0.26174-5e-3 -0.31055-0.0176-0.09761 0.0122-0.16457-6e-3 -0.20117-0.0547-0.0244-0.0488-0.03711-0.10501-0.03711-0.16602v-0.10937c0.0366-0.10981 0.09086-0.2799 0.16406-0.51172s0.15287-0.49428 0.23828-0.78711 0.17778-0.59878 0.27539-0.91602c0.09761-0.31723 0.18803-0.62123 0.27344-0.91406s0.1597-0.55529 0.2207-0.78711c0.07321-0.23182 0.12746-0.40386 0.16406-0.51367 0.0366-0.13421 0.09818-0.32238 0.18359-0.56641 0.08541-0.25622 0.18854-0.53676 0.31055-0.84179s0.25593-0.61637 0.40234-0.9336c0.14641-0.32943 0.30037-0.62268 0.45898-0.8789 0.17082-0.26843 0.33553-0.48201 0.49414-0.64063 0.15862-0.17081 0.31599-0.25586 0.47461-0.25586zm36.891 0.25586h0.58594c0.13421 0 0.25738 7e-3 0.36719 0.0195h0.25586c0.0244 0 0.04786 0.0108 0.07227 0.0352 0.0244 0.0244 0.03711 0.0498 0.03711 0.0742l0.01758 0.10937c0.0122 0.061 0.02491 0.13335 0.03711 0.21875 0.0122 0.0732 0.02491 0.15288 0.03711 0.23828s0.02491 0.15237 0.03711 0.20118v0.0566c0 0.17081-0.07429 0.29202-0.2207 0.36523-0.13421 0.061-0.31163 0.10451-0.53125 0.12891s-0.45129 0.0425-0.69531 0.0547c-0.24402 0-0.47569 0.0181-0.69531 0.0547s-0.40241 0.10357-0.54883 0.20117c-0.13421 0.0976-0.20117 0.25499-0.20117 0.47461v1.6484c0 0.0488 0.02346 0.0977 0.07227 0.14649 0.0488 0.0366 0.10501 0.0728 0.16602 0.10937l0.18359 0.0723c0.06101 0.0122 0.10255 0.0195 0.12695 0.0195 0.0122 0 0.04837-7e-3 0.10938-0.0195l0.18359-0.0352c0.06101-0.0122 0.11526-0.0249 0.16406-0.0371 0.06101-0.0244 0.09913-0.0371 0.11133-0.0371h0.31055c0.0488 0 0.09768 7e-3 0.14648 0.0195 0.0488 0 0.09035 0.0108 0.12695 0.0352 0.0488 0.0122 0.07422 0.0376 0.07422 0.0742v0.76758c1e-6 0.061-0.08504 0.11721-0.25586 0.16601-0.17082 0.0366-0.36632 0.0855-0.58594 0.14649-0.20742 0.0488-0.39754 0.10843-0.56836 0.18164-0.17082 0.0732-0.25586 0.16558-0.25586 0.27539v1.4453c0 0.0854 0.03617 0.15237 0.10938 0.20117 0.08541 0.0488 0.17778 0.0869 0.27539 0.11133 0.10981 0.0122 0.21294 0.0176 0.31055 0.0176h0.23828c0.26843 0 0.53088-0.0181 0.78711-0.0547s0.51868-0.0547 0.78711-0.0547c0.31723 0 0.51273 0.0596 0.58594 0.18164 0.08541 0.10981 0.12695 0.31802 0.12695 0.62305v0.18359c-0.0244 0.0366-0.09674 0.0855-0.21875 0.14649-0.10981 0.061-0.18215 0.0898-0.21875 0.0898-0.08541 0.0122-0.23936 0.0322-0.45898 0.0566-0.21962 0.0122-0.45667 0.0303-0.71289 0.0547-0.24402 0.0244-0.48302 0.0479-0.71484 0.0723-0.21962 0.0244-0.37162 0.0371-0.45703 0.0371h-1.4082c-0.24402-0.0122-0.43415-0.12266-0.56836-0.33008-0.17082-0.95169-0.25586-1.9038-0.25586-2.8555 0.0122-0.96389 0.01758-1.9214 0.01758-2.873 0-0.23182-0.01075-0.4762-0.03516-0.73242-0.0122-0.26843-0.0068-0.52355 0.01758-0.76758 0.0366-0.24402 0.10356-0.47031 0.20117-0.67773s0.26232-0.37751 0.49414-0.51172c0.45144-0.0732 0.8532-0.10938 1.207-0.10938 0.36604-0.0122 0.77512-0.0195 1.2266-0.0195zm-11.857 0.0547h0.58594c0.28063 0 0.51767 7e-3 0.71289 0.0195 0.19522 0.0122 0.42689 0.0845 0.69531 0.21875 0.06101 0.0976 0.0918 0.29849 0.0918 0.60352 0 0.29283 0.0073 0.60416 0.01953 0.93359 0.0244 0.31723 0.08403 0.6051 0.18164 0.86133 0.09761 0.25622 0.27502 0.38281 0.53125 0.38281 0.32943 0 0.6173-0.12121 0.86133-0.36523 0.24402-0.25623 0.48107-0.53677 0.71289-0.8418 0.24402-0.31723 0.49378-0.61048 0.75-0.87891 0.26843-0.26842 0.58514-0.4258 0.95117-0.47461 0.06101-0.0122 0.148-7e-3 0.25781 0.0176 0.12201 0.0244 0.23785 0.0606 0.34766 0.10938 0.10981 0.0488 0.20023 0.11038 0.27344 0.18359 0.08541 0.0732 0.12891 0.15287 0.12891 0.23828 0 0.0732-0.01808 0.16363-0.05469 0.27344-0.0244 0.10981-0.06252 0.22027-0.11133 0.33008-0.0488 0.10981-0.10306 0.21294-0.16406 0.31055-0.0488 0.0976-0.09035 0.16456-0.12695 0.20117l-1.7754 1.7754c-0.14641 0.15861-0.2207 0.35949-0.2207 0.60351 0 0.18302 0.09237 0.37852 0.27539 0.58594 0.19522 0.19522 0.40147 0.42151 0.62109 0.67773 0.21962 0.25623 0.42245 0.54948 0.60547 0.87891 0.19522 0.31723 0.29102 0.69552 0.29102 1.1348 0 0.0366-0.0054 0.11627-0.01758 0.23828v0.20117c-0.17082 0.14641-0.37707 0.22608-0.62109 0.23828h-0.67774c-0.25622 0-0.45172-0.11779-0.58594-0.34961s-0.26813-0.48695-0.40234-0.76758c-0.12201-0.28062-0.26864-0.53771-0.43945-0.76953-0.17082-0.23182-0.42057-0.34765-0.75-0.34765-0.07321 0-0.15825 0.0127-0.25586 0.0371-0.08541 0.0122-0.17778 0.0376-0.27539 0.0742-0.08541 0.0366-0.15774 0.0909-0.21875 0.16407-0.06101 0.061-0.0918 0.13334-0.0918 0.21875 0 0.18301 0.01808 0.36581 0.05469 0.54882 0.0366 0.17082 0.05469 0.35557 0.05469 0.55079 0 0.41484-0.152 0.70076-0.45703 0.85937-0.29283 0.14642-0.62225 0.21875-0.98828 0.21875-0.19522 0-0.34917-0.0235-0.45898-0.0723-0.10981-0.061-0.19485-0.14068-0.25586-0.23829-0.06101-0.10981-0.10988-0.23835-0.14648-0.38476-0.0366-0.15862-0.07815-0.33408-0.12695-0.5293-0.0122-0.18302-0.03224-0.46356-0.05664-0.8418-0.0122-0.39043-0.03028-0.82493-0.05469-1.3008-0.0122-0.47584-0.03566-0.98268-0.07227-1.5195-0.0244-0.53685-0.04982-1.0417-0.07422-1.5176-0.0122-0.47584-0.03028-0.90301-0.05469-1.2812-0.0122-0.39043-0.02296-0.67831-0.03516-0.86132v-0.21875c0.17082-0.0854 0.35899-0.12891 0.56641-0.12891zm-12.932 0.11133c0.28063 0 0.53233 0.13392 0.75195 0.40234 0.23182 0.25623 0.42732 0.56756 0.58594 0.9336 0.15862 0.35383 0.27983 0.71942 0.36524 1.0976 0.08541 0.36604 0.12891 0.65196 0.12891 0.85938 0 0.57345-0.0435 1.0857-0.12891 1.5371-0.07321 0.43924-0.20175 0.84832-0.38477 1.2266-0.18302 0.36603-0.42739 0.71354-0.73242 1.043-0.29283 0.32943-0.65841 0.65885-1.0977 0.98828-0.18302 0.14641-0.36581 0.24416-0.54883 0.29297-0.17082 0.0366-0.37169 0.0547-0.60352 0.0547-0.41484 0-0.76967-0.10851-1.0625-0.32813-0.28063-0.21962-0.51229-0.48941-0.69531-0.80664-0.18302-0.32943-0.31694-0.68231-0.40234-1.0606-0.08541-0.39044-0.12891-0.75064-0.12891-1.0801v-0.75c0.0122-0.0976 0.01953-0.16456 0.01953-0.20117 0.17082-0.62226 0.40786-1.1726 0.71289-1.6484 0.31723-0.47585 0.70823-0.92648 1.1719-1.3535 0.0122-0.0122 0.03566-0.0303 0.07227-0.0547 0.04881-0.0366 0.0923-0.0728 0.12891-0.10937 0.0488-0.0366 0.0923-0.0674 0.12891-0.0918 0.04881-0.0366 0.08497-0.062 0.10938-0.0742 0.14641-0.0854 0.27496-0.17583 0.38476-0.27344 0.12201-0.0976 0.23785-0.18998 0.34766-0.27539 0.12201-0.0976 0.2486-0.17727 0.38281-0.23828 0.14641-0.061 0.31112-0.0898 0.49414-0.0898zm10.293 0.0352c0.15862 0 0.27445 0.0381 0.34766 0.11133 0.08541 0.061 0.13966 0.14605 0.16406 0.25586 0.0366 0.10981 0.04931 0.23835 0.03711 0.38477v1.0976c0 0.061-0.0054 0.2003-0.01758 0.41993-0.0122 0.21962-0.02491 0.45861-0.03711 0.71484-0.0122 0.25622-0.02491 0.5006-0.03711 0.73242-0.0122 0.21962-0.01758 0.35892-0.01758 0.41992-0.0122 0.31723-0.0122 0.71899 0 1.207 0.0244 0.48805-1e-3 0.97142-0.07422 1.4473-0.07321 0.46364-0.21983 0.8654-0.43945 1.207-0.20742 0.32943-0.54759 0.49414-1.0234 0.49414-0.29283 0-0.5372-0.0127-0.73242-0.0371-0.18302-0.0244-0.43277-0.0967-0.75-0.21875-0.23182-0.14641-0.41462-0.40349-0.54883-0.76953-0.13421-0.37824-0.27008-0.7619-0.4043-1.1523-0.13421-0.40264-0.29159-0.75014-0.47461-1.043-0.17082-0.30503-0.41519-0.45703-0.73242-0.45703-0.18302 0-0.33502 0.0596-0.45703 0.18164-0.12201 0.12201-0.18359 0.29405-0.18359 0.51367v2.3965c0 0.17082-0.08504 0.2759-0.25586 0.3125-0.17082 0.0244-0.31206 0.0352-0.42188 0.0352-0.17082 0-0.31744-0.0542-0.43945-0.16406-0.10981-0.12201-0.18215-0.26131-0.21875-0.41992 0-0.0854-0.0054-0.24474-0.01758-0.47657v-4.0996c0.0122-0.20742 0.01758-0.32325 0.01758-0.34765 0-0.19522 0.0054-0.42689 0.01758-0.69531 0.0122-0.28063 0.0557-0.54309 0.12891-0.78711 0.07321-0.25623 0.18904-0.46981 0.34766-0.64063s0.38491-0.25586 0.67774-0.25586c0.35383 0 0.65246 0.1393 0.89648 0.41992 0.25622 0.26843 0.47519 0.61055 0.6582 1.0254 0.19522 0.41484 0.35993 0.86547 0.49414 1.3535 0.14641 0.48805 0.28033 0.94063 0.40234 1.3555 0.13421 0.41484 0.25738 0.76234 0.36719 1.043 0.12201 0.26842 0.26131 0.40234 0.41992 0.40234 0.08541 0 0.19586-0.0489 0.33008-0.14648 0.13422-0.0976 0.22463-0.16457 0.27344-0.20118 0.25622-0.20742 0.43364-0.49333 0.53125-0.85937 0.10981-0.36604 0.1841-0.75703 0.2207-1.1719 0.0366-0.41485 0.05469-0.83664 0.05469-1.2637s0.01808-0.81071 0.05469-1.1523c0.0488-0.34163 0.13385-0.62218 0.25586-0.8418s0.31751-0.33008 0.58594-0.33008zm-11.115 2.6172c-0.21962 0-0.40241 0.067-0.54883 0.20117-0.14641 0.13422-0.26225 0.29893-0.34766 0.49414-0.08541 0.18302-0.14699 0.38585-0.18359 0.60547s-0.05469 0.4205-0.05469 0.60352c0 0.25622 0.04888 0.50598 0.14648 0.75 0.10981 0.24402 0.31606 0.36523 0.62109 0.36523 0.20742 0 0.39754-0.0489 0.56836-0.14648 0.18302-0.10981 0.34235-0.24373 0.47656-0.40234 0.13421-0.17082 0.23734-0.35899 0.31055-0.56641s0.10938-0.41563 0.10937-0.62305c0-0.32943-0.09775-0.62268-0.29297-0.8789-0.18302-0.26843-0.45085-0.40235-0.80469-0.40235zm-0.42188 0.98828c0.15862 0 0.28716 0.067 0.38477 0.20117 0.09761 0.12202 0.14648 0.25789 0.14648 0.4043 0 0.19522-0.0435 0.37068-0.12891 0.5293-0.08541 0.15861-0.19391 0.30524-0.32812 0.43945h-0.10938c-0.0244-0.0244-0.0679-0.0606-0.12891-0.10937-0.04881-0.0488-0.0796-0.085-0.0918-0.10938 0-0.0366-0.0054-0.11089-0.01758-0.2207v-0.23828c0-0.0488-0.0073-0.12114-0.01953-0.21875 0-0.10981 0.0073-0.21294 0.01953-0.31055 0.0122-0.0976 0.03566-0.18265 0.07227-0.25586 0.0366-0.0732 0.10356-0.11133 0.20117-0.11133zm34.189 8.9961c-0.77021 0-1.5238 0.0414-2.2598 0.12695-0.71886 0.0856-1.3692 0.27348-1.9512 0.56445-0.56482 0.29097-1.019 0.71206-1.3613 1.2598-0.34232 0.53059-0.51367 1.2491-0.51367 2.1562v0.94922c0.01712 0.10269 0.02734 0.17912 0.02734 0.23047 0.11981 0.53059 0.32427 0.93317 0.61523 1.207 0.30808 0.25673 0.6508 0.45487 1.0273 0.59179 0.39366 0.11981 0.78602 0.20452 1.1797 0.25586 0.41078 0.0342 0.78854 0.0858 1.1309 0.1543 0.34232 0.0685 0.61492 0.17994 0.82031 0.33398 0.2225 0.13693 0.33398 0.37644 0.33398 0.71876 0 0.0171-0.01655 0.0419-0.05078 0.0762-0.03423 0.0342-0.06733 0.061-0.10156 0.0781-0.41078 0.23962-0.8567 0.41098-1.3359 0.51367-0.47924 0.1027-0.95826 0.19567-1.4375 0.28125-0.47924 0.0685-0.94998 0.15512-1.4121 0.25782-0.44501 0.0856-0.8476 0.23015-1.207 0.43554-0.34232 0.20539-0.61688 0.50478-0.82227 0.89844-0.20539 0.37655-0.30664 0.88234-0.30664 1.5156 0 0.30808 0.11148 0.55586 0.33398 0.74414 0.23962 0.17115 0.5205 0.30746 0.8457 0.41015 0.3252 0.1027 0.65136 0.17085 0.97656 0.20508 0.3252 0.0342 0.58953 0.0527 0.79492 0.0527 0.9756 0 1.9171-0.0866 2.8242-0.25781 0.92425-0.18827 1.7377-0.50421 2.4395-0.94922 0.71886-0.44501 1.2928-1.0355 1.7207-1.7715 0.4279-0.7531 0.64062-1.6946 0.64062-2.8242 0-0.71886-0.10953-1.3176-0.33203-1.7969-0.2225-0.49636-0.63337-0.97538-1.2324-1.4375-0.18827-0.15405-0.40296-0.2923-0.64258-0.41211-0.23962-0.13693-0.4358-0.31656-0.58984-0.53907h0.46094c0.23962 0 0.47085 0.0351 0.69336 0.10352 0.23962 0.0514 0.47913 0.0762 0.71875 0.0762 0.20539 0 0.38502-0.0682 0.53906-0.20508 0.17116-0.15404 0.31769-0.33367 0.4375-0.53906 0.13693-0.2225 0.23818-0.44546 0.30664-0.66797 0.06846-0.23962 0.10352-0.44407 0.10352-0.61523 0-0.29097-0.12803-0.56553-0.38477-0.82227-0.25674-0.27385-0.5644-0.50508-0.92383-0.69336-0.35943-0.20539-0.7372-0.36652-1.1309-0.48633-0.37655-0.11981-0.70076-0.17968-0.97461-0.17968zm-46.377 0.0254c-0.13693 0-0.2815 8e-3 -0.43555 0.0254h-0.71875c-0.39366 0.30808-0.71982 0.72722-0.97656 1.2578-0.25674 0.51347-0.46119 1.0874-0.61523 1.7207-0.15404 0.63329-0.26552 1.3002-0.33398 2.002-0.05135 0.68463-0.08445 1.37-0.10156 2.0547-0.01712 0.66752-0.02734 1.3077-0.02734 1.9238 0.01712 0.59905 0.02734 1.1131 0.02734 1.541v1.3106c0.01712 0.27385 0.02539 0.53818 0.02539 0.79492v0.51367c0.06846 0.10269 0.10984 0.2059 0.12695 0.30859 0.03423 0.1027 0.06928 0.19567 0.10352 0.28125 0.03423 0.0685 0.08583 0.12834 0.1543 0.17969 0.08558 0.0513 0.20533 0.0864 0.35938 0.10352h0.1543c0.08558 0 0.17856 8e-3 0.28125 0.0254h0.64258c0.73598 0 1.4813-0.0599 2.2344-0.17969 0.77021-0.13693 1.462-0.35989 2.0781-0.66797 0.63328-0.3252 1.1474-0.76089 1.541-1.3086 0.39366-0.54771 0.58984-1.2414 0.58984-2.0801 0-0.41078-0.07643-0.83819-0.23047-1.2832-0.13693-0.44502-0.30828-0.8476-0.51367-1.207 0.47924-0.51347 0.8054-1.0606 0.97656-1.6426 0.17116-0.58194 0.25586-1.2158 0.25586-1.9004 0-0.71887-0.15481-1.3176-0.46289-1.7969-0.30808-0.49636-0.717-0.89067-1.2305-1.1816-0.49636-0.29097-1.062-0.49542-1.6953-0.61524-0.63328-0.11981-1.2754-0.17968-1.9258-0.17968h-0.2832zm12.545 0.15429c-0.59905 0-1.1895 0.093-1.7715 0.28125-0.56482 0.17116-1.0872 0.44572-1.5664 0.82227-0.46213 0.35943-0.86472 0.83017-1.207 1.4121-0.34232 0.56482-0.5901 1.2317-0.74414 2.002-0.23962 1.1981-0.42753 2.3192-0.56445 3.3633-0.11981 1.0441-0.17969 2.1652-0.17969 3.3633 0 0.35943 0.0083 0.70214 0.02539 1.0273 0.03423 0.30808 0.09411 0.58264 0.17969 0.82226 0.1027 0.23963 0.24923 0.42753 0.4375 0.56446 0.20539 0.13692 0.478 0.20508 0.82031 0.20508 0.11981 0 0.28289 8e-3 0.48828 0.0254 0.2225 0 0.45374-8e-3 0.69336-0.0254 0.25674-0.0171 0.49624-0.0439 0.71875-0.0781s0.41041-0.10238 0.56445-0.20508c0.03423-0.0513 0.07756-0.14432 0.12891-0.28125 0.06846-0.15404 0.12834-0.30885 0.17969-0.46289 0.06846-0.15404 0.12834-0.29862 0.17969-0.43555 0.06846-0.15404 0.11179-0.26552 0.12891-0.33398 0.01712-0.0514 0.03366-0.138 0.05078-0.25781s0.04194-0.23957 0.07617-0.35938 0.07756-0.22301 0.12891-0.30859c0.05135-0.1027 0.12777-0.15234 0.23047-0.15234 0.2225 0 0.38559 0.10125 0.48828 0.30664 0.01712 0.13692 0.04389 0.35161 0.07813 0.64257 0.05135 0.27386 0.11122 0.55669 0.17969 0.84766 0.08558 0.29097 0.19706 0.54703 0.33398 0.76953 0.13693 0.20539 0.30633 0.3086 0.51172 0.3086h1.875c0.49636 0 0.8824-0.21469 1.1562-0.64258 0.27385-0.44501 0.45348-0.92403 0.53906-1.4375v-4.6973c0-0.73598-0.03505-1.438-0.10352-2.1055-0.05135-0.68463-0.16283-1.3267-0.33398-1.9258-0.15404-0.61617-0.38528-1.1468-0.69336-1.5918-0.30808-0.44501-0.71067-0.79599-1.207-1.0527-0.47924-0.27385-1.0863-0.41016-1.8223-0.41016zm-11.697 0.46094c1.2323 0 2.2254 0.29111 2.9785 0.87305 0.7531 0.56482 1.1289 1.4382 1.1289 2.6191v0.53906c0 0.15404-0.01655 0.30885-0.05078 0.46289-0.01712 0.13693-0.06044 0.28978-0.12891 0.46094-0.05135 0.15404-0.13605 0.34195-0.25586 0.56445-0.06846 0.13693-0.15316 0.25668-0.25586 0.35938l-0.25781 0.25781c-0.06846 0.0856-0.13662 0.17856-0.20508 0.28125-0.05135 0.1027-0.07812 0.22245-0.07812 0.35938 0 0.23962 0.08665 0.4543 0.25781 0.64257 0.17116 0.17116 0.29919 0.36734 0.38477 0.58985 0.08558 0.25673 0.12891 0.49624 0.12891 0.71875 0.01712 0.20539 0.02539 0.42835 0.02539 0.66797s-0.03505 0.5059-0.10352 0.79687c-0.06846 0.27385-0.16971 0.53819-0.30664 0.79492-0.13693 0.23962-0.31656 0.45431-0.53906 0.64258-0.20539 0.18827-0.45513 0.3163-0.74609 0.38477-0.1027 0.0342-0.24727 0.0508-0.43555 0.0508-0.17116 0-0.29919 8e-3 -0.38476 0.0254-0.11981 0.0342-0.21474 0.061-0.2832 0.0781h-0.17969c-0.05135 0-0.11122 8e-3 -0.17969 0.0254-0.06846 0-0.15316 0.0165-0.25586 0.0508-0.13693 0.0342-0.30828 0.0693-0.51367 0.10351-0.20539 0.0342-0.42007 0.0673-0.64258 0.10156l-0.61523 0.0527c-0.18827 0.0171-0.35963 0.0254-0.51367 0.0254-0.23962 0-0.43776-0.0433-0.5918-0.12891-0.13693-0.10269-0.24645-0.23072-0.33203-0.38476-0.06846-0.15405-0.11179-0.3254-0.12891-0.51368-0.01712-0.20538-0.02539-0.40157-0.02539-0.58984v-0.56445c0.01712-0.22251 0.05022-0.56522 0.10156-1.0274 0.05135-0.46212 0.10295-0.97619 0.1543-1.541 0.06846-0.58194 0.13662-1.189 0.20508-1.8223 0.06846-0.63328 0.13662-1.232 0.20508-1.7969 0.06846-0.58194 0.13029-1.096 0.18164-1.541 0.05135-0.46212 0.08445-0.79656 0.10156-1.002 0.03423-0.34232 0.09411-0.61492 0.17969-0.82031 0.1027-0.22251 0.239-0.38559 0.41016-0.48828 0.17116-0.11981 0.38584-0.19624 0.64258-0.23047 0.25674-0.0513 0.5644-0.0781 0.92383-0.0781zm11.826 0.10352c0.63328 0 1.1639 0.1363 1.5918 0.41015 0.4279 0.25674 0.77888 0.60773 1.0527 1.0527 0.27385 0.42789 0.47831 0.94196 0.61523 1.541 0.13693 0.58194 0.23186 1.1973 0.2832 1.8477 0.06846 0.63328 0.10156 1.2837 0.10156 1.9512 0.01711 0.6504 0.02734 1.276 0.02734 1.875 0 0.6504-0.0185 1.2141-0.05273 1.6934-0.01712 0.46213-0.10182 0.84817-0.25586 1.1562-0.13693 0.30809-0.36816 0.53932-0.69336 0.69336-0.30808 0.13693-0.754 0.20508-1.3359 0.20508h-0.25586c-0.10269 0-0.21417-8e-3 -0.33398-0.0254-0.11981-0.0342-0.22302-0.0858-0.30859-0.1543s-0.12695-0.17167-0.12695-0.30859v-2.1055c0-0.0514-0.0516-0.10295-0.1543-0.1543-0.10269-0.0685-0.21417-0.11811-0.33398-0.15234l-0.30859-0.10352-0.1543-0.0508h-0.12891c-0.30808 0-0.54759 0.11976-0.71875 0.35938-0.15404 0.2225-0.29035 0.48683-0.41016 0.79492-0.1027 0.29097-0.21417 0.59035-0.33398 0.89844-0.10269 0.30808-0.25555 0.53931-0.46094 0.69336h-0.64258c-0.34232 0-0.62515-8e-3 -0.84766-0.0254-0.20539-0.0171-0.48822-0.0687-0.84766-0.15429-0.03423-0.0342-0.06733-0.10239-0.10156-0.20508-0.01712-0.11981-0.03367-0.19624-0.05078-0.23047v-0.15427c0.01712-0.27385 0.03367-0.62484 0.05078-1.0527 0.03423-0.44501 0.05906-0.87242 0.07617-1.2832 0.03423-0.41078 0.06101-0.77004 0.07813-1.0781 0.03423-0.30808 0.05078-0.47116 0.05078-0.48828 0.05135-0.53059 0.10295-1.088 0.1543-1.6699 0.06846-0.58194 0.16144-1.1457 0.28125-1.6934 0.13693-0.56482 0.32678-1.0954 0.56641-1.5918s0.55556-0.91549 0.94922-1.2578c0.20539-0.17116 0.3933-0.29919 0.56445-0.38477 0.18827-0.10269 0.3679-0.18935 0.53906-0.25781 0.17116-0.0856 0.33424-0.162 0.48828-0.23047 0.17116-0.0856 0.35079-0.19706 0.53906-0.33398h0.41016c0.22251-0.0171 0.36904-0.0254 0.4375-0.0254zm32.83 0c0.37655 0 0.70903 0.0165 1 0.0508 0.29097 0.0342 0.5738 0.10238 0.84766 0.20508 0.27385 0.0856 0.54014 0.20533 0.79688 0.35937 0.27385 0.13693 0.56496 0.30828 0.87305 0.51367 0.08558 0.0514 0.12695 0.0947 0.12695 0.12891 0.01712 0.0342 0.02734 0.0941 0.02734 0.17969 0 0.25673-0.11148 0.45291-0.33398 0.58984-0.20539 0.11981-0.42835 0.17969-0.66797 0.17969-0.29097 0-0.5738-0.0248-0.84766-0.0762-0.25674-0.0513-0.5313-0.0781-0.82226-0.0781-0.13693 0-0.29806 0.0185-0.48633 0.0527-0.17116 0.0171-0.33424 0.0585-0.48828 0.12695-0.15404 0.0685-0.29035 0.16339-0.41016 0.2832-0.1027 0.1027-0.1543 0.239-0.1543 0.41016s0.09298 0.33424 0.28125 0.48828c0.18827 0.15404 0.41951 0.31712 0.69336 0.48828s0.57324 0.36734 0.89844 0.58985c0.3252 0.20538 0.62458 0.45317 0.89844 0.74414 0.27385 0.29096 0.50509 0.63368 0.69336 1.0273 0.18827 0.39366 0.2832 0.84785 0.2832 1.3613 0 0.89002-0.21468 1.6251-0.64258 2.207-0.41078 0.56482-0.9414 1.0107-1.5918 1.3359s-1.3689 0.54815-2.1562 0.66796c-0.77021 0.11982-1.5136 0.17969-2.2324 0.17969h-1.1562c-0.08558-0.0342-0.19706-0.0693-0.33398-0.10351-0.13693-0.0514-0.2299-0.12778-0.28125-0.23047-0.01712-0.0342-0.02734-0.12089-0.02734-0.25781v-0.28125c0-0.47925 0.1032-0.82196 0.30859-1.0274 0.20539-0.2225 0.46145-0.37731 0.76953-0.46289 0.3252-0.10269 0.68642-0.1543 1.0801-0.1543 0.39366-0.0171 0.76948-0.0585 1.1289-0.12695 0.17116-0.0342 0.42722-0.10238 0.76953-0.20508 0.34232-0.10269 0.68503-0.23267 1.0273-0.38672 0.34232-0.17115 0.6417-0.35906 0.89844-0.56445 0.27385-0.20539 0.41016-0.42835 0.41016-0.66797 0-0.56482-0.12803-0.97568-0.38477-1.2324-0.23962-0.27385-0.54728-0.47003-0.92383-0.58984-0.35943-0.11981-0.76202-0.20452-1.207-0.25586-0.4279-0.0514-0.83048-0.14628-1.207-0.28321-0.35943-0.15404-0.66709-0.39355-0.92383-0.71875-0.23962-0.3252-0.35938-0.82076-0.35938-1.4883 0-0.56482 0.09493-1.0356 0.2832-1.4121 0.20539-0.37654 0.478-0.67593 0.82031-0.89843 0.35943-0.23962 0.7703-0.41098 1.2324-0.51368 0.46213-0.10269 0.95964-0.15429 1.4902-0.15429zm-23.551 0.43554c-0.56482 0-1.0706 0.0433-1.5156 0.12891-0.44501 0.0685-0.82082 0.20477-1.1289 0.41016s-0.55587 0.4965-0.74414 0.87304c-0.17116 0.35944-0.28264 0.83018-0.33398 1.4121-0.06846 0.82156-0.12834 1.6516-0.17969 2.4902-0.05135 0.82156-0.09467 1.6516-0.12891 2.4902v3.7227c0.08558 0.30808 0.30854 0.55782 0.66797 0.74609 0.37655 0.18828 0.78741 0.33285 1.2324 0.43555 0.46213 0.0856 0.90609 0.14545 1.334 0.17969 0.4279 0.0342 0.75406 0.0508 0.97656 0.0508 0.58194 0 1.1807-0.0248 1.7969-0.0762 0.63328-0.0685 1.2072-0.20477 1.7207-0.41016 0.53059-0.22251 0.958-0.54039 1.2832-0.95117 0.34232-0.4279 0.51367-1.0018 0.51367-1.7207 0-0.44501-0.08666-0.77749-0.25781-1-0.15404-0.23962-0.4617-0.35937-0.92383-0.35937-0.49636 0-0.99192 0.0516-1.4883 0.1543-0.47924 0.0856-0.96849 0.12695-1.4648 0.12695 0-0.0856-0.02482-0.25694-0.07617-0.51367-0.03423-0.27386-0.04251-0.45349-0.02539-0.53907 0.06846-0.37654 0.15316-0.7358 0.25586-1.0781 0.11981-0.35943 0.23129-0.71869 0.33398-1.0781 0.1027-0.35944 0.18935-0.72697 0.25781-1.1035s0.10156-0.76063 0.10156-1.1543c0-0.39366-0.0331-0.7797-0.10156-1.1562-0.05135-0.39366-0.16283-0.74465-0.33398-1.0527-0.15404-0.30809-0.377-0.55587-0.66797-0.74414-0.27385-0.18828-0.64139-0.28321-1.1035-0.28321zm10.529 0c-0.56482 0-1.0687 0.0433-1.5137 0.12891-0.44501 0.0685-0.82278 0.20477-1.1309 0.41016s-0.55587 0.4965-0.74414 0.87304c-0.17116 0.35944-0.28264 0.83018-0.33398 1.4121-0.06846 0.82156-0.12834 1.6516-0.17969 2.4902-0.05135 0.82156-0.09272 1.6516-0.12695 2.4902v3.7227c0.08558 0.30808 0.30658 0.55782 0.66602 0.74609 0.37655 0.18828 0.78741 0.33285 1.2324 0.43555 0.46213 0.0856 0.90804 0.14545 1.3359 0.17969 0.4279 0.0342 0.7521 0.0508 0.97461 0.0508 0.58194 0 1.1807-0.0248 1.7969-0.0762 0.63328-0.0685 1.2072-0.20477 1.7207-0.41016 0.53059-0.22251 0.958-0.54039 1.2832-0.95117 0.34232-0.4279 0.51367-1.0018 0.51367-1.7207 0-0.44501-0.0847-0.77749-0.25586-1-0.15404-0.23962-0.4617-0.35937-0.92383-0.35937-0.49636 0-0.99388 0.0516-1.4902 0.1543-0.47924 0.0856-0.96653 0.12695-1.4629 0.12695 0-0.0856-0.02482-0.25694-0.07617-0.51367-0.03423-0.27386-0.04446-0.45349-0.02734-0.53907 0.06846-0.37654 0.15512-0.7358 0.25781-1.0781 0.11981-0.35943 0.23129-0.71869 0.33398-1.0781 0.1027-0.35944 0.1874-0.72697 0.25586-1.1035s0.10352-0.76063 0.10352-1.1543c0-0.39366-0.03505-0.7797-0.10352-1.1562-0.05135-0.39366-0.16283-0.74465-0.33398-1.0527-0.15404-0.30809-0.37505-0.55587-0.66602-0.74414-0.27385-0.18828-0.64334-0.28321-1.1055-0.28321zm-10.58 0.46289c0.3252 0 0.58953 0.0847 0.79492 0.25586 0.2225 0.17116 0.39386 0.39412 0.51367 0.66797 0.11981 0.25674 0.20451 0.53958 0.25586 0.84766s0.07813 0.59092 0.07813 0.84766c0 0.90713-0.11975 1.7785-0.35938 2.6172-0.23962 0.82156-0.4874 1.6783-0.74414 2.5684 0 0.0171-0.01023 0.0605-0.02734 0.12891v0.10156c0 0.29097 0.08665 0.51393 0.25781 0.66797 0.18827 0.13693 0.41951 0.20508 0.69336 0.20508 0.46213 0 0.91436-0.0516 1.3594-0.1543 0.44501-0.11981 0.8992-0.17969 1.3613-0.17969h0.56445c0.13693 0.0342 0.1968 0.13744 0.17969 0.3086s-0.02539 0.27436-0.02539 0.30859c0 0.63329-0.16308 1.1123-0.48828 1.4375s-0.73606 0.55643-1.2324 0.69336c-0.47924 0.13693-1.0099 0.21335-1.5918 0.23047h-1.5898c-0.2225 0-0.48052-8e-3 -0.77148-0.0254-0.27385-0.0342-0.54646-0.0941-0.82031-0.17969-0.25674-0.10269-0.4982-0.23072-0.7207-0.38476-0.20539-0.17116-0.34169-0.39412-0.41016-0.66797-0.01712-0.0856-0.02539-0.26521-0.02539-0.53907v-0.53906c0-1.4206 0.0516-2.8163 0.1543-4.1855 0.1027-1.3693 0.21417-2.7815 0.33398-4.2363 0.23962-0.3252 0.57211-0.53793 1-0.64063 0.44501-0.10269 0.8661-0.1543 1.2598-0.1543zm10.529 0c0.3252 0 0.58953 0.0847 0.79492 0.25586 0.2225 0.17116 0.39386 0.39412 0.51367 0.66797 0.11981 0.25674 0.20646 0.53958 0.25781 0.84766s0.07617 0.59092 0.07617 0.84766c0 0.90713-0.11975 1.7785-0.35938 2.6172-0.23962 0.82156-0.4874 1.6783-0.74414 2.5684 0 0.0171-0.0083 0.0605-0.02539 0.12891v0.10156c0 0.29097 0.0847 0.51393 0.25586 0.66797 0.18827 0.13693 0.41951 0.20508 0.69336 0.20508 0.46213 0 0.91632-0.0516 1.3613-0.1543 0.44501-0.11981 0.8992-0.17969 1.3613-0.17969h0.56445c0.13693 0.0342 0.1968 0.13744 0.17969 0.3086s-0.02539 0.27436-0.02539 0.30859c0 0.63329-0.16308 1.1123-0.48828 1.4375s-0.73606 0.55643-1.2324 0.69336c-0.47924 0.13693-1.0099 0.21335-1.5918 0.23047h-1.5918c-0.2225 0-0.47856-8e-3 -0.76953-0.0254-0.27385-0.0342-0.54841-0.0941-0.82227-0.17969-0.25674-0.10269-0.49624-0.23072-0.71875-0.38476-0.20539-0.17116-0.34169-0.39412-0.41016-0.66797-0.01712-0.0856-0.02734-0.26521-0.02734-0.53907v-0.53906c0-1.4206 0.0516-2.8163 0.1543-4.1855 0.1027-1.3693 0.21417-2.7815 0.33398-4.2363 0.23962-0.3252 0.57406-0.53793 1.002-0.64063 0.44501-0.10269 0.86415-0.1543 1.2578-0.1543zm-30.84 0.61524c-0.17116 0-0.37561 0.0949-0.61523 0.2832-0.2225 0.17116-0.37731 0.31574-0.46289 0.43555-0.01712 0.0514-0.03366 0.14628-0.05078 0.2832-0.01712 0.13693-0.03367 0.28151-0.05078 0.43555l-0.05078 0.46289v0.2832c0 0.3252 0.10125 0.55644 0.30664 0.69336 0.20539 0.11981 0.45317 0.17969 0.74414 0.17969 0.44501 0 0.83932-0.0867 1.1816-0.25781 0.34232-0.17116 0.51367-0.5056 0.51367-1.002 0-0.18827-0.03505-0.38445-0.10352-0.58984-0.06846-0.20539-0.16972-0.39329-0.30664-0.56445-0.13693-0.18828-0.30001-0.34308-0.48828-0.46289s-0.39468-0.17969-0.61719-0.17969zm10.824 0.79687c-0.37655 0-0.71731 0.12803-1.0254 0.38477s-0.58264 0.5829-0.82226 0.97656c-0.22251 0.37655-0.40214 0.79569-0.53906 1.2578-0.11981 0.44501-0.17969 0.86414-0.17969 1.2578v0.28125l0.05078 0.35937c0.03423 0.11981 0.07756 0.23129 0.12891 0.33399 0.05135 0.0856 0.1195 0.1289 0.20508 0.1289h1.0527c0.42789 0 0.85531-0.0248 1.2832-0.0762 0.42789-0.0685 0.82221-0.17994 1.1816-0.33398 0.35943-0.15405 0.61549-0.38528 0.76953-0.69336v-0.87305c0-0.37655-0.04138-0.74408-0.12695-1.1035-0.08558-0.37654-0.21556-0.7027-0.38672-0.97656-0.17116-0.27385-0.39216-0.49681-0.66602-0.66797-0.25674-0.17115-0.56635-0.25586-0.92578-0.25586zm-10.977 0.0508c0.18827 0.0513 0.28952 0.14627 0.30664 0.2832 0.01712 0.11981 0.02539 0.24784 0.02539 0.38476 0 0.15405-0.0331 0.3069-0.10156 0.46094-0.05135 0.13693-0.18765 0.20703-0.41016 0.20703-0.13693 0-0.22358-0.0516-0.25781-0.15429-0.01712-0.11981-0.02539-0.24784-0.02539-0.38477v-0.17969c0.01712-0.10269 0.04194-0.19762 0.07617-0.2832 0.03423-0.10269 0.07756-0.1874 0.12891-0.25586 0.06846-0.0685 0.15512-0.0952 0.25781-0.0781zm10.516 0.97656c0.18827 0 0.35136 0.0764 0.48828 0.23047 0.15404 0.15404 0.28207 0.35022 0.38476 0.58984 0.1027 0.22251 0.17912 0.46201 0.23047 0.71875 0.06846 0.23962 0.10352 0.45431 0.10352 0.64258v0.25586c0 0.13692-0.01023 0.22358-0.02734 0.25781-0.1027 0.18827-0.239 0.32458-0.41016 0.41016-0.17116 0.0856-0.35906 0.13718-0.56445 0.15429-0.18827 0.0171-0.38446 0.0171-0.58984 0-0.18827-0.0171-0.35963-0.0254-0.51367-0.0254h-0.23242c-0.11981-0.0171-0.20451-0.0254-0.25586-0.0254-0.08558-0.0171-0.13718-0.10377-0.1543-0.25781v-0.30664c0-0.25674 0.03505-0.5313 0.10352-0.82227 0.06846-0.30808 0.16972-0.59919 0.30664-0.87304 0.13693-0.27386 0.30001-0.49681 0.48828-0.66797 0.18827-0.18828 0.40296-0.28125 0.64258-0.28125zm-10.773 4.416c-0.1027 0-0.24727 0.0682-0.43555 0.20508-0.17116 0.11981-0.29919 0.19624-0.38477 0.23047 0 0.0685-0.01023 0.18822-0.02734 0.35938-0.01712 0.17115-0.03367 0.35078-0.05078 0.53906l-0.05078 0.51367c-0.01712 0.17116-0.02539 0.29091-0.02539 0.35937v0.23047c0 0.27386 0.07643 0.45349 0.23047 0.53907 0.17116 0.0685 0.37561 0.10351 0.61524 0.10351 0.42789 0 0.80566-0.11975 1.1309-0.35937s0.48828-0.58234 0.48828-1.0274c0-0.15404-0.04333-0.3254-0.12891-0.51367-0.08558-0.20539-0.20533-0.39329-0.35938-0.56445-0.13693-0.17116-0.30001-0.31574-0.48828-0.43555-0.17116-0.11981-0.34251-0.17969-0.51367-0.17969zm-0.20508 0.8711h0.07617c0.18827 0 0.32653 0.1217 0.41211 0.36133 0.08558 0.23962 0.12695 0.4358 0.12695 0.58984 0 0.47924-0.27261 0.71875-0.82031 0.71875 0-0.23962 0.0083-0.51418 0.02539-0.82227 0.01712-0.3252 0.07699-0.60803 0.17969-0.84765z" fill="#ccc" stroke-width=".45754" style="font-feature-settings:normal;font-variant-caps:normal;font-variant-ligatures:normal;font-variant-numeric:normal"/>
    <path d="m23.813 0v100.54h-4.1266v-100.54z" fill="url(#linearGradient1315)" stroke-width=".27"/>
    <path d="m9.0619 13.44c-0.063078-0.0353-0.080263-0.0481-0.24742-0.18465-0.093135-0.0761-0.11062-0.0871-0.34306-0.21568-0.12172-0.0673-0.29041-0.21475-0.28914-0.25267 1.738e-4 -8e-3 -0.00666-0.0157-0.015436-0.016-0.00878-3.2e-4 -0.015568-0.0112-0.015121-0.0243 6.35e-4 -0.0131-0.013258-0.0332-0.030406-0.0448-0.017142-0.0115-0.030909-0.03-0.030531-0.041 2.431e-4 -0.011-0.00647-0.0203-0.015248-0.0207-0.00878-3.2e-4 -0.015568-0.0115-0.015121-0.0249 2.429e-4 -0.0135-0.00979-0.0289-0.022797-0.0344-0.012946-6e-3 -0.023267-0.0194-0.022889-0.0311 6.35e-4 -0.0115-0.017333-0.0362-0.039387-0.0548-0.022072-0.0186-0.035235-0.0411-0.029295-0.05 0.00594-9e-3 0.00324-0.0165-0.00606-0.0168-0.00931-3.2e-4 -0.016481-0.0113-0.016068-0.0245 6.35e-4 -0.0131-0.00637-0.0242-0.015121-0.0244-0.00878-3.2e-4 -0.015568-0.0113-0.015121-0.0244 6.35e-4 -0.0131-0.00637-0.0242-0.015121-0.0244-0.00878-3.2e-4 -0.015568-0.0131-0.015095-0.0284 2.432e-4 -0.0154-0.00931-0.049-0.021722-0.0749-0.012377-0.0258-0.019066-0.0503-0.014809-0.0542 0.00428-4e-3 -0.00283-0.0187-0.01588-0.0325-0.017963-0.0192-0.020839-0.0468-0.012002-0.11419 0.00632-0.0489 0.019989-0.13215 0.035772-0.34222 0.024535-0.32942 0.050411-0.54495 0.10408-0.86692 0.010229-0.0616 0.00651-0.0793-0.025733-0.12054-0.081763-0.10461-0.16605-0.35309-0.18705-0.55142-0.011615-0.10965-0.020301-0.13877-0.043405-0.14565-0.019574-6e-3 -0.028415-0.0234-0.027341-0.0546 9.525e-4 -0.0253 0.00745-0.0458 0.01452-0.0455 0.00714 2.5e-4 0.0167-0.0605 0.021185-0.13492l0.00827-0.13534-0.046414-1e-3c-0.025514-1e-3 -0.097871-0.0248-0.16076-0.0533-0.062886-0.0284-0.12688-0.0521-0.1422-0.0526-0.076317-2e-3 -0.20668-0.0695-0.3244-0.16659-0.13354-0.11014-0.28269-0.27573-0.28146-0.3125 2.3e-4 -0.0119-0.01633-0.0485-0.03716-0.0815-0.02081-0.033-0.0375-0.0713-0.03703-0.0851 2.43e-4 -0.0139-0.01228-0.0549-0.02838-0.0912-0.06612-0.14945-0.104-0.40384-0.08666-0.58207 0.01487-0.15291 0.02251-0.18048 0.12065-0.43474 0.03009-0.078 0.06658-0.17368 0.08109-0.21268 0.05231-0.14059 0.14999-0.30149 0.2334-0.38446 0.0093-9e-3 0.04251-0.0463 0.07387-0.0824 0.0829-0.0954 0.43905-0.3538 0.48551-0.35224 0.00512 1.5e-4 0.046862-0.0172 0.092731-0.0387 0.080626-0.0378 0.36732-0.10455 0.44056-0.10268 0.061923 1e-3 0.040531 0.0466-0.025731 0.0542-0.1637 0.0187-0.3285 0.0681-0.44292 0.13284-0.033369 0.0189-0.067469 0.0341-0.075783 0.0338-0.00833-2.9e-4 -0.024913 8e-3 -0.036846 0.0188-0.011935 0.0106-0.051134 0.0396-0.08707 0.0646-0.065882 0.0457-0.12961 0.0962-0.1944 0.15407-0.054247 0.0484-0.18775 0.20507-0.14244 0.16712 0.02198-0.0185 0.05817-0.0405 0.0804-0.0492 0.02222-9e-3 0.13533-0.0628 0.25135-0.12038 0.2613-0.12973 0.44164-0.20841 0.47566-0.20754 0.014269 3.2e-4 0.068875-0.0193 0.12139-0.0438 0.08921-0.0415 0.10729-0.0441 0.27502-0.0384 0.19804 7e-3 0.24852 0.025 0.35992 0.13102 0.042669 0.0406 0.066611 0.0517 0.10267 0.0476 0.066719-7e-3 0.14545 0.0255 0.2087 0.0875 0.02993 0.0294 0.066886 0.0514 0.082107 0.0489 0.026175-4e-3 0.026204-6e-3 9.525e-4 -0.036-0.030436-0.0359-0.028634-0.0392 0.028604-0.0508 0.033146-7e-3 0.050187 1e-3 0.082426 0.0403 0.039576 0.0475 0.042217 0.0483 0.10114 0.0288 0.14645-0.0485 0.27598-0.0801 0.32245-0.0785 0.065553 2e-3 0.24577-0.0632 0.51005-0.18514 0.11702-0.054 0.22728-0.10314 0.24504-0.10923 0.09666-0.0332 0.14044-0.0427 0.25536-0.0554 0.06948-8e-3 0.15975-0.0231 0.2006-0.0343 0.09371-0.0257 0.26333-0.0319 0.65677-0.0237 0.17101 3e-3 0.37422 3e-3 0.45158-1e-3 0.1244-7e-3 0.14293-4e-3 0.16023 0.0213 0.01597 0.0235 0.05592 0.0321 0.21701 0.0473 0.10859 0.0102 0.22595 0.0274 0.26079 0.038 0.03484 0.0107 0.14229 0.0326 0.23877 0.0485 0.09648 0.016 0.21748 0.0455 0.26887 0.0655 0.0514 0.0201 0.16454 0.0576 0.25143 0.0835s0.16498 0.0526 0.17352 0.0596c0.0085 7e-3 0.04009 0.0187 0.07011 0.0262 0.03003 8e-3 0.10248 0.035 0.16102 0.0611 0.11681 0.0522 0.11937 0.0473 0.03496-0.0663-0.02492-0.0336-0.08039-0.12515-0.12328-0.20358-0.04288-0.0784-0.13762-0.22716-0.21053-0.33052-0.10522-0.14917-0.14154-0.18928-0.17604-0.19444-0.02873-4e-3 -0.04316-0.0159-0.04254-0.0341 2.42e-4 -0.0152-0.0074-0.0365-0.01755-0.0474-0.01437-0.0154-0.0044-0.0193 0.0449-0.0176 0.05725 2e-3 0.0732 0.0129 0.16481 0.11322 0.10623 0.11637 0.21933 0.26989 0.29556 0.40121 0.02482 0.0427 0.08594 0.14443 0.13585 0.22601 0.04992 0.0816 0.11454 0.18897 0.14358 0.23865 0.03642 0.0623 0.07424 0.10254 0.12182 0.12967 0.03796 0.0216 0.07581 0.0396 0.08412 0.0398 0.0083 2.9e-4 0.03616 0.0194 0.06189 0.0426 0.0667 0.06 0.07229 0.0385 0.01017-0.0392-0.02908-0.0364-0.07185-0.10455-0.09507-0.15154-0.04064-0.0823-0.14697-0.2385-0.21495-0.31589-0.05386-0.0613-0.09725-0.13297-0.09637-0.15919 2.44e-4 -0.0136-8e-3 -0.0307-0.01866-0.038-0.02999-0.0207-0.07178-0.13121-0.06006-0.15894 0.0074-0.0175 0.02715-0.0227 0.06802-0.018 0.05411 6e-3 0.05852 0.0112 0.07332 0.0812 0.01945 0.092 0.09247 0.21674 0.22449 0.38368 0.05556 0.0703 0.11827 0.16423 0.13934 0.20881 0.02106 0.0446 0.06313 0.11586 0.09346 0.1584 0.03034 0.0425 0.08586 0.12525 0.12339 0.18384 0.05763 0.09 0.24322 0.2795 0.32371 0.33059 0.01272 8e-3 -0.0089-0.0336-0.04807-0.0925-0.03918-0.059-0.10406-0.17211-0.14418-0.25139-0.04012-0.0793-0.14864-0.27847-0.24114-0.44263-0.0925-0.16417-0.168-0.30409-0.16777-0.31092 1.39e-4 -7e-3 -0.02908-0.0591-0.0651-0.1162-0.03604-0.0571-0.06972-0.11649-0.07486-0.13202-0.0051-0.0155-0.0167-0.0285-0.02576-0.0288-9e-3 -2.9e-4 -0.01607-0.0113-0.01562-0.0244 6.35e-4 -0.0173 0.0185-0.0233 0.06455-0.0218 0.03507 1e-3 0.06351 9e-3 0.06322 0.018-2.09e-4 9e-3 0.03345 0.067 0.07498 0.12957 0.04153 0.0625 0.08476 0.13761 0.09607 0.16683 0.01131 0.0293 0.09711 0.18853 0.19066 0.35401 0.09355 0.16549 0.19789 0.35567 0.23187 0.42263 0.03397 0.0669 0.12294 0.21596 0.1977 0.33112 0.07476 0.11515 0.15544 0.24215 0.1793 0.28221 0.03194 0.0536 0.05032 0.0702 0.0697 0.0628 0.01449-6e-3 0.0516-0.0146 0.0825-0.0201 0.03091-6e-3 0.07665-0.0174 0.10165-0.0265 0.05714-0.0207 0.3162-0.0125 0.69628 0.0222 0.27816 0.0254 0.46063 0.0623 0.45961 0.093-2.44e-4 8e-3 0.01607 0.0185 0.03633 0.0243 0.03435 0.01 0.08379 0.0496 0.1586 0.12742 0.01724 0.0179 0.04009 0.0329 0.05074 0.0333 0.01067 3.1e-4 0.01913 8e-3 0.01882 0.0166-2.12e-4 9e-3 0.0094 0.0163 0.02166 0.0167 0.01218 3.2e-4 0.02599 0.0116 0.03056 0.0249 0.0046 0.0133 0.01822 0.0245 0.03022 0.025 0.01203 3.1e-4 0.02943 0.019 0.03867 0.0412 0.0092 0.0223 0.02592 0.0411 0.03705 0.0419 0.02804 2e-3 0.22272 0.29841 0.25859 0.39362 0.01617 0.0429 0.0362 0.0782 0.04454 0.0785 0.0084 2.9e-4 0.03699 0.0275 0.06365 0.0607 0.02665 0.0331 0.06039 0.0735 0.07494 0.0898 0.03707 0.0415 0.109 0.20102 0.14588 0.3234 0.06497 0.21564 0.08047 0.5332 0.03361 0.68882-0.06718 0.22314-0.28744 0.55339-0.53916 0.80843-0.04612 0.0467-0.11285 0.11987-0.1483 0.16256-0.19256 0.2319-0.31953 0.30028-0.59746 0.32177-0.0855 7e-3 -0.17934 0.0214-0.20853 0.0328-0.02921 0.0114-0.08219 0.0326-0.11777 0.0471-0.04224 0.0171-0.11734 0.0267-0.21632 0.0274-0.13795 1e-3 -0.1694-5e-3 -0.34888-0.064-0.32373-0.10704-0.3525-0.11565-0.39082-0.11694-0.0202-3.4e-4 -0.08345-0.0243-0.14057-0.0526-0.05711-0.0282-0.10849-0.0515-0.11417-0.0517-0.0057-1.6e-4 -0.05158 0.0468-0.10201 0.10428-0.05043 0.0575-0.12056 0.12233-0.15583 0.14394-0.20553 0.12595-0.25023 0.1537-0.31673 0.19664-0.04037 0.026-0.09185 0.0628-0.11442 0.0815-0.04257 0.0355-0.18789 0.0824-0.24865 0.0804-0.01917-3.4e-4 -0.04184 5e-3 -0.05041 0.0118-0.0086 7e-3 -0.06635 0.0276-0.12838 0.0456s-0.13831 0.0444-0.16951 0.0587c-0.03119 0.0143-0.17954 0.0486-0.32965 0.0763-0.2682 0.0494-0.27708 0.05-0.51166 0.0321-0.23144-0.0176-0.65987-0.0468-0.70842-0.0482-0.01313-3.2e-4 -0.18016-6e-3 -0.37114-0.0129l-0.34722-0.0122 0.0093 0.0114c0.04866 0.0598-0.0037 0.20108-0.0143 0.27568-0.01576 0.11081-0.02687 0.14331-0.06076 0.17751-0.0228 0.023-0.05801 0.0826-0.07821 0.13234-0.08195 0.2019-0.33058 0.48671-0.59453 0.68105-0.0701 0.0516-0.21812 0.0932-0.32165 0.0904-0.03381-1e-3 -0.11354 0.0103-0.17719 0.025-0.089084 0.0206-0.19579 0.0263-0.46355 0.0249-0.33056-1e-3 -0.35093-4e-3 -0.41047-0.0368zm0.78269-0.0254c0.061926-0.0148 0.17569-0.0416 0.25282-0.0594 0.07712-0.0179 0.17178-0.0495 0.21035-0.0704 0.07255-0.0393 0.38532-0.34267 0.4245-0.41174 0.01219-0.0215 0.03657-0.0566 0.05411-0.078 0.1409-0.17145 0.24068-0.44416 0.24798-0.67779 0.0097-0.31046 0.0028-0.22214-0.02756-0.22316-0.01529-3.4e-4 -0.0344-7e-3 -0.04249-0.0147-0.0081-8e-3 -0.04489-0.0234-0.08179-0.0353-0.10442-0.0335-0.08353-0.0585 0.0374-0.0447l0.10332 0.0118 0.0016-0.054c0.0016-0.0529 0.0031-0.0539 0.07022-0.0517l0.06842 2e-3 -7e-3 0.1666 0.20639 0.0308c0.23398 0.0349 0.47848 0.0444 0.6115 0.0237 0.04963-8e-3 0.16234-0.0233 0.25048-0.0345 0.19597-0.025 0.37974-0.0653 0.46614-0.10204 0.12562-0.0535 0.19463-0.0791 0.24235-0.0899 0.02652-6e-3 0.08815-0.0237 0.13694-0.0393s0.13215-0.039 0.18524-0.052c0.18669-0.0458 0.25808-0.0652 0.32206-0.0877 0.07271-0.0256 0.33857-0.13352 0.38822-0.15764 0.01787-9e-3 0.05796-0.0274 0.08915-0.0416 0.04472-0.0204 0.16152-0.1062 0.33992-0.24975 0.0025-2e-3 -0.03436-0.0257-0.08196-0.0526s-0.08638-0.0544-0.08618-0.0609c9.7e-5 -7e-3 0.02728-0.0113 0.06015-0.0106l0.05979 1e-3 -0.04695-0.0274c-0.02583-0.015-0.05588-0.0409-0.06679-0.0574-0.01093-0.0166-0.02841-0.0304-0.0389-0.0307-0.01888-3.4e-4 -0.10381-0.0876-0.1032-0.10574 1.11e-4 -5e-3 0.02924-8e-3 0.06455-7e-3 0.05347 2e-3 0.07215 0.0118 0.11135 0.0596 0.02592 0.0316 0.05712 0.0578 0.06936 0.0582 0.01228 3.2e-4 0.02201 8e-3 0.02172 0.017-2.33e-4 9e-3 0.02416 0.0291 0.05435 0.0447 0.03018 0.0157 0.05473 0.0335 0.05452 0.0396-9.52e-4 0.0311 0.06392 0.026 0.09781-8e-3 0.02595-0.0258 0.04703-0.0336 0.06978-0.0258 0.04848 0.0167 0.04896 0.0205 0.0077 0.0615-0.03425 0.0341-0.03559 0.0402-0.01395 0.0633 0.01313 0.0141 0.041 0.0262 0.06186 0.0269 0.0209 3.5e-4 0.05151 0.0123 0.06809 0.0257 0.04209 0.0341 0.06043 0.0323 0.11633-0.0116 0.02898-0.0228 0.05902-0.034 0.07395-0.0277 0.01386 6e-3 0.02538 4e-3 0.02567-5e-3 9.52e-4 -0.0283 0.04138-0.0311 0.07264-5e-3 0.02154 0.018 0.02292 0.0225 0.0048 0.0156-0.01629-6e-3 -0.04753 0.0113-0.08611 0.0482l-0.06051 0.058 0.13864 0.0505c0.16018 0.0583 0.24433 0.0643 0.71889 0.051 0.29842-8e-3 0.39767-0.0223 0.20502-0.0287-0.11641-4e-3 -0.36957-0.0492-0.49415-0.0884-0.04342-0.0137-0.11464-0.031-0.15827-0.0385-0.04362-8e-3 -0.09677-0.0286-0.1181-0.0469l-0.03877-0.0332 0.05542 0.0126c0.03047 7e-3 0.11879 0.0258 0.19624 0.042 0.07745 0.0161 0.15765 0.0364 0.17821 0.045 0.06996 0.0294 0.35921 0.075 0.50633 0.0799 0.12047 4e-3 0.16241-1e-3 0.23516-0.0307 0.0487-0.0196 0.12038-0.043 0.1593-0.052 0.12338-0.0284 0.28602-0.11641 0.32578-0.17617 0.01999-0.03 0.07111-0.0918 0.1136-0.13716 0.06756-0.0722 0.16855-0.25855 0.17043-0.31453 2.43e-4 -0.01 0.01711-0.0627 0.03735-0.11802 0.0566-0.15479 0.10378-0.32767 0.11852-0.43431 0.01058-0.0778 0.0061-0.12632-0.02374-0.24811-0.083888-0.3424-0.16314-0.52258-0.30719-0.69852-0.11894-0.14528-0.11637-0.14288-0.26111-0.24386-0.06431-0.0449-0.13786-0.1-0.16343-0.12249-0.10423-0.0917-0.30513-0.18108-0.41528-0.18481-0.07806-2e-3 -0.25895-0.0465-0.37328-0.0906-0.0878-0.0338-0.10306-0.0352-0.21476-0.0195-0.07494 0.0106-0.11897 0.0241-0.11688 0.0358 0.0019 0.0105-0.01433 0.0183-0.03649 0.0175-0.02191-3.5e-4 -0.04008 6e-3 -0.04038 0.0146-6.35e-4 0.0243-0.06889 0.0167-0.1071-0.012-0.03922-0.0295-0.1152-0.0202-0.11635 0.0142-2.43e-4 0.0122-0.0099 0.0219-0.02112 0.0215-0.01124-3.1e-4 -0.03278 0.0129-0.04797 0.0294-0.01519 0.0166-0.05627 0.0368-0.0913 0.045-0.03503 8e-3 -0.08098 0.0281-0.10209 0.0443-0.03551 0.0272-0.03652 0.0314-0.01333 0.0567 0.02251 0.0245 0.02248 0.032-2.18e-4 0.074l-0.02529 0.0467-0.03405-0.0342c-0.01872-0.0188-0.04467-0.0346-0.05765-0.035-0.02996-1e-3 -0.19478 0.15122-0.19577 0.1808-0.0012 0.0375 0.02889 0.0848 0.05448 0.0857 0.01335 3.2e-4 0.0196 8e-3 0.01393 0.0164-0.0057 9e-3 -0.03443 0.0148-0.06381 0.0138-0.04009-1e-3 -0.06331-0.0144-0.09304-0.0522-0.02178-0.0277-0.03933-0.0591-0.03897-0.0697 2.43e-4 -0.0106 0.03833-0.0537 0.08439-0.0957 0.12568-0.11463 0.179-0.19309 0.1592-0.23425-0.01629-0.0339-0.13877-0.16645-0.38705-0.419-0.20275-0.20624-0.43091-0.38853-0.56308-0.44988-0.04764-0.0221-0.18527-0.0914-0.34052-0.17129-0.06902-0.0356-0.17161-0.0806-0.228-0.10014-0.05639-0.0195-0.15562-0.0562-0.22051-0.0814-0.06489-0.0253-0.22491-0.0709-0.3556-0.10142-0.21031-0.0491-0.27102-0.0567-0.52815-0.0657-0.15979-6e-3 -0.34754-4e-3 -0.41722 4e-3s-0.16857 9e-3 -0.21978 2e-3c-0.15781-0.0205-1.2115-0.0884-1.4297-0.0922-0.19203-3e-3 -0.21162-3.4e-4 -0.2833 0.0371-0.042361 0.0224-0.14695 0.0767-0.23242 0.12065-0.085482 0.044-0.1556 0.0855-0.15584 0.0924-1.452e-4 7e-3 -0.052524 0.0141-0.11622 0.0161-0.15459 5e-3 -0.24057 0.0425-0.38221 0.16738-0.064632 0.057-0.11739 0.0999-0.11724 0.0953 1.56e-5 -4e-3 -0.062901 0.0496-0.14013 0.12035-0.14512 0.13298-0.20785 0.23195-0.17159 0.27073 0.012663 0.0135 0.012126 0.0182-0.00188 0.0177-0.010512-3.2e-4 -0.019383 7e-3 -0.019698 0.017-2.432e-4 0.01-0.0185 0.0505-0.040432 0.0907-0.021913 0.0402-0.053152 0.1091-0.069418 0.15309-0.016293 0.044-0.044649 0.10724-0.063059 0.14055-0.018404 0.0333-0.033902 0.0716-0.034394 0.0851-2.426e-4 0.0135-0.011361 0.043-0.024157 0.0656-0.022479 0.0398-0.041113 0.1032-0.082217 0.2797-0.032205 0.13826-0.023873 0.13034 0.055273-0.0512 0.14072-0.32366 0.29335-0.56462 0.43949-0.69384 0.049662-0.0439 0.09489-0.0955 0.10051-0.11458 0.00562-0.0191 0.030784-0.0628 0.055902-0.097 0.044535-0.0607 0.048259-0.0623 0.14874-0.0633 0.056682-3.5e-4 0.12771-0.0115 0.15784-0.0244 0.037547-0.016 0.084175-0.0203 0.14822-0.0134 0.080282 8e-3 0.10115 0.0178 0.14818 0.0666 0.0998 0.10329 0.14343 0.26008 0.16328 0.58683 0.014999 0.24678-0.014806 0.52338-0.070737 0.65673-0.093344 0.22253-0.17095 0.33724-0.32205 0.47597-0.08128 0.0746-0.16038 0.14019-0.17577 0.14569-0.015377 5e-3 -0.068948 0.0553-0.11901 0.11065-0.14833 0.16404-0.16558 0.17099-0.3933 0.15849-0.17925-0.01-0.19664-0.0136-0.24086-0.0521-0.042346-0.0369-0.096314-0.1544-0.094385-0.20556 2.336e-4 -0.0104-0.00701-0.0393-0.016388-0.0644-0.00941-0.025-0.01746-0.0521-0.017933-0.0601-6.35e-4 -8e-3 -0.00969-0.018-0.020555-0.022-0.025985-0.01-0.02608 0.0396-2.435e-4 0.1795 0.011401 0.0618 0.024403 0.16277 0.028918 0.22435 0.00815 0.11048 0.0095 0.11332 0.10371 0.21391 0.052512 0.0561 0.11005 0.10711 0.12786 0.11343 0.018439 7e-3 0.02857 0.0206 0.023487 0.0325-0.00487 0.0115 0.00159 0.0306 0.014899 0.0422 0.021185 0.0188 0.020524 0.0222-6e-3 0.0305-0.016357 5e-3 -0.030311 0.0158-0.030973 0.0237-0.00468 0.0559-0.032032 0.13123-0.049894 0.1374-0.03211 0.0111-0.091038 0.45227-0.14575 1.091-0.046529 0.54325-0.044873 0.57936-0.00786 0.62837 0.26515 0.35118 0.34061 0.444 0.37931 0.46656 0.025318 0.0147 0.056896 0.0398 0.070191 0.0556 0.013322 0.0158 0.031067 0.029 0.039502 0.0293 0.015285 3.5e-4 0.12331 0.0517 0.1978 0.0937 0.072857 0.0411 0.27428 0.11118 0.5599 0.19487 0.15643 0.0459 0.32699 0.0982 0.37904 0.11642 0.26812 0.0937 0.46631 0.0994 0.58817 0.017 0.04834-0.0327 0.18709-0.0543 0.18589-0.029-2.43e-4 8e-3 -0.04622 0.0371-0.10192 0.0655-0.09513 0.0483-0.11228 0.0515-0.28322 0.0524-0.1929 1e-3 -0.34695-0.0233-0.49357-0.0781-0.047672-0.0178-0.23654-0.0772-0.41971-0.13193-0.3112-0.093-0.38887-0.12187-0.55133-0.20472-0.035085-0.0179-0.068588-0.0327-0.07445-0.0329-0.00587-2e-4 -0.044917-0.023-0.086773-0.0508-0.083568-0.0554-0.12317-0.067-0.071909-0.0211 0.017933 0.016 0.040531 0.0453 0.050241 0.065 0.00972 0.0197 0.027689 0.0361 0.039929 0.0366 0.01225 3.2e-4 0.026109 0.0144 0.030784 0.031 0.00468 0.0167 0.028793 0.0351 0.053629 0.0409 0.024818 6e-3 0.05462 0.0205 0.066239 0.0327 0.011652 0.0122 0.045892 0.0331 0.076159 0.0465 0.030277 0.0134 0.061929 0.0328 0.070359 0.0431 0.00846 0.0104 0.040103 0.0293 0.070387 0.0421 0.030278 0.0128 0.060486 0.0329 0.06711 0.0446 0.0066 0.0118 0.021659 0.0216 0.033453 0.022 0.011777 3.2e-4 0.025196 0.0116 0.029775 0.025 0.00458 0.0133 0.01765 0.0245 0.028955 0.0249 0.011306 3.2e-4 0.029049 0.0153 0.039417 0.0332 0.010353 0.0179 0.029269 0.0329 0.041993 0.0333 0.012724 3.2e-4 0.037542 0.0173 0.055138 0.0375 0.07023 0.0806 0.14179 0.0969 0.41956 0.0956 0.17674-1e-3 0.28999-0.01 0.36793-0.0282zm-0.52299-1.0938c-0.018185-0.0164-0.043336-0.0301-0.055898-0.0305-0.035946-1e-3 -0.067704-0.0542-0.065838-0.10996 9.525e-4 -0.0266 0.00672-0.0514 0.013105-0.055 0.00632-4e-3 0.011967-0.0207 0.012533-0.0379 9.525e-4 -0.031 0.017333-0.0491 0.067057-0.0748 0.036065-0.0186 0.13288-0.0136 0.153 8e-3 0.00897 0.01 0.02046 0.0176 0.025514 0.0178 0.016388 3.4e-4 0.065828 0.0965 0.072427 0.14044 0.00767 0.0512-0.013607 0.10457-0.04447 0.11155-0.014899 4e-3 -0.021156 0.0133-0.019825 0.0314 0.00188 0.0246-0.00254 0.0265-0.061288 0.0276-0.054124 1e-3 -0.068038-3e-3 -0.096311-0.0285zm0.1274-1.1468c2.432e-4 -8e-3 0.037378-0.0168 0.082489-0.0206 0.12544-0.0106 0.15881-0.0378 0.16197-0.13208l0.00254-0.0781-0.047498 0.0217c-0.058744 0.0269-0.19778 0.0399-0.23616 0.0221-0.02526-0.0117-0.023929-0.0145 0.011748-0.0241 0.037631-0.0101 0.036856-0.011-0.011993-0.0141-0.068499-5e-3 -0.15421-0.0444-0.17297-0.0807-0.01569-0.0304 0.00878-0.10195 0.034538-0.10108 0.00733 2.7e-4 0.013734-0.01 0.014142-0.0217 2.432e-4 -0.0122 0.012221-0.0262 0.0263-0.031 0.040566-0.014 0.11861-7e-3 0.11802 0.0103-2.14e-4 9e-3 0.00843 0.0164 0.019383 0.017 0.031003 1e-3 0.091607 0.16502 0.066533 0.17938-0.037647 0.0216-0.00594 0.0271 0.044679 8e-3 0.033244-0.0127 0.053483-0.0332 0.05965-0.0605 0.00521-0.0227 0.00254-0.0415-0.00609-0.0418-0.00849-3e-4 -0.010795-0.0114-0.00521-0.0247 0.00584-0.0138 1.707e-4 -0.0284-0.013134-0.0341-0.012787-5e-3 -0.022857-0.0237-0.022291-0.0405 2.435e-4 -0.0169-0.0096-0.0352-0.022574-0.0406-0.012946-5e-3 -0.023334-0.0182-0.022984-0.0282 0.00159-0.0524-0.22023-0.18505-0.28598-0.17088-0.048284 0.0105-0.083388 0.0939-0.089072 0.21186l-0.00423 0.0876-0.067902 2e-3c-0.037348 1e-3 -0.067704-3e-3 -0.067467-0.0104 1.892e-4 -7e-3 -0.031256-0.0115-0.069989-0.01-0.070867 4e-3 -0.11991-0.0265-0.1381-0.0838-0.00388-0.0122-0.013322-0.0167-0.021027-0.01-0.00767 7e-3 -0.00552 0.0248 0.00487 0.0401 0.010417 0.0153 0.022701 0.0405 0.027342 0.056 0.00462 0.0155 0.014774 0.0284 0.022513 0.0286 0.00777 2.7e-4 0.013734 0.0112 0.013293 0.0244-6.35e-4 0.0168-0.017743 0.0233-0.057847 0.022-0.055577-2e-3 -0.056814-3.4e-4 -0.047802 0.0481 0.0071 0.0384 0.00428 0.0482-0.012062 0.0419-0.01171-4e-3 -0.020423-0.0272-0.01932-0.0504 0.00124-0.0242-0.00672-0.0425-0.0185-0.0429-0.011306-3.1e-4 -0.019989-0.0177-0.019291-0.0385 6.35e-4 -0.0208-0.011684-0.07-0.027531-0.10929-0.03886-0.0965-0.04805-0.19183-0.0215-0.223 0.038199-0.0448 0.13153-0.0779 0.23323-0.0827 0.11586-5e-3 0.18866 0.0207 0.20022 0.0719 0.00704 0.0312 0.016293 0.0257 0.092364-0.054 0.08091-0.0849 0.087859-0.0886 0.16182-0.0861 0.047439 1e-3 0.086193 0.0122 0.10038 0.0273 0.012692 0.0136 0.030784 0.025 0.040178 0.0253 0.00938 3.1e-4 0.016859 7e-3 0.016576 0.0159-1.548e-4 8e-3 0.037453 0.0609 0.08385 0.11651 0.046405 0.0556 0.084124 0.10836 0.083831 0.11716-2.177e-4 9e-3 0.023836 0.0448 0.053594 0.0801 0.073093 0.0866 0.1276 0.22665 0.12447 0.31991-0.00283 0.0864-0.043281 0.13344-0.13421 0.15624-0.067653 0.017-0.23843 0.0126-0.2378-6e-3zm-0.038119-0.2907c-0.030531-0.0212-0.05164-0.0219-0.039845-1e-3 0.00511 9e-3 0.021439 0.0166 0.036274 0.0169 0.023238 3.4e-4 0.023741-1e-3 0.00353-0.0156zm-0.43316-0.34806c-0.011843-8e-3 -0.017142-0.0212-0.011777-0.0292 0.013388-0.0201-0.044112-0.0699-0.082148-0.0712-0.053884-2e-3 -0.14553 0.0468-0.14657 0.0778-9.525e-4 0.0256 0.014049 0.0294 0.13053 0.0331 0.081134 2e-3 0.12326-1e-3 0.11-0.0105zm0.38716-0.11894c-0.046583-0.051-0.048513-0.0515-0.08086-0.0242-0.049149 0.0416-0.041914 0.0523 0.041521 0.0617 0.041526 5e-3 0.078104 0.01 0.081293 0.0115 0.00317 1e-3 -0.01569-0.0204-0.041949-0.0491zm5.6842 0.5117c-0.02488-0.0294-0.02507-0.0322-0.0016-0.0223 0.01465 6e-3 0.03916 7e-3 0.05445 1e-3 0.02393-8e-3 0.02463-0.012 0.0048-0.0263-0.0185-0.0135-0.01683-0.0155 0.0088-0.0106 0.04459 9e-3 0.03809 0.0526-0.0085 0.0576-0.02968 3e-3 -0.03352 8e-3 -0.01661 0.0191 0.01215 8e-3 0.01417 0.0148 0.0046 0.0146-0.0096-1.9e-4 -0.03025-0.0154-0.04584-0.0339zm-0.40474-0.0448c-0.01891-0.0131-0.01655-0.0161 0.0125-0.0152 0.01973 3.5e-4 0.03563 8e-3 0.03533 0.0169-6.35e-4 0.02-0.01755 0.0194-0.04781-1e-3zm-2.6984-0.18165c-0.03458-0.0153-0.08041-0.0406-0.10182-0.0562-0.0214-0.0156-0.07254-0.0332-0.11361-0.039-0.05147-7e-3 -0.09862-0.0291-0.1518-0.0701-0.04242-0.0327-0.10771-0.0763-0.14511-0.0968-0.1113-0.0613-0.21613-0.13982-0.21541-0.16141 2.44e-4 -0.0111-6e-3 -0.0204-0.01421-0.0207-0.0082-2.9e-4 -0.01936-0.0168-0.02484-0.0368-0.0055-0.0199-0.01449-0.04-0.01999-0.0446-0.01661-0.0138-0.05971-0.13212-0.08245-0.22614-0.01175-0.0486-0.0275-0.11381-0.03496-0.14478-0.0074-0.031-0.02289-0.11405-0.03429-0.18464-0.0114-0.0706-0.02886-0.17888-0.03881-0.24063-0.03168-0.19664-0.01942-0.32586 0.05103-0.53739 0.03458-0.10386 0.07821-0.21654 0.09694-0.2504 0.01869-0.0339 0.03053-0.0741 0.0262-0.0894-0.0087-0.0309 0.04507-0.0666 0.15034-0.0999 0.061-0.0192 0.29486-0.17459 0.41479-0.27551 0.03323-0.028 0.09721-0.0625 0.14219-0.0768 0.04497-0.0143 0.08196-0.0315 0.08218-0.0382 1.2e-4 -7e-3 -0.04262-0.0136-0.09522-0.0154-0.05312-2e-3 -0.09539-0.0103-0.09509-0.0191 6.35e-4 -0.0201 0.24537-0.013 0.31354 9e-3 0.03496 0.0113 0.05875 0.0104 0.07978-3e-3 0.01648-0.0105 0.05894-0.0272 0.09437-0.037 0.03543-0.01 0.08109-0.0275 0.10146-0.0394 0.02036-0.0118 0.08253-0.0243 0.13813-0.0276 0.1594-9e-3 0.30028 0.0519 0.46589 0.20296 0.04683 0.0427 0.14106 0.12333 0.2094 0.17911 0.30417 0.24827 0.48394 0.43586 0.54724 0.57101 0.0346 0.0739 0.07971 0.25476 0.09091 0.36457 0.0075 0.0739-0.01853 0.24097-0.05415 0.3468-0.04563 0.1356-0.21492 0.44559-0.30646 0.5612-0.11088 0.14003-0.33924 0.3356-0.49467 0.42365-0.03063 0.0174-0.08449 0.0496-0.11973 0.0716-0.09268 0.058-0.28184 0.0999-0.42836 0.095-0.07329-2e-3 -0.14646 5e-3 -0.18103 0.0178-0.07422 0.0281-0.17248 0.0235-0.25243-0.0119zm0.16857-0.0308c0.02172-0.013 0.02178-0.0148 6.35e-4 -0.0164-0.01313-1e-3 -0.05417-9e-3 -0.09117-0.0171-0.07935-0.0181-0.09015-2e-3 -0.01676 0.0244 0.06917 0.0253 0.07907 0.0262 0.10739 9e-3zm0.42229-0.0352c0.17115-0.0443 0.16306-0.0579-0.01332-0.0225-0.08517 0.0171-0.15932 0.0353-0.16478 0.0404-0.02084 0.0195 0.06827 0.0105 0.17808-0.0178zm-0.30449-0.0192c-0.01061-5e-3 -0.03214-6e-3 -0.04779-2e-3 -0.01566 4e-3 -0.0069 7e-3 0.01936 9e-3 0.0263 1e-3 0.03908-1e-3 0.02844-6e-3zm0.18084-0.0489c0.03538-8e-3 0.08616-0.0238 0.11284-0.0343s0.06303-0.0241 0.08079-0.0303c0.04277-0.0149-0.12088-0.0463-0.19246-0.037-0.04804 6e-3 -0.24811 0.09-0.24857 0.10408-2.44e-4 0.014 0.18575 0.012 0.2474-2e-3zm-0.26886-0.0712c0.05736-0.0256 0.08414-0.0442 0.06535-0.0455-0.01749-1e-3 -0.10451-0.0145-0.19333-0.0294-0.18074-0.0304-0.29224-0.0807-0.31839-0.14358-0.0092-0.0223-0.02109-0.0365-0.02627-0.0317-0.01131 0.0106 0.03748 0.0863 0.08812 0.13677 0.04487 0.0448 0.23076 0.15476 0.26342 0.15589 0.01313 3.2e-4 0.06764-0.0187 0.12109-0.0425zm0.72693-0.0961c0.04145-0.021 0.09747-0.0553 0.12449-0.076l0.04913-0.0378-0.113 0.0393c-0.06216 0.0216-0.1745 0.0529-0.24965 0.0695-0.15014 0.0331-0.14135 0.0538 0.02008 0.0471 0.05977-2e-3 0.12081-0.0177 0.16895-0.0422zm-0.62509-0.0202c0.0064-0.0152 0.03135-0.0229 0.07007-0.0216 0.03429 1e-3 0.06907-8e-3 0.08099-0.0215 0.01149-0.0129 0.04721-0.0347 0.07937-0.0484s0.15479-0.0919 0.27251-0.17383c0.16755-0.11658 0.23335-0.17345 0.30297-0.26186 0.04892-0.0621 0.1172-0.14508 0.15175-0.18436l0.06281-0.0714-0.0081-0.22192c-0.01144-0.31289-0.05323-0.56706-0.11556-0.70285-0.04429-0.0965-0.16314-0.234-0.27109-0.31365-0.04374-0.0323-0.09354-0.0691-0.11066-0.0819-0.01714-0.0128-0.04889-0.0291-0.07059-0.0363-0.02794-9e-3 0.0055 0.0358 0.1145 0.1541 0.14019 0.1522 0.20049 0.24562 0.24109 0.37348 0.0048 0.0152 0.01263 0.0367 0.01737 0.0479 0.0061 0.0143-0.0095 0.0196-0.05377 0.0181-0.0685-2e-3 -0.05966 9e-3 -0.13986-0.1858-0.04754-0.11575-0.20375-0.3072-0.32304-0.39594-0.05272-0.0392-0.07069-0.0434-0.18324-0.043l-0.12479 3.4e-4 0.15049 0.10654c0.08277 0.0586 0.17082 0.12617 0.19565 0.15016 0.02484 0.024 0.06675 0.0623 0.09312 0.0851 0.02636 0.0228 0.07691 0.073 0.11231 0.11147 0.03539 0.0385 0.07395 0.0703 0.08567 0.0707 0.01175 3.2e-4 0.02109 8e-3 0.02077 0.0167-9.52e-4 0.0268-0.12211 0.0144-0.14472-0.0148-0.04779-0.0617-0.29681-0.2742-0.45178-0.38556l-0.16711-0.12008-0.10136 0.0371c-0.08523 0.0312-0.11734 0.0549-0.20173 0.1489-0.056 0.0624-0.13333 0.17414-0.17494 0.25287-0.06885 0.13027-0.07494 0.1509-0.07926 0.26859-0.0025 0.0701 0.0025 0.178 0.01127 0.23972 0.0088 0.0617 0.02763 0.1916 0.04189 0.28861 0.01427 0.097 0.02522 0.19205 0.02437 0.21121-6.35e-4 0.0192 0.01721 0.12745 0.04012 0.24064 0.03528 0.17424 0.04911 0.21402 0.09017 0.25934 0.02668 0.0294 0.05689 0.0538 0.06714 0.0541 0.01023 3.2e-4 0.03858 0.0174 0.06296 0.038 0.12045 0.1016 0.30943 0.16466 0.33218 0.11085zm-0.8184-0.046c-0.01079-5e-3 -0.01942-0.0156-0.01913-0.024 6.35e-4 -0.0144-0.01194-0.0334-0.05692-0.0871-0.01054-0.0126-0.01894-0.0302-0.01863-0.0392 2.43e-4 -9e-3 -0.0094-0.0223-0.02154-0.0298-0.01215-7e-3 -0.03926-0.05-0.06024-0.0946-0.04638-0.0985-0.05238-0.0756-0.0086 0.0331 0.04808 0.11935 0.11597 0.23093 0.14598 0.23991 0.03719 0.0111 0.063 0.0122 0.0391 1e-3zm1.4103-0.0444c0.08836-0.0295 0.20902-0.0843 0.26812-0.12183 0.09888-0.0628 0.10913-0.0745 0.12861-0.14766 0.01165-0.0437 0.02254-0.1237 0.02397-0.17785 0.0025-0.0808-6.35e-4 -0.0928-0.01595-0.0671-0.01032 0.0172-0.06296 0.0783-0.11696 0.13569-0.06254 0.0665-0.08906 0.10472-0.07307 0.10525 0.01449 3.5e-4 0.02466 0.0143 0.02406 0.0327-6.35e-4 0.0245-0.01171 0.0315-0.04703 0.0303-0.0334-1e-3 -0.06229 0.0154-0.10569 0.0603-0.03285 0.034-0.07073 0.0615-0.08418 0.061-0.01345-3.1e-4 -0.02895 0.01-0.03442 0.0228-0.0055 0.013-0.01995 0.0233-0.03218 0.0229-0.01222-3.1e-4 -0.02238 5e-3 -0.02264 0.0122-6.35e-4 0.0159-0.10589 0.0632-0.13825 0.0621-0.01285-3.1e-4 -0.02355 6e-3 -0.02386 0.0152-2.12e-4 9e-3 -0.01086 0.0156-0.02352 0.0152-0.0126-3.1e-4 -0.02721 6e-3 -0.03242 0.0134-0.01335 0.0201 0.11731-0.0118 0.30546-0.0746zm-1.2474 0.0322c-0.02021-0.015-0.11324-0.16038-0.11271-0.17619 6.35e-4 -0.0225-0.06469-0.15263-0.07698-0.15304-0.01617-3.4e-4 -0.0049 0.0311 0.05721 0.16131 0.05296 0.11092 0.10312 0.1793 0.13192 0.17986 0.01209 2.2e-4 0.01228-4e-3 6.35e-4 -0.012zm0.03264-0.17268c-0.01667-0.0343-0.03078-0.0563-0.03141-0.0488-0.0016 0.0212 0.04631 0.12559 0.05443 0.118 4e-3 -4e-3 -0.0064-0.0349-0.02302-0.0692zm-0.48599-0.71186c0.0025-0.0372 0.0069-0.17887 0.0092-0.31481 5e-3 -0.28409 0.03325-0.39517 0.13671-0.53832 0.03205-0.0444 0.05849-0.0871 0.05876-0.095 2.43e-4 -8e-3 0.03235-0.0133 0.0713-0.012 0.07468 2e-3 0.12171-0.0337 0.12377-0.0953 9.53e-4 -0.0259-0.0042-0.0254-0.05584 6e-3 -0.03122 0.0188-0.05718 0.0431-0.05766 0.0541-6.35e-4 0.0113-0.02077 0.0192-0.04673 0.0184-0.02522-1e-3 -0.05511 9e-3 -0.06641 0.0216-0.08726 0.0983-0.22397 0.49277-0.22985 0.66327-0.0045 0.1314 0.01995 0.35895 0.03868 0.35958 0.0072 2.6e-4 0.01538-0.03 0.01806-0.0672zm2.3928-0.15514 0.0016-0.0877-0.01509 0.0872c-0.0084 0.048-0.01588 0.11595-0.01693 0.15101l-0.0019 0.0638 0.01534-0.0633c0.0084-0.0348 0.01591-0.10279 0.01693-0.15101zm-2.1466-0.63838c2.12e-4 -9e-3 -0.01032 1e-3 -0.02355 0.0231-0.01326 0.0215-0.02434 0.0463-0.02463 0.055-2.12e-4 9e-3 0.01032-1e-3 0.02355-0.0231 0.01326-0.0215 0.02434-0.0463 0.02463-0.055zm1.9598 0.11661c6.35e-4 -0.0114-0.0094-0.0352-0.02169-0.0526-0.02023-0.0287-0.02074-0.0267-0.0054 0.0207 0.0185 0.0564 0.02576 0.065 0.02687 0.0319zm-0.08991-0.1736c-0.0088-0.0179-0.01957-0.0326-0.02397-0.0327-0.0044-1.6e-4 -6.35e-4 0.0144 0.0081 0.0322 0.0088 0.0179 0.01957 0.0326 0.02396 0.0327 0.0044 1.6e-4 6.35e-4 -0.0144-0.0081-0.0322zm-1.3464-0.42176c-0.01077-0.0115-0.05981 9e-3 -0.06036 0.0258-1.11e-4 8e-3 0.01471 7e-3 0.03334-2e-3 0.01859-9e-3 0.03078-0.0199 0.02702-0.024zm1.0481 0.045c-0.07294-0.0862-0.31126-0.20891-0.46742-0.2406-0.06385-0.0129-0.08754-0.01-0.1493 0.0188l-0.0734 0.0342 0.13962 0.032c0.13499 0.031 0.34295 0.10203 0.40728 0.13916 0.03193 0.0185 0.10824 0.0424 0.1485 0.0468 0.01677 2e-3 0.01544-6e-3 -0.0053-0.0303zm-0.61854-0.0781c-0.10665-0.0477-0.14644-0.052-0.19112-0.0205-0.01746 0.0124-0.0232 0.0226-0.01276 0.023 0.01045 3.2e-4 0.01866 0.01 0.01828 0.0205-6.35e-4 0.0148 0.035 0.0197 0.13897 0.0193l0.13967-3.4e-4zm-0.33487-0.0442c0.02706-0.0217 0.03832-0.0365 0.02501-0.0328-0.08881 0.0248-0.14519 0.0473-0.14556 0.0582-9.52e-4 0.0277 0.07404 0.0118 0.12052-0.0255zm1.0203 3.9757c0.14746-0.0269 0.29364-0.0605 0.32483-0.0748 0.06051-0.0276 0.29804-0.099 0.46292-0.13919 0.07436-0.0181 0.13566-0.05 0.23862-0.12403 0.0762-0.0548 0.17732-0.1199 0.22472-0.14464 0.07571-0.0395 0.37408-0.30431 0.37504-0.33283 2.34e-4 -6e-3 -0.03265-0.0281-0.073-0.0493l-0.07336-0.0386-0.042 0.0508c-0.02308 0.028-0.08435 0.0812-0.13611 0.11837-0.09556 0.0686-0.53818 0.27996-0.62328 0.29768-0.02561 5e-3 -0.0859 0.0289-0.13399 0.0523-0.08262 0.0402-0.19505 0.0549-0.19407 0.0254 2.4e-4 -7e-3 0.02993-0.0256 0.06595-0.0404 0.08116-0.0334 0.10356-0.0608 0.03912-0.048-0.12307 0.0246-0.46378 0.12097-0.56664 0.16034-0.0331 0.0127-0.08931 0.0353-0.12492 0.0502-0.08673 0.0364-0.27084 0.0768-0.46614 0.10222-0.08814 0.0115-0.1951 0.0267-0.23769 0.0337s-0.11098 0.0122-0.15197 0.0114c-0.1337-2e-3 -0.02384 0.0276 0.12374 0.0339 0.2377 0.0101 0.51172-0.0175 0.87254-0.0879 0.053-0.0103 0.16662-0.0313 0.2525-0.0466s0.17351-0.0383 0.19475-0.0513c0.02125-0.0129 0.08131-0.033 0.1335-0.0447 0.05219-0.0116 0.12584-0.0342 0.16367-0.0501 0.29904-0.12575 0.47992-0.19066 0.52689-0.18908 0.0741 2e-3 0.03871 0.0377-0.0818 0.0814-0.06147 0.0223-0.1336 0.0498-0.16031 0.0611-0.14615 0.0618-0.2357 0.0952-0.31508 0.11759-0.04872 0.0138-0.125 0.0401-0.1695 0.0586s-0.13866 0.0432-0.20926 0.0549c-0.0706 0.0118-0.17534 0.0305-0.23276 0.0417-0.36274 0.0707-0.62264 0.0976-0.88864 0.0923-0.12382-2e-3 -0.13373-1e-3 -0.07221 0.0122 0.03921 8e-3 0.11803 0.0133 0.17514 0.0112 0.05711-2e-3 0.17535 5e-3 0.26274 0.0159 0.0874 0.0108 0.17894 0.0214 0.20344 0.0234s0.16518-0.0183 0.31265-0.0451zm-1.2332-0.0292c-0.02437-0.0236-0.2734-0.0593-0.45574-0.0654-0.1383-5e-3 -0.17148-1e-3 -0.1721 0.0171-2.43e-4 0.0139 0.01955 0.0261 0.05081 0.0311 0.10434 0.0165 0.59132 0.031 0.57703 0.0171zm-0.55761-0.11117c-0.01061-5e-3 -0.03214-6e-3 -0.04779-2e-3 -0.01566 4e-3 -0.0069 7e-3 0.01936 9e-3 0.0263 1e-3 0.03908-1e-3 0.02844-6e-3zm2.4489-0.35739c0.03126-0.0158 0.0423-0.0242 0.02453-0.0187-0.16243 0.0503-0.22067 0.0761-0.12953 0.0573 0.02649-6e-3 0.07373-0.0228 0.10498-0.0386zm2.2218-0.0642c0.0819-0.0307 0.16962-0.0488 0.27937-0.0576 0.12655-0.0101 0.18715-0.0243 0.28996-0.0678 0.1118-0.0473 0.14172-0.069 0.21393-0.15465 0.10097-0.11977 0.12663-0.15819 0.08052-0.12056-0.06032 0.0492-0.24209 0.1154-0.37001 0.13467-0.07056 0.0106-0.16071 0.0263-0.20033 0.0347-0.0972 0.0207-0.57658 0.0348-0.87072 0.0256-0.20662-6e-3 -0.25448-0.013-0.3525-0.048-0.09219-0.0329-0.12006-0.0373-0.14893-0.023-0.03383 0.0167-0.03161 0.0198 0.04669 0.0661 0.09426 0.0557 0.14575 0.0752 0.26802 0.10112 0.04793 0.0102 0.17582 0.0505 0.2842 0.0895 0.2337 0.0842 0.30112 0.087 0.4798 0.0199zm-1.1605-0.31386c0.02198-0.0206-0.08256-0.0865-0.16886-0.10651-0.04994-0.0116-0.04695-7e-3 0.03943 0.0545 0.10608 0.076 0.10448 0.0754 0.12943 0.052zm-6.7461-0.75473c-0.024466-0.0534-0.045052-0.0773-0.067189-0.078-0.026775-1e-3 -0.030436 6e-3 -0.022638 0.0431 0.00505 0.0243 0.026363 0.0789 0.04727 0.12131l0.03803 0.0771 0.019923-0.0433c0.016923-0.0368 0.014616-0.0548-0.015341-0.12024zm-0.070432-0.19384c-0.00562-0.0199-0.021659-0.0858-0.035652-0.14627-0.031894-0.13784-0.039621-0.1466-0.03524-0.0399 0.00796 0.19439 0.013607 0.2202 0.048344 0.22137 0.026741 1e-3 0.030878-6e-3 0.022543-0.0352zm9.4029 0.16326c0.06921-0.13087 0.11882-0.26799 0.11821-0.32677l-2.43e-4 -0.0319-0.01228 0.0315c-0.0186 0.0477-0.10134 0.2125-0.13898 0.27674-0.01831 0.0313-0.03415 0.0739-0.03517 0.0946-9.53e-4 0.0207-0.01269 0.0552-0.02592 0.0767-0.01326 0.0215-0.02437 0.0463-0.02469 0.055-0.0012 0.0301 0.05067-0.0463 0.11918-0.17586zm-9.0632-0.54666c-0.00881-0.0179-0.032232-0.033-0.052085-0.0337-0.019857-3.4e-4 -0.044415-0.0101-0.054579-0.021-0.026616-0.0284-0.023778 5e-3 0.00413 0.0477 0.015444 0.0237 0.040109 0.0368 0.071095 0.0378 0.04253 1e-3 0.045807-2e-3 0.031479-0.0308zm0.3014-0.0522c0.056293-0.0713 0.022259-0.0592-0.061721 0.0221-0.066504 0.0643-0.068878 0.069-0.024881 0.0486 0.026741-0.0124 0.065718-0.0442 0.086609-0.0707zm-0.14785-7e-3c0.029333-0.0303 0.028917-0.0309-0.020934-0.0326-0.045907-1e-3 -0.049289 1e-3 -0.034857 0.0307 0.00881 0.0179 0.018217 0.0325 0.020934 0.0326 0.00283 8e-5 0.018404-0.0137 0.034856-0.0307zm0.11923-0.12506c0.034419-0.0347 0.069345-0.0748 0.077608-0.0891 0.00827-0.0143 0.030625-0.0434 0.049731-0.0647 0.0191-0.0213-0.0022-7e-3 -0.047155 0.0328-0.088794 0.0776-0.19224 0.13436-0.24327 0.13355-0.028766-3.5e-4 -0.028037 2e-3 0.00695 0.0236 0.061496 0.0379 0.089072 0.0316 0.15613-0.0361zm-0.34718 0.0234c2.431e-4 -8e-3 -0.010702-0.0189-0.024408-0.0248-0.038487-0.0163-0.043744-0.0132-0.023109 0.0135 0.021122 0.0273 0.046752 0.0333 0.047489 0.0113zm9.2517 0.0771c-8e-3 -0.0793-0.0298-0.19757-0.04861-0.26294-0.01882-0.0654-0.03396-0.12564-0.03368-0.13391 1.29e-4 -8e-3 -0.0098-0.0261-0.02242-0.0395-0.02027-0.0216-0.02204-0.0184-0.01544 0.0285 0.0041 0.0292 0.01279 0.0748 0.01932 0.1013 0.0065 0.0266 0.02071 0.12036 0.03157 0.20848 0.01083 0.0881 0.03088 0.19959 0.04454 0.24769 0.02226 0.0784 0.02557 0.0826 0.03198 0.041 0.0039-0.0256 6.35e-4 -0.11135-0.0073-0.19059zm-9.2951-0.18636c-0.00903-0.0165-0.026173-0.0591-0.038149-0.0946-0.012002-0.0355-0.018754-0.0465-0.015057-0.0244 0.00368 0.0221 0.00606 0.0629 0.00524 0.0907-9.525e-4 0.0351 0.00701 0.0528 0.026204 0.0578 0.037647 0.01 0.040785 5e-3 0.021754-0.0295zm0.31673-0.0197c0.092826-0.065 0.16315-0.14305 0.35376-0.39246 0.10601-0.13872 0.13699-0.20376 0.17471-0.36683 0.041302-0.17862 0.065222-0.63829 0.036075-0.69362-0.043534-0.0826-0.14198-0.0779-0.26963 0.0128-0.057894 0.0412-0.215 0.31873-0.43366 0.76616l-0.11508 0.23547 0.010324 0.12859c0.018912 0.2359 0.062652 0.37647 0.11767 0.37832 0.014811 3.2e-4 0.071407-0.0303 0.12584-0.0685zm-0.74803 3e-3c6.35e-4 -0.0285-0.050996-0.0516-0.28275-0.12633-0.10225-0.033-0.10247-0.033-0.063814-3.2e-4 0.021344 0.0179 0.04907 0.042 0.061623 0.0534 0.025889 0.0235 0.214 0.0964 0.25637 0.0993 0.016388 1e-3 0.028162-0.01 0.02857-0.0259zm0.057549-0.3411c0.069535-0.39216 0.13116-0.67422 0.21193-0.9699 0.062993-0.23063 0.09681-0.31737 0.17514-0.44916 0.029144-0.049 0.06586-0.13002 0.066409-0.14646 9.525e-4 -0.032-0.11774 0.0886-0.16845 0.17096-0.045474 0.0739-0.055933 0.0819-0.10503 0.0803l-0.054528-2e-3 0.041918-0.0744c0.048016-0.0852 0.13915-0.18207 0.2297-0.24414 0.034315-0.0235 0.0811-0.0768 0.10396-0.1184 0.022826-0.0416 0.048617-0.0754 0.057234-0.0751 0.00862 2.9e-4 0.015973-9e-3 0.016388-0.0205 6.35e-4 -0.0115 0.025479-0.0484 0.055779-0.0819 0.06717-0.0742 0.086505-0.11565 0.054487-0.11673-0.016735-3.4e-4 -0.020177-0.0129-0.012472-0.0456 0.00833-0.0354 9.525e-4 -0.055-0.034419-0.0929-0.070697-0.0756-0.21231-0.14151-0.33861-0.15763-0.071022-9e-3 -0.079878-6e-3 -0.13321 0.047-0.032866 0.0326-0.057686 0.0731-0.058434 0.0953-0.00124 0.0335-0.00881 0.0385-0.056135 0.0368-0.072061-2e-3 -0.079446-0.0202-0.036414-0.0879 0.033095-0.052 0.03349-0.0553 0.00565-0.0465-0.016417 5e-3 -0.040964 0.0184-0.054488 0.0291-0.013541 0.0107-0.057363 0.0335-0.097431 0.0506-0.040059 0.017-0.091121 0.041-0.11347 0.0531-0.022323 0.0122-0.12098 0.0621-0.2192 0.11092-0.13674 0.068-0.19664 0.10836-0.25573 0.17234-0.10841 0.11738-0.21388 0.2736-0.2154 0.31906-6.35e-4 0.0211-9e-3 0.0518-0.0185 0.0681-0.02434 0.042-0.07221 0.27712-0.07574 0.37194-0.0078 0.20933 0.09015 0.59398 0.20365 0.7999 0.02927 0.0531 0.05308 0.10023 0.05293 0.10475-2.43e-4 0.0169 0.10015 0.16196 0.14751 0.2125 0.02702 0.0288 0.072544 0.0636 0.10113 0.0772 0.21078 0.10034 0.28923 0.13278 0.32558 0.13462 0.02295 1e-3 0.062932 0.0127 0.088825 0.0256 0.025889 0.0129 0.050809 0.0242 0.055371 0.0251 0.00458 1e-3 0.02886-0.11441 0.054001-0.25617zm1.2143 0.18909c0.1192-0.1547 0.23771-0.40279 0.2592-0.54259 0.01089-0.0707 0.00565-0.0627-0.047284 0.0729-0.032707 0.0838-0.11024 0.24094-0.17227 0.34925-0.062033 0.1083-0.10968 0.19702-0.10588 0.19715 0.00378 1.4e-4 0.033598-0.0344 0.066226-0.0768zm-2.0715-0.37002c-0.01869-0.0339-0.04255-0.0759-0.05296-0.0935-0.03419-0.0577-0.12004-0.25718-0.14474-0.3363-0.01332-0.0427-0.02721-0.0748-0.03091-0.0713-0.0037 3e-3 0.0033 0.0326 0.01547 0.0648 0.01219 0.0322 0.02198 0.0713 0.02172 0.087-1.08e-4 0.0157 0.01597 0.0649 0.03608 0.10942 0.02008 0.0446 0.03619 0.0931 0.03577 0.10796-2.24e-4 0.0148 0.0054 0.0311 0.01301 0.0362 0.0076 5e-3 0.02794 0.0421 0.04519 0.0822 0.02188 0.051 0.04108 0.0734 0.06339 0.0741 0.03132 1e-3 0.03129-2.3e-4 -0.0019-0.0605zm10.186-9e-3c-0.01-3e-3 -0.01838-0.0151-0.01866-0.0254-2.44e-4 -0.0103-0.02529-0.0407-0.05554-0.0677l-0.05502-0.049 0.06609 0.0948c0.03792 0.0544 0.06932 0.0861 0.07367 0.0744 0.0043-0.0112-6.35e-4 -0.0235-0.01051-0.0272zm-0.2467-0.26538c-0.04565-0.0438-0.13325-0.10795-0.19467-0.14268-0.12239-0.0692-0.09607-0.0364 0.04427 0.0553 0.04874 0.0318 0.1176 0.0825 0.15302 0.11268 0.09442 0.0804 0.09296 0.0663-0.0025-0.0253zm-10.19-0.3936c-0.0046-0.0129-0.0086-9e-3 -0.0099 9e-3 -0.0012 0.0168 0.0022 0.0264 0.0077 0.0212 0.0055-5e-3 0.0065-0.0189 0.0022-0.0305zm10.266 0.32489c-0.01493-0.0122-0.0269-0.0305-0.02655-0.0408 2.11e-4 -0.0103-0.01-0.0231-0.02298-0.0286-0.01295-5e-3 -0.02333-0.0182-0.02302-0.0282 1.74e-4 -0.0101-0.02042-0.0333-0.04609-0.0517s-0.04651-0.0383-0.04633-0.0443c2.43e-4 -0.0125-0.16555-0.14993-0.21672-0.17956-0.01888-0.0109-0.04648-0.0329-0.06132-0.0487-0.09228-0.0987-0.27805-0.13678-0.77804-0.15956-0.20917-0.01-0.27933-7e-3 -0.34345 0.0119-0.07949 0.0236-0.07982 0.0239-0.02484 0.0271 0.08452 5e-3 0.24022 0.0509 0.33412 0.0988 0.05202 0.0266 0.16054 0.0577 0.28527 0.0819 0.11072 0.0214 0.23193 0.0505 0.26936 0.0646s0.10709 0.0352 0.15482 0.0469c0.16616 0.0406 0.40971 0.14507 0.4087 0.17537-1.7e-4 7e-3 0.01035 0.0131 0.02358 0.0136 0.0132 3.2e-4 0.039 0.0192 0.05732 0.0418 0.01831 0.0226 0.04457 0.0411 0.05834 0.0413 0.02134 2.9e-4 0.02106-3e-3 -0.0022-0.0218zm-1.9635-0.47901c0.06718-0.0301 0.06763-0.0309 0.04619-0.076-0.05341-0.11236-0.3585-0.38984-0.45945-0.41787-0.0239-7e-3 -0.04313-0.0224-0.04271-0.0349 2.43e-4 -0.0126-0.0087-0.0289-0.02014-0.0362-0.01149-7e-3 -0.02706-0.0255-0.03456-0.0401-0.02242-0.0437-0.36627-0.31322-0.4011-0.31439-0.0065-2e-4 0.01692 0.0437 0.05207 0.0975 0.05238 0.0803 0.07197 0.0982 0.10882 0.0994 0.04603 1e-3 0.08722 0.0521 0.06709 0.0824-0.02267 0.0341-0.19887-5e-3 -0.19792-0.0444 1.83e-4 -0.0101-0.02204-0.0418-0.0495-0.0703-0.02747-0.0285-0.0804-0.10734-0.11762-0.17501-0.03722-0.0677-0.07594-0.12352-0.08605-0.12412-0.0101-3.4e-4 -0.06052-0.0268-0.11203-0.0582-0.09707-0.0592-0.26876-0.12632-0.59381-0.23202-0.32613-0.10606-0.34384-0.11082-0.49289-0.13276-0.08008-0.0118-0.15506-0.0242-0.16662-0.0275-0.01156-3e-3 -0.01573-3e-3 -0.0093 1e-3 0.0065 4e-3 0.01149 0.0144 0.01121 0.0233-2.36e-4 0.0105-0.02756 0.011-0.07585 1e-3 -0.12779-0.0246-0.51271-0.0293-0.65791-8e-3 -0.24462 0.0358-0.83169 0.0593-0.83081 0.0332 9.53e-4 -0.0253 0.04611-0.0327 0.18181-0.03 0.07164 1e-3 0.17347-2e-3 0.22631-7e-3 0.15858-0.0165-0.34546-0.0127-0.62476 4e-3 -0.13667 8e-3 -0.27109 0.0136-0.29872 0.0114-0.03414-3e-3 -0.12254 0.0299-0.2759 0.10204-0.12412 0.0583-0.23704 0.10697-0.25094 0.10806-0.074113 6e-3 0.61317 0.0576 1.5266 0.11497 0.02191 1e-3 0.162-1e-3 0.31134-6e-3 0.48184-0.0151 0.93506 0.0507 1.2782 0.18573 0.07362 0.029 0.16939 0.0637 0.21282 0.0772 0.06488 0.0202 0.46917 0.21921 0.579 0.28509 0.01623 0.01 0.05495 0.0329 0.08603 0.0516 0.13111 0.0785 0.36009 0.28119 0.58588 0.51849l0.2414 0.25371 0.10796-0.0928c0.05938-0.0511 0.1385-0.10651 0.17581-0.12325zm-5.7182-0.10651c-0.017018-0.10488-0.076181-0.26598-0.11452-0.31178-0.027153-0.0324-0.11453-0.0412-0.14319-0.0144-0.014174 0.0133-0.00363 0.0295 0.042863 0.0656 0.055571 0.0432 0.10076 0.12293 0.13987 0.24689 0.011115 0.0352 0.075126 0.12276 0.084279 0.11528 0.00348-3e-3 -6.35e-4 -0.0486-0.00931-0.10162zm5.8654 0.17448c-0.01187-0.0127-0.02406-0.0108-0.04272 7e-3 -0.02387 0.0223-0.02242 0.0239 0.01661 0.0178 0.03053-5e-3 0.03799-0.0117 0.02614-0.0244zm0.33117-1e-3c0.06549-9e-3 0.09579-0.0194 0.08201-0.0277-0.0508-0.0306-0.21921-0.0698-0.26661-0.062l-0.05087 8e-3 0.0422 0.0471c0.04784 0.0534 0.05131 0.054 0.19327 0.0342zm-6.5128-0.32042c-0.055005-0.0435-0.081892-0.0411-0.10715 0.01-0.016671 0.0335-0.014711 0.0344 0.069589 0.0318l0.086735-2e-3zm-0.13278-0.12172c0.024686-0.0255 0.025165-0.0302 0.00398-0.0392-0.02081-9e-3 -0.057708 0.0278-0.058725 0.0582-6.35e-4 0.0187 0.027655 9e-3 0.054696-0.019zm-0.031131-0.46829c0.022667-9e-3 0.041451-0.0241 0.041735-0.0327 9.525e-4 -0.03-0.032393-0.13999-0.04264-0.14033-0.020272-3.5e-4 -0.073604 0.0444-0.05391 0.0455 0.024844 1e-3 0.024371 0.0526-6.35e-4 0.076-0.010261 0.01-0.014711 0.0289-0.00991 0.0428 0.010448 0.0303 0.012756 0.0306 0.065405 9e-3zm0.3491-0.15808c9.525e-4 -0.031-0.038497-0.1-0.05779-0.10073-0.011684-3.2e-4 -0.018817 4e-3 -0.01582 0.0113 0.035051 0.0785 0.048478 0.10135 0.059804 0.10172 0.00735 2.5e-4 0.013547-5e-3 0.01383-0.0123zm-0.40442-0.0965c0.054469 2e-3 0.058384-3.4e-4 0.039477-0.0251-0.050807-0.0657-0.27491-0.25043-0.33604-0.27699-0.078795-0.0343-0.16088-0.0396-0.25044-0.0162l-0.064382 0.0168 0.047623 0.0105c0.09567 0.021 0.27909 0.11541 0.33436 0.172 0.071486 0.0732 0.11028 0.12619 0.1095 0.1496-2.434e-4 0.0107 0.011806 8e-3 0.029427-7e-3 0.01683-0.0142 0.056594-0.0245 0.090492-0.0234zm0.22284 0.0394c-0.00512-9e-3 -0.028634-0.0164-0.052243-0.0166-0.038333-2.6e-4 -0.039566 1e-3 -0.01152 0.0145 0.043634 0.0205 0.074867 0.0216 0.063751 2e-3zm0.43248-0.05c0.10976-0.058 0.091673-0.0693-0.034658-0.0218-0.028607 0.0107-0.069491 0.019-0.090865 0.0183-0.031037-1e-3 -0.037398 5e-3 -0.0316 0.0308 0.010012 0.0444 0.026899 0.0414 0.15712-0.0274zm-0.48563-0.0304c1.169e-4 -8e-3 -0.018783-0.0292-0.042312-0.0466-0.080206-0.0596-0.089814-0.0594-0.036781 3.4e-4 0.052627 0.0596 0.078138 0.0745 0.079095 0.046zm2.1833-0.39857c0.19764-5e-3 0.42074-0.0208 0.49577-0.0341l0.13644-0.0243-0.15902-0.0162c-0.08746-9e-3 -0.20944-0.0114-0.27105-6e-3 -0.06162 6e-3 -0.15867 9e-3 -0.21566 8e-3s-0.13771 6e-3 -0.17938 0.0174c-0.04167 0.0111-0.13553 0.0268-0.20859 0.0347-0.17171 0.0187-0.22195 0.045-0.06974 0.0365 0.06154-3e-3 0.2736-0.0107 0.47123-0.016zm0.59771 0.019c0.07058-0.0114 0.24686-0.0223 0.39173-0.0243 0.17379-2e-3 0.21838-6e-3 0.13107-0.0105-0.07278-4e-3 -0.16486-0.0163-0.20464-0.0277-0.05724-0.0165-0.0845-0.0168-0.13068-1e-3 -0.03209 0.0107-0.13778 0.0326-0.23485 0.0487s-0.155 0.0307-0.12874 0.0325c0.02627 2e-3 0.10551-6e-3 0.1761-0.0173zm-3.9584 3.61c2.148e-4 -9e-3 0.00767-0.0157 0.016481-0.0154 0.00878 3.1e-4 0.015692 8e-3 0.015409 0.0165-2.151e-4 9e-3 -0.0077 0.0157-0.016481 0.0154-0.00878-3.2e-4 -0.01569-8e-3 -0.015375-0.0165z" fill="#ccc" stroke-width=".015947"/>
   </g>
   <g transform="translate(17.198,-140.9)" fill="#666" stroke="#666" stroke-width=".3175">
    <path d="m-5.2917 209.85v0.76018"/>
    <path d="m-5.2917 219.61v-0.76019"/>
    <path d="m-5.2917 170.53v0.76019"/>
   </g>
  </g>
  <g transform="translate(17.198,-140.9)">
   <circle cx="-5.2917" cy="163.35" r="6.6146" fill="url(#linearGradient993)" style="paint-order:normal"/>
   <path transform="matrix(.26458 0 0 .26458 -17.198 140.9)" d="m50.645 178.2c-0.79546 0-1.441 0.2696-1.9375 0.80664-0.49653 0.53707-0.74609 1.2363-0.74609 2.0977-1e-6 0.84107 0.24407 1.5348 0.73047 2.082 0.49147 0.5472 1.1115 0.82031 1.8613 0.82031 0.37493 0 0.69357-0.071 0.95703-0.21289 0.26346-0.14186 0.50204-0.36671 0.71484-0.67578l0.13672 0.72852h0.68359v-2.9941h-2.2188v0.95117h1.2617c-0.02027 0.19769-0.07402 0.37427-0.16016 0.53125-0.08613 0.15193-0.18346 0.27125-0.29492 0.35742-0.11147 0.0862-0.2335 0.1572-0.36523 0.21289-0.13173 0.0506-0.24553 0.0853-0.3418 0.10547-0.0912 0.0151-0.17321 0.0234-0.24414 0.0234-0.46107 0-0.83974-0.18208-1.1387-0.54688-0.29387-0.3648-0.44141-0.83098-0.44141-1.3984 0-0.59787 0.13656-1.0668 0.41016-1.4062 0.27867-0.33947 0.65929-0.50976 1.1406-0.50976 0.67893 0 1.1196 0.29586 1.3223 0.88867l1.0703 2e-3c-0.07093-0.57254-0.32129-1.0269-0.75195-1.3613-0.43067-0.33438-0.97964-0.50195-1.6484-0.50195zm-11.973 0.10547-1.9668 5.541h1.1621l0.37305-1.1172h2.0742l0.36524 1.1172h1.1699l-1.916-5.541h-1.2617zm3.8633 0v5.541h1.1406v-3.8301l2.2266 3.8301h1.1406v-5.541h-1.1406v3.7715l-2.1973-3.7715zm11.578 0v5.541h4.1426v-0.94922h-3.002v-1.4375h2.6523v-0.94922h-2.6523v-1.2539h2.8652v-0.95117h-4.0059zm-22.369 2e-3v5.5391h1.1406v-2.1953h1.3066c0.24827 0 0.4276 0.0519 0.53906 0.15821 0.11147 0.10131 0.16797 0.26888 0.16797 0.50195 0 0.0658-0.0027 0.14234-0.0078 0.22852-0.0051 0.0862-0.0078 0.20548-0.0078 0.35742 0 0.25829 0.01099 0.44861 0.03125 0.57031 0.02533 0.12155 0.0736 0.24713 0.14453 0.37891h1.2227v-0.20508c-0.16213-0.0911-0.24219-0.24217-0.24219-0.45508-0.0051-0.30917-0.01056-0.54224-0.01562-0.69922-0.0051-0.15718-0.02154-0.3165-0.04688-0.47851-0.02027-0.16227-0.04303-0.27522-0.06836-0.33594-0.02027-0.0607-0.06578-0.12899-0.13672-0.20508-0.06587-0.0758-0.1314-0.12771-0.19726-0.1582-0.06587-0.0355-0.16594-0.081-0.30274-0.13672 0.6232-0.2432 0.93359-0.70034 0.93359-1.3691 0-0.17235-0.02276-0.33717-0.06836-0.49414-0.0456-0.16225-0.12212-0.32154-0.22852-0.47852-0.10133-0.15708-0.25516-0.28265-0.46289-0.37891-0.20267-0.0962-0.44478-0.14453-0.72852-0.14453h-2.9727zm1.1406 0.94922h1.375c0.2736 0 0.47569 0.0483 0.60742 0.14453 0.13173 0.0912 0.19922 0.27876 0.19922 0.5625 0 0.29894-0.07023 0.49555-0.20703 0.5918-0.13173 0.0962-0.33108 0.14453-0.59961 0.14453h-1.375v-1.4434zm6.3965 0.35742 0.7207 2.166h-1.4434l0.72266-2.166z" fill="#f9f9f9" style="font-feature-settings:normal;font-variant-caps:normal;font-variant-ligatures:normal;font-variant-numeric:normal"/>
   <circle cx="-5.2917" cy="174.5" r="2.6458" fill="url(#linearGradient1677)" style="paint-order:normal"/>
  </g>
  <g transform="translate(17.198,-140.9)" fill="#666" stroke="#666" stroke-linecap="round" stroke-miterlimit="1.5" stroke-width=".3175">
   <path d="m-5.2917 177.72v0.76019"/>
   <path d="m-5.2917 186.72v0.76018"/>
   <path d="m-5.2917 177.72v0.76019"/>
  </g>
  <path d="m15.582 89.497c-0.21046 0-0.38052 0.07153-0.51056 0.21497-0.12869 0.14344-0.19327 0.32771-0.19327 0.55292 0 0.22521 0.06458 0.40949 0.19327 0.55292 0.12869 0.14344 0.29948 0.21549 0.51262 0.21549 0.21448 0 0.38528-0.07205 0.51262-0.21549 0.12869-0.14478 0.19327-0.32543 0.19327-0.5426 1e-6 -0.23325-0.0653-0.42116-0.19533-0.56326-0.13003-0.14344-0.30083-0.21497-0.51262-0.21497zm-9.6442 0.02429v1.4655h0.30178v-1.4655zm0.62475 0v1.4655h0.30128v-1.0134l0.58911 1.0134h0.30178v-1.4655h-0.30178v0.99734l-0.58083-0.99734h-0.30953zm9.9673 0v0.99321c0 0.07909 0.01204 0.1499 0.03617 0.2129 0.02547 0.06167 0.05776 0.11129 0.09664 0.14883 0.03888 0.03754 0.08414 0.06837 0.13642 0.0925 0.05362 0.02413 0.10543 0.04126 0.15503 0.05064 0.05094 0.0094 0.10296 0.01394 0.15658 0.01394 0.05362 0 0.10543-0.0046 0.15503-0.01394 0.05094-0.0094 0.10275-0.02651 0.15503-0.05064 0.05362-0.02413 0.09961-0.05496 0.13849-0.0925 0.03887-0.03754 0.07044-0.08716 0.09457-0.14883 0.02547-0.063 0.03824-0.13381 0.03824-0.2129v-0.99321h-0.30178v0.99321c0 0.17427-0.09323 0.26148-0.27956 0.26148-0.18632 0-0.27905-0.08721-0.27905-0.26148v-0.99321h-0.30178zm1.3839 0v0.25114h0.44442v1.2144h0.30178v-1.2144h0.42838v-0.25114h-1.1746zm-2.3295 0.23306c0.12333 0 0.22113 0.04672 0.29352 0.14056 0.07373 0.09384 0.11059 0.22008 0.11059 0.37827 0 0.15014-0.03758 0.2713-0.11265 0.3638-0.07373 0.0925-0.1708 0.13901-0.29146 0.13901-0.12199 0-0.21979-0.04651-0.29352-0.13901-0.07373-0.09384-0.11059-0.2179-0.11059-0.37205 0-0.15416 0.03686-0.27749 0.11059-0.36999 0.07373-0.09384 0.17153-0.14056 0.29352-0.14056z" fill="#f9f9f9" stroke-width=".26458" style="font-feature-settings:normal;font-variant-caps:normal;font-variant-ligatures:normal;font-variant-numeric:normal"/>
  <path d="m11.906 21.06a1.3891 1.3891 0 0 0-1.3891 1.3891 1.3891 1.3891 0 0 0 1.3891 1.3891 1.3891 1.3891 0 0 0 1.3891-1.3891 1.3891 1.3891 0 0 0-1.3891-1.3891zm0 11.651a0.89297 0.89297 0 0 0-0.89297 0.89297 0.89297 0.89297 0 0 0 0.89297 0.89297 0.89297 0.89297 0 0 0 0.89297-0.89297 0.89297 0.89297 0 0 0-0.89297-0.89297zm0 7.5954a1.3906 1.3906 0 0 0-1.3906 1.3906 1.3906 1.3906 0 0 0 1.3906 1.3906 1.3906 1.3906 0 0 0 1.3906-1.3906 1.3906 1.3906 0 0 0-1.3906-1.3906zm0.01344 23.59a0.70888 0.70888 0 0 0-0.709 0.709 0.70888 0.70888 0 0 0 0.709 0.709 0.70888 0.70888 0 0 0 0.709-0.709 0.70888 0.70888 0 0 0-0.709-0.709zm-0.01344 8.4522a1.4842 1.4842 0 0 0-1.4841 1.4842 1.4842 1.4842 0 0 0 1.4841 1.4842 1.4842 1.4842 0 0 0 1.4841-1.4842 1.4842 1.4842 0 0 0-1.4841-1.4842zm0 8.0305a0.20887 0.20887 0 0 0-0.20877 0.20929 0.20887 0.20887 0 0 0 0.20877 0.20877 0.20887 0.20887 0 0 0 0.20877-0.20877 0.20887 0.20887 0 0 0-0.20877-0.20929zm-5.0596 3.5905a1.4842 1.4842 0 0 0-1.4841 1.4842 1.4842 1.4842 0 0 0 1.4841 1.4842 1.4842 1.4842 0 0 0 1.4841-1.4842 1.4842 1.4842 0 0 0-1.4841-1.4842zm10.137 0a1.4842 1.4842 0 0 0-1.4841 1.4842 1.4842 1.4842 0 0 0 1.4841 1.4842 1.4842 1.4842 0 0 0 1.4841-1.4842 1.4842 1.4842 0 0 0-1.4841-1.4842z" fill="#ececec" style="paint-order:normal"/>
 </g>
</svg>
