<?xml version="1.0" encoding="UTF-8" standalone="no"?>
<!-- Created with Inkscape (http://www.inkscape.org/) -->

<svg
   xmlns:dc="http://purl.org/dc/elements/1.1/"
   xmlns:cc="http://creativecommons.org/ns#"
   xmlns:rdf="http://www.w3.org/1999/02/22-rdf-syntax-ns#"
   xmlns:svg="http://www.w3.org/2000/svg"
   xmlns="http://www.w3.org/2000/svg"
   xmlns:xlink="http://www.w3.org/1999/xlink"
   xmlns:sodipodi="http://sodipodi.sourceforge.net/DTD/sodipodi-0.dtd"
   xmlns:inkscape="http://www.inkscape.org/namespaces/inkscape"
   width="5mm"
   height="3.5mm"
   viewBox="0 0 5 3.5"
   version="1.1"
   id="svg136"
   inkscape:version="0.92.3 (2405546, 2018-03-11)"
   sodipodi:docname="screw_01.svg">
  <defs
     id="defs130">
    <linearGradient
       xlink:href="#linearGradient1229"
       gradientUnits="userSpaceOnUse"
       gradientTransform="matrix(0.15014044,0,0,0.15014044,-16.404493,258.4191)"
       y2="256.89999"
       y1="233.5"
       x2="127.7"
       x1="125"
       id="linearGradient294" />
    <linearGradient
       id="linearGradient1229">
      <stop
         id="stop3"
         offset="0"
         stop-color="#ccc" />
      <stop
         id="stop5"
         offset="1"
         stop-color="#767676" />
    </linearGradient>
    <linearGradient
       xlink:href="#linearGradient1229"
       gradientUnits="userSpaceOnUse"
       gradientTransform="matrix(0.43117975,0,0,0.43117975,-5.3089878,297.98933)"
       y2="-9.4820004"
       y1="-3.4849999"
       x2="18.1"
       x1="18.030001"
       id="linearGradient296" />
    <linearGradient
       id="linearGradient1531"
       x1="727.60999"
       x2="727.60999"
       y1="375.98999"
       y2="370.12"
       gradientTransform="matrix(0.32930266,0,0,0.33456845,-195.97868,171.20987)"
       gradientUnits="userSpaceOnUse">
      <stop
         stop-color="#b3b3b3"
         offset="0"
         id="stop29" />
      <stop
         stop-color="#262626"
         offset="1"
         id="stop31" />
    </linearGradient>
  </defs>
  <sodipodi:namedview
     id="base"
     pagecolor="#ffffff"
     bordercolor="#666666"
     borderopacity="1.0"
     inkscape:pageopacity="0.0"
     inkscape:pageshadow="2"
     inkscape:zoom="34.698214"
     inkscape:cx="7.8634128"
     inkscape:cy="8.1070142"
     inkscape:document-units="mm"
     inkscape:current-layer="layer1"
     showgrid="false"
     inkscape:window-width="1920"
     inkscape:window-height="1135"
     inkscape:window-x="0"
     inkscape:window-y="0"
     inkscape:window-maximized="1" />
  <metadata
     id="metadata133">
    <rdf:RDF>
      <cc:Work
         rdf:about="">
        <dc:format>image/svg+xml</dc:format>
        <dc:type
           rdf:resource="http://purl.org/dc/dcmitype/StillImage" />
        <dc:title></dc:title>
      </cc:Work>
    </rdf:RDF>
  </metadata>
  <g
     inkscape:label="Layer 1"
     inkscape:groupmode="layer"
     id="layer1"
     transform="translate(0,-293.5)">
    <path
       id="path43"
       style="clip-rule:evenodd;fill:#666666;fill-rule:evenodd;stroke-width:0.33192512;stroke-linecap:round;stroke-linejoin:round;stroke-miterlimit:1.5;paint-order:normal"
       d="m 1.6988396,293.78319 c -0.80267528,0 -1.44287259,0.65114 -1.44287259,1.46662 0,0.81551 0.6402961,1.46595 1.44287259,1.46595 h 1.6142416 c 0.8025436,0 1.4435311,-0.65054 1.4435311,-1.46595 4e-7,-0.81541 -0.6408888,-1.46662 -1.4435311,-1.46662 z"
       inkscape:connector-curvature="0"
       sodipodi:nodetypes="sssssss" />
    <path
       id="path45"
       d="m 4.2109908,295.00557 -3.196541,1.12328 0.2225362,0.44371 c 0.1511038,0.0565 0.3128343,0.0915 0.4843054,0.0915 H 3.278399 c 0.4843713,0 0.9073277,-0.246 1.1564121,-0.62273 z"
       inkscape:connector-curvature="0"
       style="clip-rule:evenodd;fill:#333333;fill-rule:evenodd;stroke-width:0.33192512;stroke-linecap:round;stroke-linejoin:round;stroke-miterlimit:1.5" />
    <path
       id="path47"
       style="color:#000000;font-variant-ligatures:normal;font-variant-position:normal;font-variant-caps:normal;font-variant-numeric:normal;font-variant-alternates:normal;font-feature-settings:normal;text-indent:0;text-decoration:none;text-decoration-line:none;text-decoration-style:solid;text-decoration-color:#000000;text-transform:none;text-orientation:mixed;dominant-baseline:auto;white-space:normal;shape-padding:0;clip-rule:nonzero;isolation:auto;mix-blend-mode:normal;solid-color:#000000;fill:url(#linearGradient1531);fill-rule:nonzero;stroke-width:0.33192512;stroke-linecap:round;stroke-linejoin:round;stroke-miterlimit:1.5;paint-order:normal;color-rendering:auto;image-rendering:auto;shape-rendering:auto"
       dominant-baseline="auto"
       d="m 1.7211333,293.50002 c -0.95086139,0 -1.721133242131415,0.78255 -1.721133242131415,1.74865 0,0.96607 0.770173062131415,1.7493 1.721133242131415,1.7493 H 3.278241 C 4.2292012,296.99797 5,296.21484 5,295.24867 5,294.2825 4.2291024,293.50002 3.278241,293.50002 Z m 0,0.33457 H 3.278241 c 0.7742564,0 1.3924563,0.62751 1.3924563,1.41408 0,0.78657 -0.6182987,1.41472 -1.3924563,1.41472 H 1.7211333 c -0.77419051,0 -1.39183058,-0.62808 -1.39183058,-1.41472 0,-0.78664 0.6175742,-1.41408 1.39183058,-1.41408 z"
       inkscape:connector-curvature="0" />
    <path
       id="path51"
       stroke-miterlimit="1.5"
       d="m 4.4349163,296.04273 c -0.2490779,0.37676 -0.6720409,0.62273 -1.1564122,0.62273 H 1.7213966 c -0.1714713,0 -0.3331885,-0.035 -0.4843055,-0.0915 l 0.2000251,0.40058 c 0.092714,0.0157 0.1871657,0.0254 0.2842804,0.0254 h 1.5571075 c 0.4910892,0 0.9315314,-0.21123 1.2451593,-0.54628 z"
       inkscape:connector-curvature="0"
       style="clip-rule:evenodd;fill:#434343;fill-rule:evenodd;stroke-width:0.33192512;stroke-linecap:round;stroke-linejoin:round;stroke-miterlimit:1.5" />
    <path
       id="path53"
       stroke-miterlimit="1.5"
       d="m 1.7211331,293.83458 c -0.77425641,0 -1.39183057,0.62808 -1.39183057,1.41472 0,0.0588 0.0100063,0.11437 0.0167215,0.17121 0.25027002,-0.29229 1.05096937,-1.12429 2.13789867,-1.12395 0.938282,2.8e-4 1.8268394,0.72732 2.1771187,1.05011 0.0022,-0.0329 0.00965,-0.0639 0.00965,-0.0974 -9e-7,-0.78657 -0.6181999,-1.41472 -1.3924563,-1.41472 z"
       inkscape:connector-curvature="0"
       style="clip-rule:evenodd;fill:#333333;fill-rule:evenodd;stroke-width:0.33192512;stroke-linecap:round;stroke-linejoin:round;stroke-miterlimit:1.5" />
    <circle
       cx="2.4999971"
       cy="295.25"
       r="1.7499999"
       id="circle11"
       style="clip-rule:evenodd;fill:url(#linearGradient294);fill-rule:evenodd;stroke-width:0.33286512;stroke-linecap:round;stroke-linejoin:round;stroke-miterlimit:1.5" />
    <circle
       cx="2.4999971"
       cy="295.25"
       r="1.5603931"
       id="circle13"
       style="clip-rule:evenodd;fill:#cccccc;fill-rule:evenodd;stroke-width:0.29691011;stroke-linecap:round;stroke-linejoin:round;stroke-miterlimit:1.5" />
    <path
       d="m 3.623596,295.91573 c -0.046489,0.0805 -1.0573033,0.66433 -1.1505618,0.66433 -0.093006,0 -1.1039325,-0.58371 -1.1505617,-0.66433 -0.046489,-0.0805 -0.046489,-1.24775 0,-1.32837 0.046489,-0.0805 1.0573033,-0.66432 1.1505617,-0.66432 0.093006,0 1.1039326,0.5837 1.1505618,0.66432 0.046489,0.0805 0.046489,1.24775 0,1.32837 z"
       style="clip-rule:evenodd;fill:url(#linearGradient296);fill-rule:evenodd;stroke-width:0.27825841;stroke-linecap:round;stroke-linejoin:round;stroke-miterlimit:1.5;paint-order:normal"
       id="path15"
       inkscape:connector-curvature="0" />
    <path
       d="m 3.3988769,295.78736 c -0.037528,0.065 -0.8536516,0.53624 -0.9286516,0.53624 -0.075056,0 -0.8912921,-0.47107 -0.9286517,-0.53624 -0.0375,-0.065 -0.037528,-1.0073 0,-1.07247 0.037528,-0.065 0.8536517,-0.53624 0.9286517,-0.53624 0.075056,0 0.891292,0.47107 0.9286516,0.53624 0.0375,0.065 0.037528,1.0073 0,1.07247 z"
       style="clip-rule:evenodd;fill:#333333;fill-rule:evenodd;stroke-width:0.27825841;stroke-linecap:round;stroke-linejoin:round;stroke-miterlimit:1.5;paint-order:normal"
       id="path17"
       inkscape:connector-curvature="0" />
  </g>
</svg>
